<?xml version="1.0" encoding="utf-8"?>
<!-- Generator: Adobe Illustrator 23.0.5, SVG Export Plug-In . SVG Version: 6.00 Build 0)  -->
<svg version="1.1" id="Layer_1" xmlns="http://www.w3.org/2000/svg" xmlns:xlink="http://www.w3.org/1999/xlink" x="0px" y="0px"
	 viewBox="0 0 1109.5 96.4" style="enable-background:new 0 0 1109.5 96.4;" xml:space="preserve">
<style type="text/css">
	.st0{fill:#009245;}
</style>
<g>
	<g>
		<path class="st0" d="M60.2,48.3c3.4-2.5,6-5.6,7.9-9.1c1.9-3.7,2.8-7.4,2.8-11.6c0-7.2-2.6-13.4-7.7-18.5
			C58,3.9,51.8,1.4,44.4,1.4H10.5C7.6,1.4,5,2.4,3,4.5c-2.1,2-3,4.4-3,7.3v72.9c0,2.9,0.9,5.4,3,7.3c2.1,2.1,4.6,3.2,7.5,3.2h33.9
			c7.3,0,13.6-2.6,18.8-7.8c5-5.2,7.7-11.5,7.7-18.8c0-4-0.9-7.9-2.8-11.5C66.1,53.6,63.6,50.7,60.2,48.3L60.2,48.3z M47.9,72
			L47.9,72c-1.3,1.4-2.8,2.1-4.6,2.1H20.9V59h22.3c1.8,0,3.3,0.6,4.6,2.1c1.2,1.5,2,3.3,2,5.5C49.8,68.8,49.1,70.4,47.9,72L47.9,72z
			 M47.9,35.6L47.9,35.6c-1.3,1.4-2.8,2.1-4.6,2.1H20.9V22.5h22.3c1.8,0,3.3,0.7,4.6,2.2c1.2,1.5,2,3.2,2,5.4
			C49.8,32.2,49.1,34,47.9,35.6L47.9,35.6z"/>
		<path class="st0" d="M153.6,14.4c-3.2-5-7.3-8.7-12.5-10.9c-5.2-2.3-11-3.5-17.6-3.5c-10.3,0-18.5,2.9-25,8.5
			C91.9,14,88.6,22.3,88.6,33v52.9c0,2.9,0.9,5.3,3.1,7.5c2,2,4.6,3,7.5,3c2.9,0,5.3-1,7.3-3c2.2-2.2,3.1-4.6,3.1-7.5V70.6h27.7
			v15.3c0,2.9,1.1,5.3,3.2,7.5c2.1,2,4.5,3,7.4,3c2.9,0,5.4-1,7.5-3c2-2.2,3.1-4.6,3.1-7.5V33C158.5,25.8,156.8,19.6,153.6,14.4
			L153.6,14.4z M137.3,49.5L137.3,49.5h-27.7V33c0-3.2,1.4-6,4.2-8.3c2.7-2.3,5.9-3.5,9.7-3.5c3.8,0,7,1.2,9.8,3.5
			c2.6,2.3,3.9,5,3.9,8.3V49.5z"/>
		<path class="st0" d="M245.8,77.3c-2.1-2.1-4.6-3.2-7.5-3.2H199V10.7c0-2.9-1.1-5.4-3.1-7.5C193.8,1,191.3,0,188.4,0
			c-2.9,0-5.3,1-7.4,3.2c-2.1,2.1-3.1,4.6-3.1,7.5v74.1c0,2.9,1,5.4,3.1,7.3c2.1,2.1,4.5,3.2,7.4,3.2h49.8c2.9,0,5.4-1.1,7.5-3.2
			c2.1-2,3.2-4.4,3.2-7.3S247.9,79.5,245.8,77.3L245.8,77.3z"/>
		<path class="st0" d="M328.2,14.4c-3.2-5-7.3-8.7-12.5-10.9c-5.2-2.3-11-3.5-17.6-3.5c-10.3,0-18.6,2.9-25,8.5
			c-6.6,5.5-9.8,13.8-9.8,24.4v52.9c0,2.9,0.9,5.3,3.1,7.5c2,2,4.6,3,7.3,3c2.9,0,5.5-1,7.4-3c2.1-2.2,3.1-4.6,3.1-7.5V70.6h27.7
			v15.3c0,2.9,1,5.3,3.2,7.5c2.1,2,4.5,3,7.4,3s5.4-1,7.5-3c2-2.2,3.1-4.6,3.1-7.5V33C333.1,25.8,331.4,19.6,328.2,14.4L328.2,14.4z
			 M311.9,49.5L311.9,49.5h-27.7V33c0-3.2,1.4-6,4.1-8.3c2.8-2.3,6-3.5,9.8-3.5s7,1.2,9.7,3.5c2.6,2.3,4,5,4,8.3V49.5z"/>
		<path class="st0" d="M419,3.2C416.9,1,414.4,0,411.5,0c-3.1,0-5.6,1-7.6,3.2c-2,2.1-3.1,4.6-3.1,7.5v39.4L371.5,5
			c-2.2-3.4-5.2-5-8.7-5c-2.9,0-5.4,1-7.5,3.2c-2,2.1-3.1,4.6-3.1,7.5v75.2c0,2.9,1.1,5.3,3.1,7.5c2.1,2,4.6,3,7.5,3s5.3-1,7.4-3
			c2.1-2.2,3.2-4.6,3.2-7.5V46.4l29.2,45.3c2.1,3.2,5,4.7,8.8,4.7c2.9,0,5.4-1,7.5-3c2-2.2,3.1-4.6,3.1-7.5V10.5
			C422.1,7.6,421,5.1,419,3.2L419,3.2z"/>
		<path class="st0" d="M500.5,37.7h-18.9c-2.8,0-5.4,1.1-7.3,3.1c-2.1,2.1-3.1,4.6-3.1,7.5s0.9,5.3,3.1,7.4c2,2.2,4.5,3.2,7.3,3.2
			h8.4v5.6c0,2.9-1.4,5.6-4.1,7.7c-2.8,2-6,3-9.8,3c-4.1,0-7.4-1.2-10.1-3.6c-2.5-2.5-3.7-5.6-3.7-9.4V34.2c0-3.7,1.2-6.7,3.7-9.1
			c2.5-2.6,5.8-3.8,10.1-3.8c0.9,0,1.9,0,2.6,0.2c0.8,0,1.5,0.2,2.2,0.3c0.9,0.1,1.5,0.3,2.1,0.3c0.4,0.2,1.2,0.4,1.8,0.8
			c0.8,0.3,1.4,0.6,1.7,0.8c0.4,0.2,1,0.4,1.8,1.1c0.9,0.4,1.4,0.9,1.9,1c0.3,0.3,0.9,0.8,2,1.5c1.1,0.6,1.8,1.2,2.1,1.5
			c2,1.2,4.1,2,6.2,2c3.1,0,5.6-1,7.5-3.1c2.1-2,3.1-4.5,3.1-7.4c0-2.1-0.6-4.2-1.7-6c-2.3-3.8-6.4-7-12.4-9.9C491,1.5,484,0,476,0
			c-10.1,0-18.5,2.9-25,8.5c-6.6,5.5-9.8,13.8-9.8,24.4v31.6c0,10.4,3.2,18.2,9.8,23.8c6.6,5.3,15,8,25,8c4.9,0,9.5-0.6,13.6-2
			c4.3-1.2,7.9-3.2,11.2-5.8c3.2-2.5,5.6-5.8,7.5-9.9c1.8-4.1,2.7-8.7,2.7-14.1V48.3c0-2.9-0.9-5.4-3.1-7.5
			C506,38.8,503.4,37.7,500.5,37.7L500.5,37.7z"/>
	</g>
	<g>
		<path class="st0" d="M623.1,37.6h-18.9c-2.9,0-5.3,1.1-7.4,3.1c-2,2.1-3.1,4.6-3.1,7.5s1,5.3,3.1,7.4c2.1,2.2,4.5,3.2,7.4,3.2h8.3
			v5.6c0,2.9-1.4,5.5-4.2,7.7c-2.7,2-5.9,3-9.5,3c-4.3,0-7.7-1.2-10-3.6c-2.6-2.5-3.8-5.5-3.8-9.4v-28c0-3.7,1.2-6.6,3.7-9.1
			c2.5-2.6,6-3.8,10.2-3.8c0.9,0,1.8,0,2.6,0.2c0.8,0,1.5,0.2,2.3,0.3c0.8,0.1,1.4,0.3,2,0.3c0.5,0.2,1.1,0.4,1.9,0.8
			c0.8,0.3,1.2,0.6,1.6,0.8c0.3,0.2,0.9,0.4,1.9,1.1c0.8,0.4,1.4,0.9,1.7,1c0.3,0.3,1,0.8,2,1.5c1,0.6,1.8,1.2,2.3,1.5
			c1.8,1.2,3.9,2,6.2,2c2.9,0,5.4-1,7.5-3.1c2-2,3-4.5,3-7.4c0-2.1-0.6-4.2-1.8-6c-2.3-3.8-6.4-7-12.3-9.9c-6-2.8-12.8-4.3-20.7-4.3
			c-10.2,0-18.6,2.9-25,8.5c-6.6,5.4-9.9,13.7-9.9,24.3v31.5c0,10.4,3.3,18.1,9.9,23.7c6.4,5.3,14.8,8,25,8c4.9,0,9.4-0.6,13.5-2
			c4.1-1.2,7.7-3.2,11-5.8c3.1-2.5,5.8-5.8,7.6-9.9c1.9-4.1,2.7-8.7,2.7-14V48.1c0-2.9-1-5.4-3.1-7.5
			C628.4,38.7,626,37.6,623.1,37.6L623.1,37.6z"/>
		<path class="st0" d="M706.5,57.4c5.4-2,9.4-5.4,12.5-10.2c3.1-5,4.6-10.6,4.6-17.2c0-8.1-2.3-14.9-7.1-20.4
			C712,4.1,705.7,1.4,698,1.4h-34.6c-3.1,0-5.4,0.9-7.6,2.6c-2,1.7-2.9,4-2.9,6.7v74.9c0,2.9,1,5.4,3,7.5c2,2,4.6,3,7.5,3
			s5.4-1,7.3-3c2.1-2.1,3.1-4.6,3.1-7.5V58.8h8.3l22,32.6c2.1,3.1,5.1,4.7,8.7,4.7c2.9,0,5.5-1,7.5-3c2.1-2.1,3.1-4.6,3.1-7.5
			c0-2.3-0.6-4.4-1.9-6.2L706.5,57.4z M700.3,35.4L700.3,35.4c-1.1,1.4-2.7,2.1-4.9,2.1h-21.6V22.4h21.6c2.1,0,3.7,0.7,4.9,2.1
			c1.2,1.4,1.7,3.3,1.7,5.4C702,32.3,701.5,34.1,700.3,35.4L700.3,35.4z"/>
		<path class="st0" d="M806.1,14.4c-3.1-5-7.4-8.7-12.6-10.9c-5-2.3-11-3.5-17.5-3.5c-10.2,0-18.4,2.9-24.9,8.5
			c-6.6,5.4-9.8,13.7-9.8,24.3v52.7c0,2.9,1.1,5.3,3.1,7.5c2.1,2,4.6,3,7.5,3c2.9,0,5.3-1,7.2-3c2.1-2.2,3.2-4.6,3.2-7.5V70.3h27.4
			v15.2c0,2.9,1.1,5.3,3.2,7.5c2.1,2,4.5,3,7.4,3s5.4-1,7.5-3c2-2.2,3.1-4.6,3.1-7.5V32.9C810.8,25.7,809.3,19.5,806.1,14.4
			L806.1,14.4z M789.6,49.3L789.6,49.3h-27.4V32.9c0-3.2,1.2-6,4-8.3c2.7-2.3,5.9-3.5,9.7-3.5c3.8,0,7,1.2,9.7,3.5
			c2.8,2.3,4,5,4,8.3V49.3z"/>
		<path class="st0" d="M896.7,4.5c-2.1-2.1-4.8-3.1-7.5-3.1h-48.6c-2.9,0-5.3,1-7.4,3.1c-2,2-3.1,4.4-3.1,7.3v73.7
			c0,2.9,1,5.3,3.1,7.5c2.1,2,4.5,3,7.4,3s5.4-1,7.5-3c2-2.2,3.1-4.6,3.1-7.5V58.8h26.3c2.9,0,5.4-1,7.5-3.2c2-2.1,3.1-4.5,3.1-7.4
			s-1.1-5.4-3.1-7.5c-2.1-2-4.6-3.1-7.5-3.1h-26.3V22.3h38c2.7,0,5.4-1,7.5-3c2.1-2.1,3-4.6,3-7.5C899.7,9,898.8,6.5,896.7,4.5
			L896.7,4.5z"/>
		<path class="st0" d="M932.1,3.2C930,1.1,927.6,0,924.7,0s-5.4,1-7.3,3.1c-2.1,2.1-3.2,4.6-3.2,7.5v74.9c0,2.9,1.1,5.3,3.2,7.5
			c2,2,4.4,3,7.3,3s5.3-1,7.4-3c2-2.2,3.1-4.6,3.1-7.5V10.7C935.2,7.8,934.1,5.3,932.1,3.2L932.1,3.2z"/>
		<path class="st0" d="M995.3,48l27.6-30.5c2-2,2.9-4.4,2.9-7.1c0-2.9-1.1-5.3-3.1-7.3c-2-2-4.4-3-7.3-3c-3.2,0-6,1.2-8.1,3.5
			L976,38.1V10.7c0-2.9-1.1-5.4-3.1-7.5c-2.1-2.1-4.6-3.1-7.5-3.1c-2.9,0-5.3,1-7.3,3.1c-2.1,2.1-3.1,4.6-3.1,7.5v74.9
			c0,2.9,1,5.3,3.1,7.5c2,2,4.4,3,7.3,3c2.9,0,5.4-1,7.5-3c2-2.2,3.1-4.6,3.1-7.5V57.8l31.3,34.6c2,2.5,4.8,3.7,7.9,3.7
			c2.9,0,5.4-1,7.5-3c2-2.2,3.1-4.6,3.1-7.5c0-2.7-0.9-5-2.9-7.1L995.3,48z"/>
		<path class="st0" d="M1104.8,14.4c-3.2-5-7.5-8.7-12.7-10.9c-5-2.3-10.9-3.5-17.4-3.5c-10.2,0-18.5,2.9-25,8.5
			c-6.6,5.4-9.7,13.7-9.7,24.3v52.7c0,2.9,1,5.3,3.1,7.5c2.1,2,4.5,3,7.4,3s5.4-1,7.3-3c2.1-2.2,3.2-4.6,3.2-7.5V70.3h27.4v15.2
			c0,2.9,1,5.3,3.1,7.5c2.1,2,4.6,3,7.5,3c2.9,0,5.4-1,7.5-3c2-2.2,3-4.6,3-7.5V32.9C1109.5,25.7,1108,19.5,1104.8,14.4L1104.8,14.4
			z M1088.4,49.3L1088.4,49.3H1061V32.9c0-3.2,1.2-6,3.9-8.3c2.7-2.3,6-3.5,9.8-3.5c3.7,0,7,1.2,9.7,3.5c2.7,2.3,4,5,4,8.3V49.3z"/>
	</g>
</g>
</svg>
