<?xml version="1.0" encoding="utf-8"?>
<!-- Generator: Adobe Illustrator 19.0.0, SVG Export Plug-In . SVG Version: 6.00 Build 0)  -->
<svg version="1.1" id="Layer_1" xmlns="http://www.w3.org/2000/svg" xmlns:xlink="http://www.w3.org/1999/xlink" x="0px" y="0px"
	 viewBox="0 0 3115.8 1355.6" style="enable-background:new 0 0 3115.8 1355.6;" xml:space="preserve">
<style type="text/css">
	.st0{opacity:0.2;fill:#6FB274;}
</style>
<g>
	<g>
		<path class="st0" d="M1612.5,89.6h10.7v14c0,2.9,2.3,5.2,5.2,5.2c2.9,0,5.2-2.3,5.2-5.2v-14h10.7c2.9,0,5.2-2.3,5.2-5.2
			c0-2.9-2.3-5.2-5.2-5.2h-10.7v-14c0-2.9-2.3-5.2-5.2-5.2c-2.9,0-5.2,2.3-5.2,5.2v14h-10.7c-2.9,0-5.2,2.3-5.2,5.2
			C1607.3,87.3,1609.7,89.6,1612.5,89.6z"/>
		<path class="st0" d="M1966.4,134.4c0.9,1.5,2.6,2.5,4.4,2.5c0.1,0,0.2,0,0.2,0c1.9-0.1,3.6-1.2,4.4-2.9l12.9-26.4
			c1.3-2.6,0.2-5.7-2.4-6.9c-2.6-1.3-5.7-0.2-6.9,2.4l-8.8,17.9l-4.3-7c-1.5-2.4-4.7-3.2-7.1-1.7c-2.4,1.5-3.2,4.7-1.7,7.1
			L1966.4,134.4z"/>
		<path class="st0" d="M1966.4,194.1c0.9,1.5,2.6,2.5,4.4,2.5c0.1,0,0.2,0,0.2,0c1.9-0.1,3.6-1.2,4.4-2.9l12.9-26.4
			c1.3-2.6,0.2-5.7-2.4-6.9c-2.6-1.3-5.7-0.2-6.9,2.4l-8.8,17.9l-4.3-7c-1.5-2.4-4.7-3.2-7.1-1.7c-2.4,1.5-3.2,4.7-1.7,7.1
			L1966.4,194.1z"/>
		<path class="st0" d="M2006.1,111.9h49.1c2.9,0,5.2-2.3,5.2-5.2c0-2.9-2.3-5.2-5.2-5.2h-49.1c-2.9,0-5.2,2.3-5.2,5.2
			C2000.9,109.6,2003.2,111.9,2006.1,111.9z"/>
		<path class="st0" d="M2071.5,111.9h24.6c2.9,0,5.2-2.3,5.2-5.2c0-2.9-2.3-5.2-5.2-5.2h-24.6c-2.9,0-5.2,2.3-5.2,5.2
			C2066.3,109.6,2068.6,111.9,2071.5,111.9z"/>
		<path class="st0" d="M2006.1,133.3h24.5c2.9,0,5.2-2.3,5.2-5.2c0-2.9-2.3-5.2-5.2-5.2h-24.5c-2.9,0-5.2,2.3-5.2,5.2
			C2000.9,131,2003.2,133.3,2006.1,133.3z"/>
		<path class="st0" d="M2043.1,129.3c0,2.9,2.3,5.2,5.2,5.2h73.8c2.9,0,5.2-2.3,5.2-5.2c0-2.9-2.3-5.2-5.2-5.2h-73.8
			C2045.4,124.1,2043.1,126.4,2043.1,129.3z"/>
		<path class="st0" d="M2006.1,172.1h68c2.9,0,5.2-2.3,5.2-5.2c0-2.9-2.3-5.2-5.2-5.2h-68c-2.9,0-5.2,2.3-5.2,5.2
			C2000.9,169.7,2003.2,172.1,2006.1,172.1z"/>
		<path class="st0" d="M2105,172.1c2.9,0,5.2-2.3,5.2-5.2c0-2.9-2.3-5.2-5.2-5.2h-13.7c-2.9,0-5.2,2.3-5.2,5.2
			c0,2.9,2.3,5.2,5.2,5.2H2105z"/>
		<path class="st0" d="M2006.1,193.5h24.5c2.9,0,5.2-2.3,5.2-5.2c0-2.9-2.3-5.2-5.2-5.2h-24.5c-2.9,0-5.2,2.3-5.2,5.2
			C2000.9,191.1,2003.2,193.5,2006.1,193.5z"/>
		<path class="st0" d="M2043.1,189.5c0,2.9,2.3,5.2,5.2,5.2h42.1c2.9,0,5.2-2.3,5.2-5.2c0-2.9-2.3-5.2-5.2-5.2h-42.1
			C2045.4,184.3,2043.1,186.6,2043.1,189.5z"/>
		<path class="st0" d="M2406.9,467.4c2.9,0,5.2-2.3,5.2-5.2v-14h10.7c2.9,0,5.2-2.3,5.2-5.2c0-2.9-2.3-5.2-5.2-5.2h-10.7v-14
			c0-2.9-2.3-5.2-5.2-5.2c-2.9,0-5.2,2.3-5.2,5.2v14H2391c-2.9,0-5.2,2.3-5.2,5.2c0,2.9,2.3,5.2,5.2,5.2h10.7v14
			C2401.7,465,2404.1,467.4,2406.9,467.4z"/>
		<path class="st0" d="M2904.5,758.6h-10.7v-14c0-2.9-2.3-5.2-5.2-5.2c-2.9,0-5.2,2.3-5.2,5.2v14h-10.7c-2.9,0-5.2,2.3-5.2,5.2
			c0,2.9,2.3,5.2,5.2,5.2h10.7v14c0,2.9,2.3,5.2,5.2,5.2c2.9,0,5.2-2.3,5.2-5.2v-14h10.7c2.9,0,5.2-2.3,5.2-5.2
			C2909.7,760.9,2907.4,758.6,2904.5,758.6z"/>
		<path class="st0" d="M2904.4,1031.2c0-9.7-7.9-17.5-17.6-17.5c-9.7,0-17.6,7.9-17.6,17.5c0,9.7,7.9,17.6,17.6,17.6
			C2896.6,1048.7,2904.4,1040.9,2904.4,1031.2z M2886.9,1038.4c-4,0-7.2-3.2-7.2-7.2c0-4,3.2-7.2,7.2-7.2c4,0,7.2,3.2,7.2,7.2
			C2894.1,1035.1,2890.8,1038.4,2886.9,1038.4z"/>
		<path class="st0" d="M2857.2,510.1c9.7,0,17.6-7.9,17.6-17.6c0-9.7-7.9-17.5-17.6-17.5c-9.7,0-17.6,7.9-17.6,17.5
			C2839.7,502.2,2847.5,510.1,2857.2,510.1z M2857.2,485.3c4,0,7.2,3.2,7.2,7.2c0,4-3.2,7.2-7.2,7.2c-4,0-7.2-3.2-7.2-7.2
			C2850,488.5,2853.3,485.3,2857.2,485.3z"/>
		<path class="st0" d="M1860.7,242.1c0-9.7-7.9-17.5-17.6-17.5c-9.7,0-17.6,7.9-17.6,17.5c0,9.7,7.9,17.6,17.6,17.6
			C1852.8,259.7,1860.7,251.8,1860.7,242.1z M1836,242.1c0-4,3.2-7.2,7.2-7.2c4,0,7.2,3.2,7.2,7.2c0,4-3.2,7.2-7.2,7.2
			C1839.2,249.3,1836,246.1,1836,242.1z"/>
		<path class="st0" d="M2406.9,1291.1c-9.7,0-17.6,7.9-17.6,17.5c0,9.7,7.9,17.6,17.6,17.6c9.7,0,17.6-7.9,17.6-17.6
			C2424.5,1299,2416.6,1291.1,2406.9,1291.1z M2406.9,1315.8c-4,0-7.2-3.2-7.2-7.2c0-4,3.2-7.2,7.2-7.2c4,0,7.2,3.2,7.2,7.2
			C2414.1,1312.6,2410.9,1315.8,2406.9,1315.8z"/>
		<path class="st0" d="M2629.4,862.5c1,0.8,2.2,1.2,3.4,1.2c1.5,0,2.9-0.6,4-1.8l15.1-17.8c1.6-1.9,1.6-4.8,0-6.7l-15.1-17.8
			c-1.9-2.2-5.1-2.4-7.3-0.6c-2.2,1.9-2.4,5.1-0.6,7.3l12.3,14.4l-12.3,14.4C2627,857.3,2627.2,860.6,2629.4,862.5z"/>
		<path class="st0" d="M2656.1,862.5c1,0.8,2.2,1.2,3.4,1.2c1.5,0,2.9-0.6,4-1.8l15.1-17.8c1.6-1.9,1.6-4.8,0-6.7l-15.1-17.8
			c-1.9-2.2-5.1-2.4-7.3-0.6c-2.2,1.9-2.4,5.1-0.6,7.3l12.3,14.4l-12.3,14.4C2653.7,857.3,2653.9,860.6,2656.1,862.5z"/>
		<path class="st0" d="M2702.8,932.6l51.5,13.8c0.4,0.1,0.9,0.2,1.3,0.2c0.9,0,1.8-0.2,2.6-0.7c1.2-0.7,2.1-1.8,2.4-3.2l34.8-129.9
			c0,0,0,0,0,0c0,0,0,0,0,0l10.1-37.8c0,0,0,0,0,0c0,0,0,0,0,0l24-89.7c0.7-2.8-0.9-5.6-3.7-6.3l-51.5-13.8
			c-2.8-0.7-5.6,0.9-6.3,3.7l-68.9,257.4C2698.4,929,2700.1,931.8,2702.8,932.6z M2776.7,676.5l41.5,11.1l-1.7,6.5l-9-2.4
			c-2.8-0.7-5.6,0.9-6.3,3.7c-0.7,2.8,0.9,5.6,3.7,6.3l9,2.4l-1.7,6.5l-20.8-5.6c-2.8-0.8-5.6,0.9-6.3,3.7c-0.7,2.8,0.9,5.6,3.7,6.3
			l20.8,5.6l-2.4,8.9l-9-2.4c-2.8-0.8-5.6,0.9-6.3,3.7c-0.7,2.8,0.9,5.6,3.7,6.3l9,2.4l-2.4,8.9l-20.8-5.6c-2.8-0.8-5.6,0.9-6.3,3.7
			c-0.7,2.8,0.9,5.6,3.7,6.3l20.8,5.6l-2.4,8.9l-9-2.4c-2.8-0.7-5.6,0.9-6.4,3.7c-0.7,2.8,0.9,5.6,3.7,6.4l9,2.4l-2.4,8.9l-20.8-5.6
			c-2.8-0.8-5.6,0.9-6.4,3.7c-0.7,2.8,0.9,5.6,3.7,6.4l20.8,5.6l-2.4,8.9l-9-2.4c-2.8-0.7-5.6,0.9-6.4,3.7c-0.7,2.8,0.9,5.6,3.7,6.4
			l9,2.4l-2.4,8.9l-20.8-5.6c-2.8-0.8-5.6,0.9-6.3,3.7c-0.7,2.8,0.9,5.6,3.7,6.3l20.8,5.6l-2.4,8.9l-9-2.4c-2.8-0.8-5.6,0.9-6.3,3.7
			c-0.7,2.8,0.9,5.6,3.7,6.3l9,2.4l-2.4,8.9l-20.8-5.6c-2.8-0.7-5.6,0.9-6.3,3.7c-0.7,2.8,0.9,5.6,3.7,6.3l20.8,5.6l-2.4,8.9l-9-2.4
			c-2.8-0.8-5.6,0.9-6.4,3.7c-0.7,2.8,0.9,5.6,3.7,6.4l9,2.4l-2.4,8.9l-20.8-5.6c-2.8-0.8-5.6,0.9-6.3,3.7c-0.7,2.8,0.9,5.6,3.7,6.3
			l20.8,5.6l-2.4,8.9l-9-2.4c-2.8-0.8-5.6,0.9-6.4,3.7c-0.7,2.8,0.9,5.6,3.7,6.4l9,2.4l-1.7,6.5l-41.5-11.1L2776.7,676.5z"/>
		<path class="st0" d="M2233.3,160.6c0.8,0.5,1.8,0.8,2.8,0.8c0.4,0,0.8,0,1.2-0.1l90.4-20.8c2.8-0.6,4.5-3.4,3.9-6.2l-15-65.1
			c-0.3-1.3-1.1-2.5-2.3-3.2c-1.2-0.7-2.6-1-3.9-0.7l-90.4,20.8c-2.8,0.6-4.5,3.4-3.9,6.2l15,65.1
			C2231.3,158.7,2232.1,159.8,2233.3,160.6z M2227.3,95l80.3-18.5l12.7,55l-80.3,18.5L2227.3,95z"/>
		<path class="st0" d="M2223.4,204.1c0.3,1.3,1.1,2.5,2.3,3.2c0.8,0.5,1.8,0.8,2.8,0.8c0.4,0,0.8,0,1.2-0.1l125.2-28.8
			c2.8-0.6,4.5-3.4,3.9-6.2l-6.4-28l53.6,4.7c0.2,0,0.3,0,0.5,0c1.2,0,2.4-0.4,3.3-1.2c1.1-0.9,1.7-2.2,1.8-3.5l11.3-128
			c0.3-2.9-1.9-5.4-4.7-5.6L2290.2,0c-1.4-0.1-2.7,0.3-3.8,1.2c-1.1,0.9-1.7,2.1-1.8,3.5l-4.3,49.1l-81.7,18.8
			c-2.8,0.6-4.5,3.4-3.9,6.2L2223.4,204.1z M2294.4,10.8l117.7,10.4l-10.4,117.7l-51.8-4.6L2342,100l50,4.4c0.2,0,0.3,0,0.5,0
			c2.7,0,4.9-2,5.2-4.7l5.9-66.5c0.3-2.9-1.9-5.4-4.7-5.6l-92.4-8.2c-2.9-0.2-5.4,1.9-5.6,4.7l-2.3,25.5l-7.7,1.8L2294.4,10.8z
			 M2339.5,89.4l-9.6-41.7c-0.3-1.3-1.1-2.5-2.3-3.2c-1.2-0.7-2.6-1-3.9-0.7l-14.6,3.4l1.5-17l82.1,7.3l-5,56.2L2339.5,89.4z
			 M2321,55.1l26.5,115.1l-115.1,26.5l-26.5-115.1L2321,55.1z"/>
		<path class="st0" d="M3110.6,787.5h-144.2c-2.9,0-5.2,2.3-5.2,5.2v14.2h-15.7c-2.9,0-5.2,2.3-5.2,5.2v13.2h-13.1
			c-2.9,0-5.2,2.3-5.2,5.2v200.1c0,2.9,2.3,5.2,5.2,5.2h144.2c2.9,0,5.2-2.3,5.2-5.2v-13.2h13.1c2.9,0,5.2-2.3,5.2-5.2V998h15.7
			c2.9,0,5.2-2.3,5.2-5.2V792.7C3115.8,789.8,3113.5,787.5,3110.6,787.5z M3066.3,1025.3h-133.8V835.6h133.8V1025.3z M3084.5,1007
			h-7.9V830.4c0-2.9-2.3-5.2-5.2-5.2h-120.7v-8h133.8V1007z M3105.4,987.6h-10.5V812c0-2.9-2.3-5.2-5.2-5.2h-118.1v-9h133.8V987.6z"
			/>
		<path class="st0" d="M2949.4,895.4h47.2c2.9,0,5.2-2.3,5.2-5.2c0-2.9-2.3-5.2-5.2-5.2h-47.2c-2.9,0-5.2,2.3-5.2,5.2
			C2944.2,893.1,2946.5,895.4,2949.4,895.4z"/>
		<path class="st0" d="M3012.5,895.4h13.2c2.9,0,5.2-2.3,5.2-5.2c0-2.9-2.3-5.2-5.2-5.2h-13.2c-2.9,0-5.2,2.3-5.2,5.2
			C3007.3,893.1,3009.6,895.4,3012.5,895.4z"/>
		<path class="st0" d="M2949.4,915h28.7c2.9,0,5.2-2.3,5.2-5.2c0-2.9-2.3-5.2-5.2-5.2h-28.7c-2.9,0-5.2,2.3-5.2,5.2
			C2944.2,912.7,2946.5,915,2949.4,915z"/>
		<path class="st0" d="M2949.4,944.7h57.7c2.9,0,5.2-2.3,5.2-5.2c0-2.9-2.3-5.2-5.2-5.2h-57.7c-2.9,0-5.2,2.3-5.2,5.2
			C2944.2,942.4,2946.5,944.7,2949.4,944.7z"/>
		<path class="st0" d="M2949.4,964.7h24.4c2.9,0,5.2-2.3,5.2-5.2c0-2.9-2.3-5.2-5.2-5.2h-24.4c-2.9,0-5.2,2.3-5.2,5.2
			C2944.2,962.4,2946.5,964.7,2949.4,964.7z"/>
		<path class="st0" d="M2949.4,997.2h50c2.9,0,5.2-2.3,5.2-5.2c0-2.9-2.3-5.2-5.2-5.2h-50c-2.9,0-5.2,2.3-5.2,5.2
			C2944.2,994.9,2946.5,997.2,2949.4,997.2z"/>
		<path class="st0" d="M3017.6,986.9c-2.9,0-5.2,2.3-5.2,5.2c0,2.9,2.3,5.2,5.2,5.2h17.8c2.9,0,5.2-2.3,5.2-5.2
			c0-2.9-2.3-5.2-5.2-5.2H3017.6z"/>
		<path class="st0" d="M2984.7,959.6c0,2.9,2.3,5.2,5.2,5.2h42.7c2.9,0,5.2-2.3,5.2-5.2c0-2.9-2.3-5.2-5.2-5.2h-42.7
			C2987,954.4,2984.7,956.7,2984.7,959.6z"/>
		<path class="st0" d="M2807.9,956.7h80.7c2.9,0,5.2-2.3,5.2-5.2v-46.7c0,0,0-0.1,0-0.1c0-0.2,0-0.4-0.1-0.6c0-0.1,0-0.3-0.1-0.4
			c0-0.2-0.1-0.3-0.2-0.5c-0.1-0.2-0.1-0.3-0.2-0.5c-0.1-0.1-0.1-0.3-0.2-0.4c-0.1-0.2-0.2-0.3-0.3-0.5c0,0,0-0.1-0.1-0.1
			c-0.1-0.1-0.2-0.2-0.2-0.2c-0.1-0.1-0.2-0.3-0.4-0.4c-0.1-0.1-0.3-0.2-0.4-0.3c-0.1-0.1-0.3-0.2-0.4-0.3c-0.1-0.1-0.3-0.2-0.5-0.2
			c-0.1-0.1-0.3-0.1-0.4-0.2c-0.2-0.1-0.3-0.1-0.5-0.2c-0.2,0-0.3-0.1-0.5-0.1c-0.2,0-0.4,0-0.6-0.1c-0.1,0-0.2,0-0.3,0h-80.7
			c-0.1,0-0.2,0-0.3,0c-0.2,0-0.4,0-0.6,0.1c-0.2,0-0.3,0.1-0.5,0.1c-0.2,0-0.3,0.1-0.5,0.2c-0.2,0.1-0.3,0.1-0.4,0.2
			c-0.2,0.1-0.3,0.2-0.5,0.3c-0.1,0.1-0.3,0.2-0.4,0.3c-0.1,0.1-0.3,0.2-0.4,0.3c-0.1,0.1-0.2,0.3-0.4,0.4c-0.1,0.1-0.2,0.2-0.2,0.3
			c0,0,0,0.1-0.1,0.1c-0.1,0.1-0.2,0.3-0.3,0.5c-0.1,0.1-0.2,0.3-0.2,0.4c-0.1,0.1-0.1,0.3-0.2,0.5c-0.1,0.2-0.1,0.3-0.2,0.5
			c0,0.1,0,0.3-0.1,0.4c0,0.2-0.1,0.4-0.1,0.6c0,0,0,0.1,0,0.1v46.7C2802.7,954.4,2805.1,956.7,2807.9,956.7z M2873.1,910
			l-24.9,18.8l-24.9-18.8H2873.1z M2813.1,915.2l32,24.2c0.9,0.7,2,1,3.1,1c1.1,0,2.2-0.3,3.1-1l32-24.2v31.1h-70.3V915.2z"/>
		<path class="st0" d="M2513,551.5c2.4,0.7,4.9,1.1,7.4,1.1c11.4,0,21.7-7.7,25-18.6c2-6.7,1.3-13.7-2.1-19.8
			c-3.3-6.1-8.8-10.6-15.5-12.6c-2.4-0.7-4.9-1.1-7.4-1.1c-11.4,0-21.7,7.7-25,18.7c-2,6.7-1.3,13.7,2.1,19.8
			C2500.8,545,2506.3,549.5,2513,551.5z M2505.4,522c2-6.6,8.2-11.2,15-11.2c1.5,0,3,0.2,4.5,0.7c4,1.2,7.3,3.9,9.3,7.6
			c2,3.7,2.4,7.9,1.2,12c-2,6.6-8.1,11.2-15,11.2c-1.5,0-3-0.2-4.5-0.7c-4-1.2-7.3-3.9-9.3-7.6
			C2504.6,530.3,2504.2,526.1,2505.4,522z"/>
		<path class="st0" d="M2457.2,490.4l-7.9,26.6c-0.8,2.7,0.7,5.6,3.5,6.4l14.6,4.3c0,1.2,0.2,2.4,0.3,3.6l-13.2,6.5
			c-1.2,0.6-2.2,1.7-2.6,3c-0.4,1.3-0.4,2.7,0.2,4l12.2,24.9c0.9,1.8,2.7,2.9,4.7,2.9c0.8,0,1.5-0.2,2.3-0.5l13.4-6.6
			c0.9,0.9,1.9,1.7,2.9,2.5l-4.4,15c-0.8,2.7,0.7,5.6,3.5,6.4l13.3,3.9l0,0l12.9,3.8c0.5,0.1,1,0.2,1.5,0.2c0.9,0,1.7-0.2,2.5-0.6
			c1.2-0.7,2.1-1.8,2.5-3.1l4.4-15c1.3-0.1,2.5-0.3,3.8-0.5l7.7,12.8c0.7,1.2,1.9,2,3.2,2.4c0.4,0.1,0.8,0.2,1.3,0.2
			c0.9,0,1.8-0.2,2.7-0.7l23.8-14.2c2.5-1.5,3.3-4.7,1.8-7.1l-7.5-12.6c0.8-0.9,1.5-1.8,2.2-2.9l14.6,4.3c0.5,0.1,1,0.2,1.5,0.2
			c2.2,0,4.3-1.5,5-3.7l7.9-26.5c0.4-1.3,0.2-2.7-0.4-3.9c-0.7-1.2-1.8-2.1-3.1-2.5l-16.7-5c-0.1-0.5-0.2-1-0.3-1.5l12.9-7.5
			c1.2-0.7,2.1-1.8,2.4-3.2c0.4-1.3,0.2-2.7-0.5-3.9l-13.9-24c-1.4-2.5-4.6-3.3-7.1-1.9l-13.1,7.6c0,0,0,0,0,0l4.1-13.9
			c0.8-2.7-0.7-5.6-3.5-6.4l-13.3-3.9l-12.9-3.8c-2.8-0.8-5.6,0.7-6.4,3.5l-4.1,13.9c0,0,0,0,0,0l-6.8-13.5c-0.6-1.2-1.7-2.2-3-2.6
			c-1.3-0.4-2.7-0.3-4,0.3l-24.7,12.5c-1.2,0.6-2.2,1.7-2.6,3c-0.4,1.3-0.3,2.7,0.3,4l6.7,13.3c-0.3,0.4-0.7,0.7-1,1.1l-16.7-5
			C2460.9,486.1,2458,487.7,2457.2,490.4z M2465.6,498.3l14.9,4.4c0,0,0,0,0,0l0.1,0c0.4,0.1,0.9,0.2,1.3,0.2c0,0,0.1,0,0.1,0
			c0.1,0,0.1,0,0.2,0c0.2,0,0.5,0,0.7-0.1c0.1,0,0.3,0,0.4-0.1c0.2-0.1,0.5-0.2,0.7-0.3c0.1,0,0.2-0.1,0.3-0.1
			c0.3-0.2,0.6-0.4,0.9-0.6c0,0,0.1-0.1,0.1-0.1c0.3-0.2,0.5-0.5,0.7-0.7c0,0,0.1-0.1,0.1-0.1c1.5-2,2.8-3.2,4.7-5
			c1.5-1.4,2-3.5,1.4-5.3c0-0.7-0.2-1.4-0.5-2.1l-5.6-11l15.5-7.8l5.3,10.6c0.1,0.2,0.3,0.4,0.4,0.6c0.6,2.3,2.7,3.8,5,3.8
			c0.3,0,0.6,0,0.9-0.1c2.1-0.4,3.7-0.5,6.1-0.6c2.6-0.1,4.6-2,5-4.4c0-0.1,0.1-0.2,0.2-0.4l3.4-11.3l8.3,2.5c0,0,0,0,0,0l7.9,2.3
			l-3.4,11.4c0,0.2-0.1,0.3-0.1,0.5c-1,2.2-0.3,4.9,1.8,6.4c2,1.4,3.3,2.4,4.8,3.8c1,1,2.3,1.4,3.6,1.4c1.2,0,2.4-0.5,3.4-1.3
			c0.2-0.1,0.5-0.2,0.7-0.3l10.3-5.9l8.7,15l-10.7,6.2c-0.7,0.4-1.2,0.9-1.6,1.5c-1.5,1.2-2.2,3.2-1.8,5.2c0.6,2.5,1,4.3,1.2,6.8
			c0,0,0,0.1,0,0.1c0,0.2,0,0.4,0.1,0.5c0,0.2,0.1,0.3,0.1,0.5c0,0.1,0.1,0.3,0.2,0.4c0.1,0.2,0.1,0.3,0.2,0.5
			c0.1,0.1,0.1,0.3,0.2,0.4c0.1,0.2,0.2,0.3,0.3,0.4c0.1,0.1,0.2,0.2,0.3,0.3c0.1,0.1,0.2,0.2,0.4,0.4c0.1,0.1,0.2,0.2,0.4,0.3
			c0.1,0.1,0.3,0.2,0.4,0.3c0.1,0.1,0.3,0.1,0.4,0.2c0.2,0.1,0.4,0.2,0.5,0.2c0.1,0,0.1,0.1,0.2,0.1l15.1,4.5l-4.9,16.6l-12.6-3.7
			c-0.6-0.2-1.1-0.2-1.7-0.2c-2.1-0.3-4.2,0.7-5.2,2.6c-1.6,2.8-3,4.4-5.5,7.1c-1.7,1.9-1.8,4.7-0.3,6.7c0.1,0.3,0.2,0.5,0.4,0.8
			l6.1,10.2l-14.9,8.9l-6.4-10.7c-0.2-0.3-0.4-0.6-0.7-0.9c-1.1-1.9-3.4-3-5.7-2.4c-3.4,0.9-5.3,1.1-8.6,1.1c-1.2,0-2.3,0.4-3.1,1.1
			c-1,0.6-1.8,1.6-2.2,2.9l-3.9,13.2l-8.3-2.5l0,0l-7.9-2.3l3.9-13.2c0.4-1.2,0.2-2.4-0.2-3.5c-0.3-1.1-1-2.1-2-2.8
			c-2.8-1.8-4.2-3.1-6.6-5.7c-1.6-1.7-4.1-2.1-6.1-1.1c-0.3,0.1-0.7,0.2-1,0.4l-11.2,5.5l-7.6-15.6l10.7-5.2c2.3-1.1,3.4-3.6,2.7-6
			l1.4-0.2c-0.6-3.6-1-5.7-0.7-8.9c0.2-2.2-1.1-4.1-2.9-5c-0.5-0.3-1-0.6-1.5-0.8l-12.6-3.7L2465.6,498.3z"/>
		<path class="st0" d="M1720.7,214.6c4.1,3.3,5.6,5.5,8.5,10.7c1,1.7,2.7,2.7,4.5,2.7c0.2,0,0.4-0.1,0.6-0.1c0.2,0,0.3,0.1,0.5,0.1
			c0.5,0,0.9-0.1,1.4-0.2l99-27.6c1.3-0.4,2.5-1.3,3.1-2.5c0.7-1.2,0.8-2.6,0.5-3.9c-3.7-13.2-8.9-25.3-15.4-36.3l34.5-34.2
			c0,0,0,0,0,0c0,0,0,0,0,0l37.3-37.1c0.3,0.2,0.5,0.5,0.8,0.6c1.5,0.9,4.1,1.8,7.1,1.8c2.8,0,6-0.9,8.7-3.6c0,0,0,0,0,0
			c5.5-5.5,3.6-12.7,1.8-15.7c-0.2-0.4-0.5-0.7-0.8-1.1l-0.2-0.2l37-36.7c0.4-0.4,0.7-0.8,0.9-1.2c2.8-5.1,5.7-15.5-0.8-22.1
			c0,0,0,0-0.1-0.1c0,0,0,0-0.1-0.1c-6.6-6.6-16.9-3.7-22-1c-0.4,0.2-0.8,0.5-1.2,0.9l-37,36.7l-0.2-0.2c-0.3-0.3-0.7-0.6-1.1-0.8
			c-3-1.8-10.3-3.7-15.8,1.8c-5.5,5.5-3.6,12.7-1.9,15.8c0.2,0.4,0.5,0.7,0.8,1.1l0.8,0.8l-69.1,68.6c-12.5-12.1-22.9-16.8-23.4-17
			c-2.4-1.1-5.2-0.2-6.6,2.1l-53.7,91.3C1718.1,210.2,1718.6,213,1720.7,214.6z M1933.1,15.9c2.5-1.1,7.3-2.5,9.2-0.6
			c0,0,0,0,0.1,0.1c0,0,0,0.1,0.1,0.1c1.9,1.9,0.5,6.7-0.6,9.2l-36.4,36.1l-3.7-3.8c0,0,0,0,0,0l-4.9-5L1933.1,15.9z M1879.8,52.7
			c0.9-0.9,2.1-0.6,2.8-0.4l10.6,10.7c0,0,0,0,0,0l11.8,11.9c0.2,0.6,0.5,1.9-0.4,2.8c0,0,0,0,0,0c-0.9,0.9-2.1,0.6-2.8,0.4
			L1890,66.2c0,0,0,0,0,0l-10.6-10.7C1879.1,54.9,1878.9,53.6,1879.8,52.7z M1879.5,70.3l4.3,4.4c0,0,0,0,0,0l4.1,4.2l-33.7,33.5
			l-8.6-8.4L1879.5,70.3z M1805.9,143.4l32.4-32.1l8.6,8.4l-32.6,32.4c-3.2,3.3-8.1,7.3-10.2,7.7c-3.1,0.6-6,3-10.9,7.2
			c-2.6,2.2-7.6,6.6-10.1,7.5c1-2.5,5.3-7.5,7.6-10.1c4.3-4.9,6.7-7.8,7.3-10.8C1798.4,151.6,1802.4,146.6,1805.9,143.4z
			 M1779.5,126.2c3.7,2.2,9.6,6.3,16.2,12.7c-2.9,3.1-6.9,8.1-7.9,12.4c-0.5,1.2-3.2,4.2-5,6.2c-6.2,7.1-14.8,16.9-7.8,23.9
			c0.2,0.2,0.4,0.3,0.5,0.4c0.1,0.2,0.3,0.4,0.4,0.5c1.9,1.9,3.9,2.7,6.1,2.7c5.9,0,12.6-5.8,17.9-10.3c2-1.8,5.1-4.4,6.3-4.9
			c3.1-0.7,6.5-2.8,9.3-5.1c4.7,8.2,8.7,17.2,11.7,26.8l-91,25.4c-1.7-2.7-3.3-5.1-5.8-7.5L1779.5,126.2z"/>
		<path class="st0" d="M1589.5,237h64.7c2.7,0,4.9-2,5.2-4.7c0.7-7,4.1-12.2,10.9-16.8c2.3-1.6,2.9-4.6,1.5-7l-34.9-57.3
			c-1.5-2.4-4.5-3.2-7-1.8c-1.9,1-45.7,26.3-45.7,82.4C1584.3,234.7,1586.6,237,1589.5,237z M1630.8,161.3l29.7,48.7
			c-5.6,4.7-9.1,10.2-10.7,16.7h-55C1596.9,189.2,1620.9,168.3,1630.8,161.3z"/>
		<path class="st0" d="M1635.1,333.1c1.7,0,3.4-0.9,4.4-2.5l34.4-55.8c1.4-2.3,0.8-5.4-1.5-7c-6.1-4.3-10.1-10.9-11-18.3
			c-0.3-2.6-2.5-4.6-5.2-4.6h-65.3c-2.7,0-4.9,2.1-5.2,4.8c0,0.6-4.1,56.1,46.8,82.8C1633.5,332.9,1634.3,333.1,1635.1,333.1z
			 M1596.1,255.3h56c1.7,6.9,5.4,13.1,10.7,17.9l-29.4,47.7C1600.2,301.2,1596.4,267.7,1596.1,255.3z"/>
		<path class="st0" d="M1746.8,340.3c0.5-1.4,0.4-3-0.4-4.3l-32.9-58.6c-1.3-2.3-4.1-3.3-6.5-2.2c-3.2,1.3-6.6,2-10.1,2
			c-2.2,0-5.2,0-8.1-1.3c-2.4-1-5.2-0.2-6.5,2.1l-33.1,54.9c-1.3,2.2-0.9,5,1.1,6.6c0.6,0.5,16.2,13.4,46.1,13.4c0,0,0,0,0,0
			c14.9,0,30.9-3.2,47.5-9.6C1745.1,342.9,1746.2,341.8,1746.8,340.3z M1696.3,342.7C1696.3,342.7,1696.3,342.7,1696.3,342.7
			c-18.1,0-30.1-5.4-35.7-8.6l28.5-47.2c3.2,0.7,6,0.7,7.9,0.7c3.3,0,6.6-0.4,9.7-1.3l27.8,49.5
			C1721,340.4,1708.2,342.7,1696.3,342.7z"/>
		<path class="st0" d="M1801.3,276.7c-0.7-1.3-1.9-2.2-3.3-2.6l-66.5-15.9c-2.1-0.5-4.4,0.4-5.6,2.2c-1.6,2.5-3.6,4.7-5.9,6.5
			c-2.1,1.6-2.6,4.6-1.2,6.8l35.2,56.8c1,1.6,2.7,2.5,4.4,2.5c0.8,0,1.5-0.2,2.2-0.5c1.1-0.5,27.9-13.7,41-51.7
			C1802.1,279.5,1802,278,1801.3,276.7z M1760,320.8l-30.2-48.7c0.9-0.9,1.8-1.9,2.6-2.9l57.4,13.7
			C1780.8,304.7,1766.8,316.2,1760,320.8z"/>
		<path class="st0" d="M1644.7,145.2l33.4,58c1.3,2.3,4.1,3.2,6.5,2.2c2.8-1.2,4.7-1.5,8.8-1.5c5,0,7.9,0.7,11.4,2.6
			c0.8,0.5,1.7,0.7,2.5,0.7c1.8,0,3.6-0.9,4.5-2.6l33.8-59.4c0.7-1.3,0.9-2.8,0.4-4.1c-0.4-1.4-1.4-2.5-2.7-3.1
			c-16.3-7.7-33-11.6-49.5-11.6c-28.4,0-46.6,11.4-47.4,11.9C1644,139.7,1643.3,142.8,1644.7,145.2z M1693.7,136.7
			c13.3,0,26.7,2.8,40,8.3l-28.6,50.3c-3.5-1.3-7.1-1.8-11.8-1.8c-3.1,0-5.7,0.2-8.4,0.8l-28.6-49.7
			C1662.8,141.6,1676.1,136.7,1693.7,136.7z"/>
		<path class="st0" d="M2254.2,621.7V588c0-2.9-2.3-5.2-5.2-5.2s-5.2,2.3-5.2,5.2v33.7c0,2.9,2.3,5.2,5.2,5.2
			S2254.2,624.6,2254.2,621.7z"/>
		<path class="st0" d="M3043.1,1210.5l-30.9-31.2c-1-1-2.3-1.5-3.7-1.5h-71.2c-0.4,0-0.8,0.1-1.2,0.2c-6.8-11.8-17.2-17.4-22.7-19.6
			c-1.9-12.1-12.6-17-18.5-17.9c-0.3,0-0.5-0.1-0.8-0.1h-61.7v-156c0-2.9-2.3-5.2-5.2-5.2h-184.7c-2.9,0-5.2,2.3-5.2,5.2v13.7h-14.2
			c-2.9,0-5.2,2.3-5.2,5.2v137.1h-43.7c-7.2,0-11.3,3-13.6,5.6c-3.1,3.5-4.2,7.8-4.5,11.3c-34,3.7-46,43.3-46.5,45.1
			c0,0.1,0,0.2-0.1,0.3c0,0.2-0.1,0.3-0.1,0.5c0,0.2,0,0.4,0,0.5c0,0.1,0,0.2,0,0.3l4.3,133.7c0.1,2.8,2.4,5,5.2,5h13.9v7.7
			c0,2.9,2.3,5.2,5.2,5.2h47.1c2.9,0,5.2-2.3,5.2-5.2v-7.7H2865v7.7c0,2.9,2.3,5.2,5.2,5.2h47.1c2.9,0,5.2-2.3,5.2-5.2v-7.7h14l25,9
			c0.1,0.1,0.3,0.1,0.4,0.1c0.1,0,0.2,0.1,0.4,0.1c0.3,0.1,0.6,0.1,1,0.1c0,0,0,0,0,0h76.6c2.9,0,5.2-2.3,5.2-5.2v-129.4
			c0-0.5-0.1-0.9-0.2-1.4c0.1-0.5,0.3-1,0.3-1.5C3045.1,1213,3044.3,1211.5,3043.1,1210.5z M2832.6,1150.8h61.2
			c1.5,0.3,6.3,1.6,8.5,6.2h-69.8V1150.8z M2647.9,989.6h174.3V1157h-9v-153.6c0-2.9-2.3-5.2-5.2-5.2h-160.2V989.6z M2628.5,1008.5
			h174.3V1157h-174.3V1008.5z M2568.7,1152.9c0.4-0.5,1.8-2.1,5.8-2.1h43.7v6.2h-51.3C2567.2,1155.5,2567.7,1154,2568.7,1152.9z
			 M2561.5,1167.3h346.4c3.4,1.1,21.7,7.8,24,31.3h-5.9c0-1.1-0.4-2.2-1.2-3.1l-16.5-20.1c-1-1.2-2.5-1.9-4-1.9h-356.5
			c-1.8,0-3.4,0.9-4.4,2.4l-14.3,22.7h-6.8C2527.2,1187.8,2539.3,1167.3,2561.5,1167.3z M2703.1,1261.5h49.6c2.9,0,5.2-2.3,5.2-5.2
			v-3.4H2874v37.5c0,12.8-17.1,13.2-17.8,13.3h-261.6c-6.6,0-11.5-1.5-14-4.5c-3-3.4-2.4-8-2.4-8c0-0.3,0.1-0.5,0.1-0.8v-37.5h119.7
			v3.4C2697.9,1259.2,2700.2,1261.5,2703.1,1261.5z M2752.7,1242.5c-2.9,0-5.2,2.3-5.2,5.2v3.4h-39.2v-3.4c0-2.9-2.3-5.2-5.2-5.2
			h-124.9V1209H2874v33.5H2752.7z M2541.4,1198.6l9.3-14.8h351.2l12.1,14.8H2541.4z M2520.1,1209h47.7v33.4c-32-0.3-43.3-3.6-46.8-5
			L2520.1,1209z M2580,1345.3h-36.7v-2.5h36.7V1345.3z M2912.1,1345.3h-36.7v-2.5h36.7V1345.3z M2932.2,1332.4h-408.1l-2.7-83.9
			c9.5,2.6,25.3,4.1,46.4,4.4v37.2c-0.2,2.1-0.6,9.5,4.8,15.8c4.7,5.4,12,8.2,22,8.2h261.7c9.7-0.1,28.1-5.2,28.1-23.6V1253
			c2.1,0.1,4.6,0.1,7.4,0.1c12.1,0,29.3-0.7,40.5-4.3V1332.4z M2932.2,1237.9c-6.8,3.7-28.3,5.3-47.8,4.8V1209h47.8V1237.9z
			 M2958.1,1217.5v122l-15.5-5.6v-130.1c0-2.6-0.2-5.1-0.4-7.4l16.4,19C2958.2,1216,2958.1,1216.7,2958.1,1217.5z M2948.7,1188.2
			h57.7l21,21.2h-60.3L2948.7,1188.2z M3034.6,1341.7h-66.2v-121.9h66.2V1341.7z"/>
		<path class="st0" d="M2892.8,1228.4h15.5c2.9,0,5.2-2.3,5.2-5.2c0-2.9-2.3-5.2-5.2-5.2h-15.5c-2.9,0-5.2,2.3-5.2,5.2
			C2887.6,1226.1,2890,1228.4,2892.8,1228.4z"/>
		<path class="st0" d="M2651.8,694l-60.9,37.6l-154.8-46.1c-2.7-0.8-5.6,0.7-6.5,3.5c-0.8,2.7,0.7,5.6,3.5,6.5l157,46.8
			c0.5,0.1,1,0.2,1.5,0.2c1,0,1.9-0.3,2.7-0.8l62.9-38.8c2.4-1.5,3.2-4.7,1.7-7.1C2657.5,693.2,2654.3,692.5,2651.8,694z"/>
		<path class="st0" d="M2659.4,674.9c0-0.2-0.1-0.3-0.1-0.5c-0.1-0.1-0.1-0.3-0.2-0.4c-0.1-0.2-0.1-0.3-0.2-0.5c0,0,0-0.1-0.1-0.1
			c-0.1-0.1-0.1-0.2-0.2-0.2c-0.1-0.2-0.2-0.3-0.3-0.5c-0.1-0.1-0.2-0.2-0.3-0.3c-0.1-0.1-0.3-0.2-0.4-0.4c-0.1-0.1-0.3-0.2-0.4-0.3
			c-0.1-0.1-0.3-0.2-0.4-0.2c-0.2-0.1-0.3-0.2-0.5-0.2c-0.1,0-0.2-0.1-0.3-0.1l-155.7-47.8c-0.1,0-0.1,0-0.2,0
			c-0.2,0-0.3-0.1-0.5-0.1c-0.2,0-0.3-0.1-0.5-0.1c-0.1,0-0.3,0-0.5,0c-0.2,0-0.4,0-0.6,0c-0.1,0-0.3,0.1-0.4,0.1
			c-0.2,0-0.4,0.1-0.6,0.1c-0.1,0-0.3,0.1-0.4,0.2c-0.2,0.1-0.4,0.2-0.5,0.3c0,0-0.1,0-0.1,0.1l-64.2,39.8c-0.1,0.1-0.2,0.1-0.2,0.2
			c-0.2,0.1-0.3,0.2-0.4,0.3c-0.1,0.1-0.2,0.2-0.3,0.3c-0.1,0.1-0.2,0.3-0.3,0.4c-0.1,0.1-0.2,0.3-0.3,0.4c-0.1,0.1-0.2,0.3-0.2,0.4
			c-0.1,0.2-0.1,0.3-0.2,0.5c0,0.1-0.1,0.2-0.1,0.3c0,0,0,0.1,0,0.1c0,0.2-0.1,0.4-0.1,0.5c0,0.2-0.1,0.3-0.1,0.5c0,0.2,0,0.3,0,0.5
			c0,0.2,0,0.3,0,0.5c0,0.2,0.1,0.3,0.1,0.5c0,0.2,0.1,0.3,0.1,0.5c0,0.1,0.1,0.3,0.2,0.4c0.1,0.2,0.2,0.4,0.3,0.5
			c0,0,0,0.1,0.1,0.1c0,0.1,0.1,0.1,0.1,0.2c0.2,0.3,0.4,0.5,0.6,0.7c0.1,0.1,0.1,0.2,0.2,0.2c0.3,0.3,0.6,0.5,0.9,0.7c0,0,0,0,0,0
			c0.3,0.2,0.6,0.3,1,0.4l157,46.8c0.5,0.1,1,0.2,1.5,0.2c1,0,1.9-0.3,2.7-0.8l62.9-38.8c0.1,0,0.1-0.1,0.2-0.2
			c0.1-0.1,0.2-0.1,0.3-0.2c0.4-0.3,0.7-0.6,1-1c0,0,0,0,0,0c0.3-0.4,0.5-0.9,0.7-1.4c0-0.1,0.1-0.1,0.1-0.1c0-0.1,0-0.1,0-0.2
			c0-0.2,0.1-0.3,0.1-0.5c0-0.2,0.1-0.3,0.1-0.5c0-0.2,0-0.3,0-0.5c0-0.2,0-0.3,0-0.5C2659.4,675.2,2659.4,675.1,2659.4,674.9z
			 M2590.7,709.2l-143.7-42.8l52.4-32.5l142.5,43.8L2590.7,709.2z"/>
		<path class="st0" d="M2659.2,717.7c-1.5-2.4-4.7-3.2-7.1-1.7l-60.9,37.6l-154.8-46.1c-2.7-0.8-5.6,0.7-6.5,3.5
			c-0.8,2.7,0.7,5.6,3.5,6.5l157,46.8c0.5,0.1,1,0.2,1.5,0.2c1,0,1.9-0.3,2.7-0.8l62.9-38.8C2659.9,723.3,2660.7,720.1,2659.2,717.7
			z"/>
		<path class="st0" d="M2495.2,644.7l-18.1,11.2c-2.4,1.5-3.2,4.7-1.7,7.1c1,1.6,2.7,2.5,4.4,2.5c0.9,0,1.9-0.3,2.7-0.8l18.1-11.2
			c2.4-1.5,3.2-4.7,1.7-7.1C2500.8,644,2497.6,643.2,2495.2,644.7z"/>
		<path class="st0" d="M2493.7,672.1c1,1.6,2.7,2.5,4.4,2.5c0.9,0,1.9-0.3,2.7-0.8l18.1-11.2c2.4-1.5,3.2-4.7,1.7-7.1
			c-1.5-2.4-4.7-3.2-7.1-1.7l-18.1,11.2C2492.9,666.5,2492.2,669.7,2493.7,672.1z"/>
		<path class="st0" d="M2482.4,364.3c0,9.1,2.7,16.1,8.1,20.7c5.4,4.6,12.1,5.4,16.2,5.4c1.5,0,2.7-0.1,3.4-0.2h136.8
			c-0.1,6.9-1.5,17.6-6.7,23.1c-2.3,2.5-5.3,3.7-9,3.7c-2.9,0-5.2,2.3-5.2,5.2v22.7c0,2.9,2.3,5.2,5.2,5.2h59.1h3.8h59.1
			c2.9,0,5.2-2.3,5.2-5.2v-22.7c0-2.9-2.3-5.2-5.2-5.2c-3.7,0-6.6-1.2-9-3.7c-5.1-5.5-6.5-16.2-6.7-23.1h136.8
			c0.6,0.1,1.8,0.2,3.4,0.2c4.1,0,10.8-0.8,16.2-5.4c5.4-4.6,8.1-11.5,8.1-20.7V125.2c0.1-1.8,0.3-10.9-6.3-18.2
			c-5.4-5.9-13.5-8.9-24.1-8.9h-177.6h-3.8h-177.6c-10.6,0-18.7,3-24.1,8.9c-6.6,7.2-6.4,16.3-6.3,18.2V364.3z M2748.2,427.4v12.4
			h-53.9h-3.8h-53.9v-12.4h53.9h3.8H2748.2z M2650.5,417c5.6-8.5,6.7-20.1,6.8-26.8h33.2h3.8h33.2c0.1,6.7,1.3,18.4,6.8,26.8h-40
			h-3.8H2650.5z M2891.9,364.3c0,5.9-1.5,10.2-4.4,12.7c-4.6,3.9-11.7,2.9-11.7,2.9c-0.3,0-0.6-0.1-0.9-0.1h-180.6h-3.8h-180.6
			c-0.3,0-0.6,0-0.9,0.1c-0.1,0-7.1,1.1-11.7-2.8c-3-2.5-4.5-6.8-4.5-12.7v-16.4h199.1c0.1,0,0.3,0,0.4,0c0.1,0,0.3,0,0.4,0h199.1
			V364.3z M2496.4,114c3.3-3.6,8.8-5.5,16.4-5.5h177.6h3.8h177.6c7.5,0,13,1.8,16.3,5.4c4.1,4.5,3.7,10.6,3.7,10.6
			c0,0.2,0,0.3,0,0.5v212.6h-199.1c-0.1,0-0.3,0-0.4,0c-0.1,0-0.3,0-0.4,0h-199.1V125c0-0.2,0-0.3,0-0.5
			C2492.8,124.4,2492.3,118.4,2496.4,114z"/>
		<path class="st0" d="M2528.4,164.7h61.4c2.9,0,5.2-2.3,5.2-5.2c0-2.9-2.3-5.2-5.2-5.2h-61.4c-2.9,0-5.2,2.3-5.2,5.2
			C2523.2,162.4,2525.5,164.7,2528.4,164.7z"/>
		<path class="st0" d="M2617.9,164.7h43c2.9,0,5.2-2.3,5.2-5.2c0-2.9-2.3-5.2-5.2-5.2h-43c-2.9,0-5.2,2.3-5.2,5.2
			C2612.8,162.4,2615.1,164.7,2617.9,164.7z"/>
		<path class="st0" d="M2528.4,210.9h190c2.9,0,5.2-2.3,5.2-5.2c0-2.9-2.3-5.2-5.2-5.2h-190c-2.9,0-5.2,2.3-5.2,5.2
			C2523.2,208.5,2525.5,210.9,2528.4,210.9z"/>
		<path class="st0" d="M2574.1,269.2h-43.9c-2.9,0-5.2,2.3-5.2,5.2c0,2.9,2.3,5.2,5.2,5.2h43.9c2.9,0,5.2-2.3,5.2-5.2
			C2579.3,271.6,2576.9,269.2,2574.1,269.2z"/>
		<path class="st0" d="M2670,269.2h-75.1c-2.9,0-5.2,2.3-5.2,5.2c0,2.9,2.3,5.2,5.2,5.2h75.1c2.9,0,5.2-2.3,5.2-5.2
			C2675.1,271.6,2672.8,269.2,2670,269.2z"/>
		<path class="st0" d="M2528.4,234.4h27.6c2.9,0,5.2-2.3,5.2-5.2c0-2.9-2.3-5.2-5.2-5.2h-27.6c-2.9,0-5.2,2.3-5.2,5.2
			C2523.2,232.1,2525.5,234.4,2528.4,234.4z"/>
		<path class="st0" d="M2673.9,363.7c0,2.9,2.3,5.2,5.2,5.2h27.6c2.9,0,5.2-2.3,5.2-5.2c0-2.9-2.3-5.2-5.2-5.2h-27.6
			C2676.2,358.5,2673.9,360.8,2673.9,363.7z"/>
		<path class="st0" d="M1577.3,129.4c0-2.9-2.3-5.2-5.2-5.2c-5.1,0-9.8,0.3-14.3,0.9v10.5c4.3-0.7,9.1-1,14.3-1
			C1575,134.5,1577.3,132.2,1577.3,129.4z"/>
		<path class="st0" d="M2898,556.2c0,0.8,0.1,1.6,0.3,2.3c-0.2,0.5-0.3,1-0.3,1.5v128.3c0,0.4,0,0.8,0.1,1.2
			c0.3,1.1,6.9,26.4,59.3,26.4c52.6,0,59.1-29.4,59.4-30.7c0.1-0.3,0.1-0.7,0.1-1v-26.6c5.6-0.2,20.9-1.8,31.3-12
			c6.6-6.5,10-15.1,10-25.5c0-29.1-26-38.6-41.2-39.9v-24.2c0-15.3-29.9-23.3-59.5-23.3C2927.9,532.8,2898,540.8,2898,556.2z
			 M3016.9,590.8c7.5,0.9,30.9,5.6,30.9,29.4c0,7.7-2.2,13.6-6.8,18.1c-7.6,7.4-19.5,8.8-24.1,9V590.8z M2957.5,543.2
			c32.4,0,49.1,9.1,49.1,12.9c0,3.9-16.7,12.9-49.1,12.9c-32.4,0-49.1-9.1-49.1-12.9C2908.4,552.3,2925.1,543.2,2957.5,543.2z
			 M2908.4,569.9c11.3,6.3,30.3,9.6,49.1,9.6c18.8,0,37.8-3.3,49.1-9.6v113.8c-1,3.2-8.4,22-49.1,22c-39.9,0-48-15.5-49.1-18.1
			V569.9z"/>
		<path class="st0" d="M2535.7,1106C2535.8,1106,2535.8,1106,2535.7,1106c0.1,0,0.1,0,0.1,0c2.8,0.4,9.8,1.2,17.6,1.2
			c13.8,0,30.3-2.6,32.1-14.7c2.3-14.9,25.7-169.4,25.7-169.4c0.2-1.5-0.2-3.1-1.3-4.3l-16.6-18.3l3.1-20.2c0.2-1.4-0.1-2.7-1-3.9
			c-0.8-1.1-2-1.8-3.4-2.1l-20.8-3.1c0,0,0,0,0,0l-20.8-3.2c-1.4-0.2-2.8,0.1-3.9,1c-1.1,0.8-1.8,2-2.1,3.4l-3.1,20.2l-21.2,12.5
			c-1.3,0.8-2.3,2.1-2.5,3.7l-24.1,159.2c0,0,0,0,0,0l-1.5,10.2C2489.3,1097.4,2528,1104.7,2535.7,1106z M2554.1,879.3l15.7,2.4
			c0,0,0,0,0,0l15.7,2.4l-1.9,12.3l-15.7-2.4l-15.7-2.4L2554.1,879.3z M2527.8,913l19.6-11.6l19,2.9l19,2.9l15.3,16.9
			c-0.4,2.6-1.1,7.3-2,13.4c-6,0.1-18.6-0.1-36.9-2.8c-18.3-2.8-30.4-6.3-36-8.2L2527.8,913z M2524.1,936.8
			c6.7,2.1,18.7,5.4,36.1,8.1c16.4,2.5,28.4,3,35.6,3c0.4,0,0.8,0,1.2,0c-5.4,35.9-15,99.3-19.5,128.6c-7.7,0.2-24.2,0.2-37-1.7
			c-12.9-2-28.6-6.9-35.9-9.3L2524.1,936.8z M2503.1,1075.8c8.1,2.7,23.1,7.2,35.9,9.1c10.5,1.6,23,1.9,31.8,1.9c1.9,0,3.7,0,5.2,0
			c-0.3,1.8-0.5,3.2-0.6,4.1c-0.9,5.6-20.8,7.1-38,4.7c-17.2-2.8-35.7-10.2-34.9-15.8L2503.1,1075.8z"/>
		<path class="st0" d="M1920.2,235.5c-14,0-25.3,11.4-25.3,25.3c0,14,11.4,25.3,25.3,25.3h57.1c0.4,0,0.8,0,1.1-0.1
			c0.4,0.1,0.7,0.1,1.1,0.1c5.8,0,10.5,4.7,10.5,10.5c0,5.8-4.7,10.5-10.5,10.5h-114.4c-0.3,0-0.5,0-0.8,0.1c-0.2,0-0.5-0.1-0.8-0.1
			c-11.5,0-20.9,9.4-20.9,20.9c0,11.5,9.4,20.9,20.9,20.9h306.8c10,0,18-9.7,20.2-19.8l24.6,8.9c0.3,0.1,0.7,0.2,1,0.2
			c0.1,0,0.2,0,0.3,0c0.1,0,0.3,0,0.4,0c0.1,0,0.1,0,0.2,0c0.4,0,0.8-0.1,1.1-0.2c0.1,0,0.2,0,0.3-0.1c0.4-0.1,0.8-0.3,1.2-0.5
			c0.2-0.1,22.9-14.3,41.6-14.3c3.3,0,6.3,0.5,8.9,1.4c9.2,3.3,19.6,8.9,30.6,14.8c14.1,7.6,28.7,15.5,44.2,20.5
			c16.9,5.5,34.2,6.3,43,6.3c0,0,0,0,0,0c23.6,0,25.3-4.7,26-6.7c3.7-10.2-31.4-35.8-53-44.3c-15.1-5.9-31.4-9.2-47.1-12.3
			c-12.2-2.4-23.8-4.7-33-8c-15.6-5.6-27.4-32.3-30.7-42.1c0-0.1-0.1-0.1-0.1-0.2c-0.1-0.2-0.2-0.4-0.3-0.6
			c-0.1-0.1-0.1-0.2-0.2-0.4c-0.1-0.2-0.3-0.4-0.4-0.6c-0.1-0.1-0.2-0.2-0.2-0.3c-0.2-0.2-0.4-0.4-0.6-0.5c-0.1-0.1-0.2-0.1-0.2-0.2
			c-0.3-0.2-0.6-0.4-1-0.5l-96.3-34.6c-1.6-0.6-3.5-0.3-4.9,0.8c-1.4,1-2.2,2.8-2.1,4.5c0,0.2,0.2,4.5-3.1,8.3
			c-2.2,2.5-4.5,7.7-5.6,12.2c-4.4-3.4-9.8-5.3-15.5-5.3H1920.2z M2277.4,304.8c10,3.6,21.9,5.9,34.5,8.4c15.3,3,31.1,6.2,45.3,11.8
			c19.4,7.6,37.6,22.6,44.3,30.1c-3,0.5-7.5,0.8-13.6,0.8h0c-14,0-28.5-2.1-39.8-5.8c-14.6-4.8-28.7-12.4-42.5-19.8
			c-11.3-6.1-22-11.9-32-15.5c-3.7-1.3-7.8-2-12.4-2c-12.3,0-25.6,5-34.9,9.3l19.1-53.2C2251.5,281.5,2262.2,299.3,2277.4,304.8z
			 M2238.6,257.7l-24.7,68.7l-42.6-15.3l24.7-68.7L2238.6,257.7z M2136.2,267.1c0-1.4,1.9-5.2,2.8-6.1c4.8-4.2,6.9-10.3,5.7-15.7
			c0.2-2,2.2-8,3.8-9.8c2.5-2.8,3.9-5.8,4.7-8.5l33.1,11.9l-24.7,68.7l-35.2-12.7c1.2-1.8,1.8-4.2,2.5-6.6c0.3-1.2,0.8-3,1.2-3.8
			C2134.9,281,2137.6,272,2136.2,267.1z M2132,252.5c0.1,0.2,0.2,0.3,0.4,0.5c-0.1,0.1-0.1,0.1-0.2,0.2c-2.1,1.9-7.9,10.4-6,16.7
			c0.3,1.4-1.2,5.5-2.1,6.4c-3.1,1.9-4.1,5.8-5.1,9.5c-0.3,1.2-0.8,2.9-1.1,3.5c-2.9,3-2.9,7.6-2.1,10.7c0.5,1.6,1.7,2.9,3.2,3.5
			l61.8,22.2c-0.9,5.9-5.6,13-10.3,13h-306.8c-5.8,0-10.5-4.7-10.5-10.5c0-5.8,4.7-10.5,10.5-10.5c0.3,0,0.5,0,0.8-0.1
			c0.2,0,0.5,0.1,0.8,0.1h114.4c11.5,0,20.9-9.4,20.9-20.9c0-11.5-9.4-20.9-20.9-20.9c-0.4,0-0.8,0-1.1,0.1
			c-0.4-0.1-0.7-0.1-1.1-0.1h-57.1c-8.3,0-15-6.7-15-15c0-8.3,6.7-15,15-15h199.3C2124.5,245.9,2129.2,248.4,2132,252.5z"/>
		<path class="st0" d="M2194.9,278.4c0.6,0.2,1.2,0.3,1.8,0.3c2.1,0,4.1-1.3,4.9-3.4l6.6-18.2c1-2.7-0.4-5.7-3.1-6.6
			c-2.7-1-5.7,0.4-6.6,3.1l-6.6,18.2C2190.8,274.5,2192.2,277.5,2194.9,278.4z"/>
		<path class="st0" d="M2369.9,351.7c0.8,0.3,1.7,0.4,2.6,0.4c3.2,0,6-2,7.1-5c0.7-1.9,0.6-3.9-0.3-5.7c-0.9-1.8-2.4-3.2-4.3-3.9
			c-0.8-0.3-1.7-0.4-2.5-0.4c-3.2,0-6,2-7.1,5c-0.7,1.9-0.6,3.9,0.3,5.7C2366.5,349.6,2368,351,2369.9,351.7z M2369.7,343.7
			c0.4-1.1,1.5-1.9,2.7-1.9c0.3,0,0.7,0.1,1,0.2c0.7,0.3,1.3,0.8,1.6,1.5c0.3,0.7,0.4,1.5,0.1,2.2c-0.5,1.4-2.2,2.2-3.7,1.7
			c-0.7-0.3-1.3-0.8-1.6-1.5C2369.5,345.2,2369.5,344.4,2369.7,343.7z"/>
		<path class="st0" d="M2697.2,654.2c2.9,0,5.2-2.3,5.2-5.2v-6.7c27.2-2.6,48.6-25.4,49-53.1h9.9c2.9,0,5.2-2.3,5.2-5.2
			c0-2.9-2.3-5.2-5.2-5.2h-10.7c-4.2-23.7-23.9-42.2-48.2-44.5v-9.9c0-2.9-2.3-5.2-5.2-5.2c-2.9,0-5.2,2.3-5.2,5.2v9.9
			c-24.3,2.3-44,20.8-48.2,44.5h-9c-2.9,0-5.2,2.3-5.2,5.2c0,2.9,2.3,5.2,5.2,5.2h8.1c0.4,27.8,21.8,50.6,49,53.1v6.7
			C2692,651.9,2694.3,654.2,2697.2,654.2z M2702.4,631.8V619c14.4-2.4,25.5-14.8,25.9-29.8h12.7
			C2740.6,611.2,2723.9,629.3,2702.4,631.8z M2702.4,544.7c18.6,2.2,33.7,16.1,37.7,34.1h-13.2c-3.5-11-12.9-19.3-24.5-21.2V544.7z
			 M2697.2,567.5c11.5,0,20.8,9.3,20.8,20.8c0,11.5-9.3,20.8-20.8,20.8s-20.8-9.3-20.8-20.8C2676.4,576.8,2685.7,567.5,2697.2,567.5
			z M2692,544.7v12.9c-11.6,1.9-21,10.2-24.5,21.2h-13.2C2658.3,560.8,2673.4,546.9,2692,544.7z M2653.3,589.1h12.7
			c0.4,15,11.5,27.4,25.9,29.8v12.9C2670.5,629.3,2653.8,611.2,2653.3,589.1z"/>
		<path class="st0" d="M1566.5,256c0.5-2.8-1.3-5.5-4.1-6.1c-0.2,0-1.9-0.4-4.6-0.6v10.4c1.6,0.2,2.5,0.4,2.6,0.4
			C1563.3,260.6,1566,258.8,1566.5,256z"/>
		<path class="st0" d="M2401.4,1108.5c0,2.9,2.3,5.2,5.2,5.2c2.9,0,5.2-2.3,5.2-5.2c0-10.2-3.3-18.1-10-23.5
			c-13.6-11.2-36.1-7-37-6.8c-2.8,0.5-4.6,3.3-4.1,6.1c0.5,2.8,3.3,4.6,6.1,4.1c0.1,0,4-0.7,9.2-0.7c6.1,0,13.9,1,19.2,5.4
			C2399.3,1096.4,2401.4,1101.5,2401.4,1108.5z"/>
		<path class="st0" d="M2698.1,505.2c2.9,0,5.2-2.3,5.2-5.2v-34c0-2.9-2.3-5.2-5.2-5.2c-2.9,0-5.2,2.3-5.2,5.2v34
			C2692.9,502.8,2695.2,505.2,2698.1,505.2z"/>
		<path class="st0" d="M2406.6,1124.8c-2.9,0-5.2,2.3-5.2,5.2v34c0,2.9,2.3,5.2,5.2,5.2c2.9,0,5.2-2.3,5.2-5.2v-34
			C2411.7,1127.2,2409.4,1124.8,2406.6,1124.8z"/>
		<path class="st0" d="M2526.4,805.7c2.9,0,5.2-2.3,5.2-5.2v-34c0-2.9-2.3-5.2-5.2-5.2c-2.9,0-5.2,2.3-5.2,5.2v34
			C2521.3,803.4,2523.6,805.7,2526.4,805.7z"/>
		<path class="st0" d="M2359.9,238.8c2.9,0,5.2-2.3,5.2-5.2v-34c0-2.9-2.3-5.2-5.2-5.2c-2.9,0-5.2,2.3-5.2,5.2v34
			C2354.7,236.4,2357,238.8,2359.9,238.8z"/>
		<path class="st0" d="M1687.5,386.7c-2.9,0-5.2,2.3-5.2,5.2c0,2.9,2.3,5.2,5.2,5.2h34c2.9,0,5.2-2.3,5.2-5.2c0-2.9-2.3-5.2-5.2-5.2
			H1687.5z"/>
		<path class="st0" d="M1750,397.1h34c2.9,0,5.2-2.3,5.2-5.2c0-2.9-2.3-5.2-5.2-5.2h-34c-2.9,0-5.2,2.3-5.2,5.2
			C1744.8,394.8,1747.1,397.1,1750,397.1z"/>
		<path class="st0" d="M1812.1,391.9c0,2.9,2.3,5.2,5.2,5.2h34c2.9,0,5.2-2.3,5.2-5.2c0-2.9-2.3-5.2-5.2-5.2h-34
			C1814.4,386.7,1812.1,389,1812.1,391.9z"/>
		<path class="st0" d="M1880.5,386.7c-2.9,0-5.2,2.3-5.2,5.2c0,2.9,2.3,5.2,5.2,5.2h34c2.9,0,5.2-2.3,5.2-5.2c0-2.9-2.3-5.2-5.2-5.2
			H1880.5z"/>
		<path class="st0" d="M1946,386.7c-2.9,0-5.2,2.3-5.2,5.2c0,2.9,2.3,5.2,5.2,5.2h34c2.9,0,5.2-2.3,5.2-5.2c0-2.9-2.3-5.2-5.2-5.2
			H1946z"/>
		<path class="st0" d="M2013.3,386.7c-2.9,0-5.2,2.3-5.2,5.2c0,2.9,2.3,5.2,5.2,5.2h34c2.9,0,5.2-2.3,5.2-5.2c0-2.9-2.3-5.2-5.2-5.2
			H2013.3z"/>
		<path class="st0" d="M2076.5,386.7c-2.9,0-5.2,2.3-5.2,5.2c0,2.9,2.3,5.2,5.2,5.2h34c2.9,0,5.2-2.3,5.2-5.2c0-2.9-2.3-5.2-5.2-5.2
			H2076.5z"/>
		<path class="st0" d="M2178.4,386.7h-34c-2.9,0-5.2,2.3-5.2,5.2c0,2.9,2.3,5.2,5.2,5.2h34c2.9,0,5.2-2.3,5.2-5.2
			C2183.5,389,2181.2,386.7,2178.4,386.7z"/>
		<path class="st0" d="M2367.7,998c-2.9,0-5.2,2.3-5.2,5.2c0,2.9,2.3,5.2,5.2,5.2h34c2.9,0,5.2-2.3,5.2-5.2c0-2.9-2.3-5.2-5.2-5.2
			H2367.7z"/>
		<path class="st0" d="M2430.5,1008.3h34c2.9,0,5.2-2.3,5.2-5.2c0-2.9-2.3-5.2-5.2-5.2h-34c-2.9,0-5.2,2.3-5.2,5.2
			C2425.3,1006,2427.6,1008.3,2430.5,1008.3z"/>
		<path class="st0" d="M2476,858.5c0-2.9-2.3-5.2-5.2-5.2h-34c-2.9,0-5.2,2.3-5.2,5.2c0,2.9,2.3,5.2,5.2,5.2h34
			C2473.7,863.7,2476,861.4,2476,858.5z"/>
		<path class="st0" d="M2494.1,1219.9h-34c-2.9,0-5.2,2.3-5.2,5.2c0,2.9,2.3,5.2,5.2,5.2h34c2.9,0,5.2-2.3,5.2-5.2
			C2499.3,1222.2,2496.9,1219.9,2494.1,1219.9z"/>
		<path class="st0" d="M2803.9,851.7c0,2.9,2.3,5.2,5.2,5.2h34c2.9,0,5.2-2.3,5.2-5.2c0-2.9-2.3-5.2-5.2-5.2h-34
			C2806.2,846.5,2803.9,848.8,2803.9,851.7z"/>
		<path class="st0" d="M2835.1,582.8c0,2.9,2.3,5.2,5.2,5.2h34c2.9,0,5.2-2.3,5.2-5.2c0-2.9-2.3-5.2-5.2-5.2h-34
			C2837.5,577.6,2835.1,580,2835.1,582.8z"/>
		<path class="st0" d="M2820.3,588c2.9,0,5.2-2.3,5.2-5.2c0-2.9-2.3-5.2-5.2-5.2h-34c-2.9,0-5.2,2.3-5.2,5.2c0,2.9,2.3,5.2,5.2,5.2
			H2820.3z"/>
		<path class="st0" d="M2415.4,289.3c0,2.9,2.3,5.2,5.2,5.2h34c2.9,0,5.2-2.3,5.2-5.2c0-2.9-2.3-5.2-5.2-5.2h-34
			C2417.8,284.1,2415.4,286.5,2415.4,289.3z"/>
		<path class="st0" d="M2869.9,856.8h34c2.9,0,5.2-2.3,5.2-5.2c0-2.9-2.3-5.2-5.2-5.2h-34c-2.9,0-5.2,2.3-5.2,5.2
			C2864.7,854.5,2867,856.8,2869.9,856.8z"/>
		<path class="st0" d="M2854.8,1097.1h34c2.9,0,5.2-2.3,5.2-5.2c0-2.9-2.3-5.2-5.2-5.2h-34c-2.9,0-5.2,2.3-5.2,5.2
			C2849.6,1094.8,2851.9,1097.1,2854.8,1097.1z"/>
		<path class="st0" d="M2908.6,1097.1h34c2.9,0,5.2-2.3,5.2-5.2c0-2.9-2.3-5.2-5.2-5.2h-34c-2.9,0-5.2,2.3-5.2,5.2
			C2903.4,1094.8,2905.7,1097.1,2908.6,1097.1z"/>
		<path class="st0" d="M2362,283.5c6.4,7.8,16.2,11.7,29.4,11.7c2.9,0,5.2-2.3,5.2-5.2c0-2.9-2.3-5.2-5.2-5.2
			c-9.9,0-17-2.6-21.3-7.8c-4.1-5.1-5-11.7-5-16.5c0-3.4,0.5-5.8,0.5-5.8c0.6-2.8-1.2-5.5-4-6.1c-2.8-0.6-5.5,1.2-6.1,4
			C2355.2,253.3,2351.8,270.9,2362,283.5z"/>
		<path class="st0" d="M1659.9,394.6c2.9,0,5.2-2.3,5.2-5.2c0-2.9-2.3-5.2-5.2-5.2c-9.9,0-17-2.6-21.3-7.8c-4.1-5.1-5-11.7-5-16.5
			c0-3.4,0.5-5.8,0.5-5.8c0.6-2.8-1.2-5.5-4-6.1c-2.8-0.6-5.5,1.2-6.1,4c-0.2,0.7-3.6,18.4,6.6,30.9
			C1636.9,390.6,1646.8,394.6,1659.9,394.6z"/>
		<path class="st0" d="M2440.1,1219c-9.9,0.2-17.1-2.2-21.5-7.3c-4.3-5-5.3-11.6-5.4-16.4c-0.1-3.4,0.3-5.8,0.3-5.8
			c0.5-2.8-1.4-5.5-4.2-6c-2.8-0.5-5.5,1.4-6,4.2c-0.1,0.7-3.1,18.4,7.4,30.7c6.5,7.6,16.5,11.3,29.7,11c2.8-0.1,5.1-2.5,5.1-5.3
			C2445.4,1221.2,2443,1219,2440.1,1219z"/>
		<path class="st0" d="M2967,1085.1c-2.9,0-5.2,2.3-5.2,5.2c0,2.9,2.3,5.2,5.2,5.2c13.1,0,23-3.9,29.4-11.7
			c10.2-12.5,6.8-30.2,6.6-30.9c-0.6-2.8-3.3-4.6-6.1-4c-2.8,0.6-4.6,3.3-4.1,6.1c0,0.2,2.6,13.7-4.5,22.3
			C2984,1082.4,2976.8,1085.1,2967,1085.1z"/>
		<path class="st0" d="M2203.9,386.8c-2.9,0-5.2,2.3-5.2,5.2c0,2.9,2.3,5.2,5.2,5.2c13.1,0,23-3.9,29.4-11.7
			c10.2-12.5,6.8-30.2,6.6-30.9c-0.6-2.8-3.3-4.6-6.1-4c-2.8,0.6-4.6,3.3-4.1,6.1c0,0.2,2.6,13.7-4.5,22.3
			C2220.9,384.2,2213.7,386.8,2203.9,386.8z"/>
		<path class="st0" d="M2495.2,853.1c-2.9,0-5.2,2.3-5.2,5.2c0,2.9,2.3,5.2,5.2,5.2c13.1,0,23-3.9,29.4-11.7
			c10.2-12.5,6.8-30.2,6.6-30.9c-0.6-2.8-3.3-4.6-6.1-4c-2.8,0.6-4.6,3.3-4.1,6.1c0,0.2,2.6,13.7-4.5,22.3
			C2512.2,850.5,2505.1,853.1,2495.2,853.1z"/>
		<path class="st0" d="M2415.8,951.9V809.3c0-2.9-2.3-5.2-5.2-5.2h-18.2v-45.4h2.6c2.9,0,5.2-2.3,5.2-5.2v-67.8c0-0.1,0-0.2,0-0.3
			c0-0.2,0-0.4,0-0.6c0-0.2-0.1-0.3-0.1-0.5c0-0.1,0-0.2-0.1-0.4l-10.5-28.3v-89.2c0-0.4,0-0.8-0.1-1.2c-2.5-39.1-39.8-50.5-53-53.3
			v-67.4c0-0.1,0-0.3,0-0.5c-1-10.9-10.9-31.5-40.6-31.5h-25.9c-2.9,0-5.2,2.3-5.2,5.2v0.9h-706.7V429h622.8v82.1h-622.8v10.4h670.9
			l13,39.8h-684v10.4H2249c0,0,0,0,0,0h130.1v81.7h-155.2v-3.9c0-2.9-2.3-5.2-5.2-5.2h-660.9v10.4h394.5c1.4,2.6,2.1,5.4,2.1,8.3
			c0,10-8.1,18.4-17.6,18.4h-24.6c-0.2,0-0.4,0-0.6,0.1c-0.2,0-0.4-0.1-0.6-0.1c-15.4,0-28,12.6-28,28c0,15.4,12.6,28,28,28
			c0.2,0,0.4,0,0.6-0.1c0.2,0,0.4,0.1,0.6,0.1h236.2c15.4,0,28-12.6,28-28c0-15.4-12.6-28-28-28c-0.2,0-0.4,0-0.6,0.1
			c-0.2,0-0.4-0.1-0.6-0.1H2114c-9.7,0-17.6-7.9-17.6-17.6c0-3.3,0.9-6.4,2.6-9.1h97.9c9.1,22.8,17,96.9,20.1,134.6v126.3h-219.2
			c5.2-5.8,8.5-13.5,8.5-21.9c0-17-13.9-30.9-30.9-30.9c0,0,0,0,0,0c0,0,0,0,0,0h-167.7c-9.7,0-17.5-7-17.5-15.6s7.9-15.6,17.5-15.6
			h32.4c0.1,0,0.1,0,0.2,0c0.3,0,0.5,0.1,0.8,0.1c15.4,0,27.9-12.5,27.9-27.9c0-15.4-12.5-27.9-27.9-27.9h-201
			c-15.4,0-27.9,12.5-27.9,27.9c0,15.4,12.5,27.9,27.9,27.9c0.3,0,0.6,0,0.8-0.1c0.3,0,0.5,0.1,0.8,0.1h59.2c0.3,0,0.6,0,0.9-0.1
			c0.1,0,0.2,0,0.3,0c9.7,0,17.5,7,17.5,15.6s-7.9,15.6-17.5,15.6h-144.2V873h144.2c15.4,0,27.9-11.6,27.9-26
			c0-14.3-12.5-26-27.9-26c-0.3,0-0.6,0-0.9,0.1c-0.1,0-0.2,0-0.3,0h-59.2c-0.3,0-0.6,0-0.8,0.1c-0.3,0-0.5-0.1-0.8-0.1
			c-9.7,0-17.5-7.9-17.5-17.5c0-9.7,7.9-17.5,17.5-17.5h201c9.7,0,17.5,7.9,17.5,17.5c0,9.7-7.9,17.5-17.5,17.5c-0.1,0-0.1,0-0.2,0
			c-0.3,0-0.5-0.1-0.8-0.1h-32.4c-15.4,0-27.9,11.6-27.9,26c0,14.3,12.5,26,27.9,26h167.7c0,0,0,0,0,0c0,0,0,0,0,0
			c11.3,0,20.5,9.2,20.5,20.5c0,11.7-9.6,21.9-20.5,21.9h-192.2c-21.3,0-38.7,17.4-38.7,38.7c0,21.3,17.4,38.7,38.7,38.7h95
			c0.7,0,1.3-0.1,1.9-0.4c0.6,0.2,1.2,0.4,1.9,0.4c11.5,0,20.9,9.4,20.9,20.9c0,11.5-9.4,20.9-20.9,20.9h-190.1
			c-0.4,0-0.9,0.1-1.3,0.2c-0.4-0.1-0.8-0.2-1.3-0.2c-17.2,0-31.3,14-31.3,31.3c0,17.2,14,31.3,31.3,31.3h500.9
			c9.3,0,19.5-6.1,26.9-14.5v116.7c0,6.6-5.4,12-12,12h-647.2v10.4h657.5c6.6,0,12-5.4,12-12v-150.5c0,0,0,0,0,0c0,0,0,0,0,0V1041
			h73v82.1c0,2.9,2.3,5.2,5.2,5.2h33.7c2.9,0,5.2-2.3,5.2-5.2v-166h66.1C2413.5,957.1,2415.8,954.8,2415.8,951.9z M2274.9,422.9
			h20.7c26.4,0,29.9,18.9,30.2,21.9v66.3h-51V422.9z M2217.9,511.1h-26.8V429h26.8V511.1z M2228.3,511.1V429h36.3v82.1H2228.3z
			 M2252.8,561.2l-13-39.8h91.1c4,0.5,42.2,6.3,47.6,39.8H2252.8z M2114,691.7h33.5c0.2,0,0.4,0,0.6-0.1c0.2,0,0.4,0.1,0.6,0.1
			c9.7,0,17.6,7.9,17.6,17.6c0,9.7-7.9,17.6-17.6,17.6h-236.2c-0.2,0-0.4,0-0.6,0.1c-0.2,0-0.4-0.1-0.6-0.1
			c-9.7,0-17.6-7.9-17.6-17.6c0-9.7,7.9-17.6,17.6-17.6c0.2,0,0.4,0,0.6-0.1c0.2,0,0.4,0.1,0.6,0.1h24.6c15.4,0,28-12.6,28-28
			c0-0.1,0-0.2,0-0.3c0-0.2,0-0.4,0-0.5c0-2.9-0.4-5.7-1.3-8.3h123.9c-1,2.9-1.5,6-1.5,9.1C2086,679.1,2098.5,691.7,2114,691.7z
			 M2217,1059.1C2217,1059.1,2217,1059.1,2217,1059.1c0,11.6-15.6,27.7-26.9,27.7h-500.9c-11.5,0-20.9-9.4-20.9-20.9
			c0-11.5,9.4-20.9,20.9-20.9c0.4,0,0.9-0.1,1.3-0.2c0.4,0.1,0.8,0.2,1.3,0.2h190.1c17.2,0,31.3-14,31.3-31.3
			c0-17.2-14-31.3-31.3-31.3c-0.7,0-1.3,0.1-1.9,0.4c-0.6-0.2-1.2-0.4-1.9-0.4h-95c-15.6,0-28.3-12.7-28.3-28.3
			c0-15.6,12.7-28.3,28.3-28.3H2217V1059.1z M2207.9,654.6h5.7v3.9c0,2.9,2.3,5.2,5.2,5.2h162.6l6.3,16.9h-173.6
			C2212.2,670.3,2210.1,661.3,2207.9,654.6z M2223.7,749.9c-1.9-18.1-4.6-39.8-7.8-59h174v57.5h-162.5
			C2225.9,748.4,2224.6,749,2223.7,749.9z M2300.4,1030.6h-73v-50.3h73V1030.6z M2300.4,969.9h-73v-12.8h73V969.9z M2334.1,1117.9
			h-23.3V957.1h23.3V1117.9z M2405.4,946.7h-178.1v-82.1h12.6v63.5c0,2.9,2.3,5.2,5.2,5.2h23.3c2.9,0,5.2-2.3,5.2-5.2v-63.5h5.6
			v63.5c0,2.9,2.3,5.2,5.2,5.2h23.3c2.9,0,5.2-2.3,5.2-5.2v-63.5h6.5v63.5c0,2.9,2.3,5.2,5.2,5.2h23.3c2.9,0,5.2-2.3,5.2-5.2v-63.5
			h5.6v63.5c0,2.9,2.3,5.2,5.2,5.2h23.3c2.9,0,5.2-2.3,5.2-5.2v-63.5h13V946.7z M2250.3,923v-58.4h13V923H2250.3z M2289.6,923v-58.4
			h13V923H2289.6z M2329.8,923v-58.4h13V923H2329.8z M2369.2,923v-58.4h13V923H2369.2z M2405.4,854.3h-178.1v-9.1h178.1V854.3z
			 M2260.7,831.8v-37.6h13v37.6H2260.7z M2300,831.8v-37.6h13v37.6H2300z M2340.2,831.8v-37.6h13v37.6H2340.2z M2405.4,834.8h-41.9
			V789c0-2.9-2.3-5.2-5.2-5.2H2335c-2.9,0-5.2,2.3-5.2,5.2v45.8h-6.5V789c0-2.9-2.3-5.2-5.2-5.2h-23.3c-2.9,0-5.2,2.3-5.2,5.2v45.8
			h-5.6V789c0-2.9-2.3-5.2-5.2-5.2h-23.3c-2.9,0-5.2,2.3-5.2,5.2v45.8h-22.9V789c0-0.1,0-0.3,0-0.4c-0.1-1.5-1.1-13.8-2.9-30.7
			c0.8,0.6,1.8,0.9,2.9,0.9h154.7v50.6c0,2.9,2.3,5.2,5.2,5.2h18.1V834.8z"/>
	</g>
	<g>
		<path class="st0" d="M1503.3,89.6h-10.7v14c0,2.9-2.3,5.2-5.2,5.2c-2.9,0-5.2-2.3-5.2-5.2v-14h-10.7c-2.9,0-5.2-2.3-5.2-5.2
			c0-2.9,2.3-5.2,5.2-5.2h10.7v-14c0-2.9,2.3-5.2,5.2-5.2c2.9,0,5.2,2.3,5.2,5.2v14h10.7c2.9,0,5.2,2.3,5.2,5.2
			C1508.4,87.3,1506.1,89.6,1503.3,89.6z"/>
		<path class="st0" d="M1149.4,134.4c-0.9,1.5-2.6,2.5-4.4,2.5c-0.1,0-0.2,0-0.2,0c-1.9-0.1-3.6-1.2-4.4-2.9l-12.9-26.4
			c-1.3-2.6-0.2-5.7,2.4-6.9c2.6-1.3,5.7-0.2,6.9,2.4l8.8,17.9l4.3-7c1.5-2.4,4.7-3.2,7.1-1.7c2.4,1.5,3.2,4.7,1.7,7.1L1149.4,134.4
			z"/>
		<path class="st0" d="M1149.4,194.1c-0.9,1.5-2.6,2.5-4.4,2.5c-0.1,0-0.2,0-0.2,0c-1.9-0.1-3.6-1.2-4.4-2.9l-12.9-26.4
			c-1.3-2.6-0.2-5.7,2.4-6.9c2.6-1.3,5.7-0.2,6.9,2.4l8.8,17.9l4.3-7c1.5-2.4,4.7-3.2,7.1-1.7c2.4,1.5,3.2,4.7,1.7,7.1L1149.4,194.1
			z"/>
		<path class="st0" d="M1109.7,111.9h-49.1c-2.9,0-5.2-2.3-5.2-5.2c0-2.9,2.3-5.2,5.2-5.2h49.1c2.9,0,5.2,2.3,5.2,5.2
			C1114.9,109.6,1112.6,111.9,1109.7,111.9z"/>
		<path class="st0" d="M1044.3,111.9h-24.6c-2.9,0-5.2-2.3-5.2-5.2c0-2.9,2.3-5.2,5.2-5.2h24.6c2.9,0,5.2,2.3,5.2,5.2
			C1049.5,109.6,1047.2,111.9,1044.3,111.9z"/>
		<path class="st0" d="M1109.7,133.3h-24.5c-2.9,0-5.2-2.3-5.2-5.2c0-2.9,2.3-5.2,5.2-5.2h24.5c2.9,0,5.2,2.3,5.2,5.2
			C1114.9,131,1112.6,133.3,1109.7,133.3z"/>
		<path class="st0" d="M1072.7,129.3c0,2.9-2.3,5.2-5.2,5.2h-73.8c-2.9,0-5.2-2.3-5.2-5.2c0-2.9,2.3-5.2,5.2-5.2h73.8
			C1070.4,124.1,1072.7,126.4,1072.7,129.3z"/>
		<path class="st0" d="M1109.7,172.1h-68c-2.9,0-5.2-2.3-5.2-5.2c0-2.9,2.3-5.2,5.2-5.2h68c2.9,0,5.2,2.3,5.2,5.2
			C1114.9,169.7,1112.6,172.1,1109.7,172.1z"/>
		<path class="st0" d="M1010.8,172.1c-2.9,0-5.2-2.3-5.2-5.2c0-2.9,2.3-5.2,5.2-5.2h13.7c2.9,0,5.2,2.3,5.2,5.2
			c0,2.9-2.3,5.2-5.2,5.2H1010.8z"/>
		<path class="st0" d="M1109.7,193.5h-24.5c-2.9,0-5.2-2.3-5.2-5.2c0-2.9,2.3-5.2,5.2-5.2h24.5c2.9,0,5.2,2.3,5.2,5.2
			C1114.9,191.1,1112.6,193.5,1109.7,193.5z"/>
		<path class="st0" d="M1072.7,189.5c0,2.9-2.3,5.2-5.2,5.2h-42.1c-2.9,0-5.2-2.3-5.2-5.2c0-2.9,2.3-5.2,5.2-5.2h42.1
			C1070.4,184.3,1072.7,186.6,1072.7,189.5z"/>
		<path class="st0" d="M708.9,467.4c-2.9,0-5.2-2.3-5.2-5.2v-14H693c-2.9,0-5.2-2.3-5.2-5.2c0-2.9,2.3-5.2,5.2-5.2h10.7v-14
			c0-2.9,2.3-5.2,5.2-5.2c2.9,0,5.2,2.3,5.2,5.2v14h10.7c2.9,0,5.2,2.3,5.2,5.2c0,2.9-2.3,5.2-5.2,5.2h-10.7v14
			C714.1,465,711.7,467.4,708.9,467.4z"/>
		<path class="st0" d="M211.3,758.6H222v-14c0-2.9,2.3-5.2,5.2-5.2c2.9,0,5.2,2.3,5.2,5.2v14h10.7c2.9,0,5.2,2.3,5.2,5.2
			c0,2.9-2.3,5.2-5.2,5.2h-10.7v14c0,2.9-2.3,5.2-5.2,5.2c-2.9,0-5.2-2.3-5.2-5.2v-14h-10.7c-2.9,0-5.2-2.3-5.2-5.2
			C206.1,760.9,208.4,758.6,211.3,758.6z"/>
		<path class="st0" d="M228.9,1048.7c9.7,0,17.6-7.9,17.6-17.6c0-9.7-7.9-17.5-17.6-17.5c-9.7,0-17.6,7.9-17.6,17.5
			C211.3,1040.9,219.2,1048.7,228.9,1048.7z M221.7,1031.2c0-4,3.2-7.2,7.2-7.2c4,0,7.2,3.2,7.2,7.2c0,4-3.2,7.2-7.2,7.2
			C224.9,1038.4,221.7,1035.1,221.7,1031.2z"/>
		<path class="st0" d="M276.1,492.5c0-9.7-7.9-17.5-17.6-17.5c-9.7,0-17.6,7.9-17.6,17.5c0,9.7,7.9,17.6,17.6,17.6
			C268.2,510.1,276.1,502.2,276.1,492.5z M265.8,492.5c0,4-3.2,7.2-7.2,7.2c-4,0-7.2-3.2-7.2-7.2c0-4,3.2-7.2,7.2-7.2
			C262.5,485.3,265.8,488.5,265.8,492.5z"/>
		<path class="st0" d="M1272.6,259.7c9.7,0,17.6-7.9,17.6-17.6c0-9.7-7.9-17.5-17.6-17.5c-9.7,0-17.6,7.9-17.6,17.5
			C1255.1,251.8,1262.9,259.7,1272.6,259.7z M1272.6,249.3c-4,0-7.2-3.2-7.2-7.2c0-4,3.2-7.2,7.2-7.2c4,0,7.2,3.2,7.2,7.2
			C1279.8,246.1,1276.6,249.3,1272.6,249.3z"/>
		<path class="st0" d="M691.3,1308.7c0,9.7,7.9,17.6,17.6,17.6c9.7,0,17.6-7.9,17.6-17.6c0-9.7-7.9-17.5-17.6-17.5
			C699.2,1291.1,691.3,1299,691.3,1308.7z M701.7,1308.7c0-4,3.2-7.2,7.2-7.2c4,0,7.2,3.2,7.2,7.2c0,4-3.2,7.2-7.2,7.2
			C704.9,1315.8,701.7,1312.6,701.7,1308.7z"/>
		<path class="st0" d="M486.4,862.5c-1,0.8-2.2,1.2-3.4,1.2c-1.5,0-2.9-0.6-4-1.8l-15.1-17.8c-1.6-1.9-1.6-4.8,0-6.7l15.1-17.8
			c1.9-2.2,5.1-2.4,7.3-0.6c2.2,1.9,2.4,5.1,0.6,7.3l-12.3,14.4l12.3,14.4C488.8,857.3,488.5,860.6,486.4,862.5z"/>
		<path class="st0" d="M459.7,862.5c-1,0.8-2.2,1.2-3.4,1.2c-1.5,0-2.9-0.6-4-1.8l-15.1-17.8c-1.6-1.9-1.6-4.8,0-6.7l15.1-17.8
			c1.9-2.2,5.1-2.4,7.3-0.6c2.2,1.9,2.4,5.1,0.6,7.3L448,840.7l12.3,14.4C462.1,857.3,461.9,860.6,459.7,862.5z"/>
		<path class="st0" d="M416.6,926.2l-68.9-257.4c-0.7-2.8-3.6-4.4-6.3-3.7l-51.5,13.8c-2.8,0.7-4.4,3.6-3.7,6.3l24,89.7c0,0,0,0,0,0
			c0,0,0,0,0,0l10.1,37.8c0,0,0,0,0,0c0,0,0,0,0,0l34.8,129.9c0.4,1.3,1.2,2.5,2.4,3.2c0.8,0.5,1.7,0.7,2.6,0.7
			c0.4,0,0.9-0.1,1.3-0.2l51.5-13.8C415.7,931.8,417.4,929,416.6,926.2z M405.3,923.9L363.8,935l-1.7-6.5l9-2.4
			c2.8-0.7,4.4-3.6,3.7-6.4c-0.7-2.8-3.6-4.4-6.4-3.7l-9,2.4l-2.4-8.9l20.8-5.6c2.8-0.7,4.4-3.6,3.7-6.3c-0.7-2.8-3.6-4.4-6.3-3.7
			l-20.8,5.6l-2.4-8.9l9-2.4c2.8-0.7,4.4-3.6,3.7-6.4c-0.7-2.8-3.6-4.4-6.4-3.7l-9,2.4l-2.4-8.9l20.8-5.6c2.8-0.7,4.4-3.6,3.7-6.3
			c-0.7-2.8-3.6-4.4-6.3-3.7l-20.8,5.6l-2.4-8.9l9-2.4c2.8-0.7,4.4-3.6,3.7-6.3c-0.7-2.8-3.6-4.4-6.3-3.7l-9,2.4l-2.4-8.9l20.8-5.6
			c2.8-0.7,4.4-3.6,3.7-6.3c-0.7-2.8-3.6-4.4-6.3-3.7l-20.8,5.6l-2.4-8.9l9-2.4c2.8-0.7,4.4-3.6,3.7-6.4c-0.7-2.8-3.6-4.4-6.4-3.7
			l-9,2.4l-2.4-8.9l20.8-5.6c2.8-0.7,4.4-3.6,3.7-6.4c-0.7-2.8-3.6-4.4-6.4-3.7l-20.8,5.6l-2.4-8.9l9-2.4c2.8-0.7,4.4-3.6,3.7-6.4
			c-0.7-2.8-3.6-4.4-6.4-3.7l-9,2.4l-2.4-8.9l20.8-5.6c2.8-0.7,4.4-3.6,3.7-6.3c-0.7-2.8-3.6-4.4-6.3-3.7l-20.8,5.6l-2.4-8.9l9-2.4
			c2.8-0.7,4.4-3.6,3.7-6.3c-0.7-2.8-3.6-4.4-6.3-3.7l-9,2.4l-2.4-8.9l20.8-5.6c2.8-0.7,4.4-3.6,3.7-6.3c-0.7-2.8-3.6-4.4-6.3-3.7
			l-20.8,5.6l-1.7-6.5l9-2.4c2.8-0.7,4.4-3.6,3.7-6.3c-0.7-2.8-3.6-4.4-6.3-3.7l-9,2.4l-1.7-6.5l41.5-11.1L405.3,923.9z"/>
		<path class="st0" d="M884.8,157.3l15-65.1c0.6-2.8-1.1-5.6-3.9-6.2l-90.4-20.8c-1.3-0.3-2.8-0.1-3.9,0.7c-1.2,0.7-2,1.9-2.3,3.2
			l-15,65.1c-0.6,2.8,1.1,5.6,3.9,6.2l90.4,20.8c0.4,0.1,0.8,0.1,1.2,0.1c1,0,1.9-0.3,2.8-0.8C883.6,159.8,884.5,158.7,884.8,157.3z
			 M875.8,150l-80.3-18.5l12.7-55L888.5,95L875.8,150z"/>
		<path class="st0" d="M921.2,78.9c0.6-2.8-1.1-5.6-3.9-6.2l-81.7-18.8l-4.3-49.1c-0.1-1.4-0.8-2.6-1.8-3.5
			c-1.1-0.9-2.4-1.3-3.8-1.2l-128,11.3c-2.9,0.3-5,2.8-4.7,5.6l11.3,128c0.1,1.4,0.8,2.6,1.8,3.5c0.9,0.8,2.1,1.2,3.3,1.2
			c0.2,0,0.3,0,0.5,0l53.6-4.7l-6.4,28c-0.6,2.8,1.1,5.6,3.9,6.2L886.1,208c0.4,0.1,0.8,0.1,1.2,0.1c1,0,1.9-0.3,2.8-0.8
			c1.2-0.7,2-1.9,2.3-3.2L921.2,78.9z M825,51.4l-7.7-1.8L815,24.1c-0.3-2.9-2.7-5-5.6-4.7L717,27.6c-2.9,0.3-5,2.8-4.7,5.6
			l5.9,66.5c0.2,2.7,2.5,4.7,5.2,4.7c0.2,0,0.3,0,0.5,0l50-4.4l-7.9,34.3l-51.8,4.6L703.7,21.2l117.7-10.4L825,51.4z M728,93.6
			l-5-56.2l82.1-7.3l1.5,17l-14.6-3.4c-1.3-0.3-2.8-0.1-3.9,0.7c-1.2,0.7-2,1.9-2.3,3.2l-9.6,41.7L728,93.6z M909.9,81.6
			l-26.5,115.1l-115.1-26.5l26.5-115.1L909.9,81.6z"/>
		<path class="st0" d="M0,792.7l0,200.1c0,2.9,2.3,5.2,5.2,5.2h15.7v14.2c0,2.9,2.3,5.2,5.2,5.2h13.1v13.2c0,2.9,2.3,5.2,5.2,5.2
			h144.2c2.9,0,5.2-2.3,5.2-5.2V830.4c0-2.9-2.3-5.2-5.2-5.2h-13.1V812c0-2.9-2.3-5.2-5.2-5.2h-15.7v-14.2c0-2.9-2.3-5.2-5.2-5.2
			H5.2C2.3,787.5,0,789.8,0,792.7z M49.5,835.6h133.8v189.7H49.5V835.6z M31.3,817.2h133.8v8H44.3c-2.9,0-5.2,2.3-5.2,5.2V1007h-7.9
			V817.2z M10.4,797.9h133.8v9H26.1c-2.9,0-5.2,2.3-5.2,5.2v175.6H10.4V797.9z"/>
		<path class="st0" d="M166.4,895.4h-47.2c-2.9,0-5.2-2.3-5.2-5.2c0-2.9,2.3-5.2,5.2-5.2h47.2c2.9,0,5.2,2.3,5.2,5.2
			C171.6,893.1,169.3,895.4,166.4,895.4z"/>
		<path class="st0" d="M103.3,895.4H90.1c-2.9,0-5.2-2.3-5.2-5.2c0-2.9,2.3-5.2,5.2-5.2h13.2c2.9,0,5.2,2.3,5.2,5.2
			C108.5,893.1,106.1,895.4,103.3,895.4z"/>
		<path class="st0" d="M166.4,915h-28.7c-2.9,0-5.2-2.3-5.2-5.2c0-2.9,2.3-5.2,5.2-5.2h28.7c2.9,0,5.2,2.3,5.2,5.2
			C171.6,912.7,169.3,915,166.4,915z"/>
		<path class="st0" d="M166.4,944.7h-57.7c-2.9,0-5.2-2.3-5.2-5.2c0-2.9,2.3-5.2,5.2-5.2h57.7c2.9,0,5.2,2.3,5.2,5.2
			C171.6,942.4,169.3,944.7,166.4,944.7z"/>
		<path class="st0" d="M166.4,964.7H142c-2.9,0-5.2-2.3-5.2-5.2c0-2.9,2.3-5.2,5.2-5.2h24.4c2.9,0,5.2,2.3,5.2,5.2
			C171.6,962.4,169.3,964.7,166.4,964.7z"/>
		<path class="st0" d="M166.4,997.2h-50c-2.9,0-5.2-2.3-5.2-5.2c0-2.9,2.3-5.2,5.2-5.2h50c2.9,0,5.2,2.3,5.2,5.2
			C171.6,994.9,169.3,997.2,166.4,997.2z"/>
		<path class="st0" d="M98.2,986.9c2.9,0,5.2,2.3,5.2,5.2c0,2.9-2.3,5.2-5.2,5.2H80.4c-2.9,0-5.2-2.3-5.2-5.2c0-2.9,2.3-5.2,5.2-5.2
			H98.2z"/>
		<path class="st0" d="M131.1,959.6c0,2.9-2.3,5.2-5.2,5.2H83.3c-2.9,0-5.2-2.3-5.2-5.2c0-2.9,2.3-5.2,5.2-5.2h42.7
			C128.8,954.4,131.1,956.7,131.1,959.6z"/>
		<path class="st0" d="M313,951.5v-46.7c0,0,0-0.1,0-0.1c0-0.2,0-0.4-0.1-0.6c0-0.1,0-0.3-0.1-0.4c0-0.2-0.1-0.3-0.2-0.5
			c-0.1-0.2-0.1-0.3-0.2-0.5c-0.1-0.1-0.1-0.3-0.2-0.4c-0.1-0.2-0.2-0.3-0.3-0.5c0,0,0-0.1-0.1-0.1c-0.1-0.1-0.2-0.2-0.2-0.3
			c-0.1-0.1-0.2-0.3-0.4-0.4c-0.1-0.1-0.3-0.2-0.4-0.3c-0.1-0.1-0.3-0.2-0.4-0.3c-0.1-0.1-0.3-0.2-0.5-0.3c-0.1-0.1-0.3-0.1-0.4-0.2
			c-0.2-0.1-0.3-0.1-0.5-0.2c-0.2,0-0.3-0.1-0.5-0.1c-0.2,0-0.4,0-0.6-0.1c-0.1,0-0.2,0-0.3,0h-80.7c-0.1,0-0.2,0-0.3,0
			c-0.2,0-0.4,0-0.6,0.1c-0.2,0-0.3,0.1-0.5,0.1c-0.2,0-0.3,0.1-0.5,0.2c-0.2,0.1-0.3,0.1-0.4,0.2c-0.2,0.1-0.3,0.2-0.5,0.2
			c-0.1,0.1-0.3,0.2-0.4,0.3c-0.1,0.1-0.3,0.2-0.4,0.3c-0.1,0.1-0.2,0.3-0.4,0.4c-0.1,0.1-0.2,0.2-0.2,0.2c0,0,0,0.1-0.1,0.1
			c-0.1,0.1-0.2,0.3-0.3,0.5c-0.1,0.1-0.2,0.3-0.2,0.4c-0.1,0.1-0.1,0.3-0.2,0.5c-0.1,0.2-0.1,0.3-0.2,0.5c0,0.1,0,0.3-0.1,0.4
			c0,0.2-0.1,0.4-0.1,0.6c0,0,0,0.1,0,0.1v46.7c0,2.9,2.3,5.2,5.2,5.2h80.7C310.7,956.7,313,954.4,313,951.5z M292.4,910l-24.9,18.8
			L242.7,910H292.4z M302.7,946.3h-70.3v-31.1l32,24.2c0.9,0.7,2,1,3.1,1s2.2-0.3,3.1-1l32-24.2V946.3z"/>
		<path class="st0" d="M618.3,538.9c3.3-6.1,4.1-13.2,2.1-19.8c-3.3-11-13.5-18.7-25-18.7c-2.5,0-5,0.4-7.4,1.1
			c-6.7,2-12.2,6.5-15.5,12.6c-3.3,6.1-4,13.2-2.1,19.8c3.3,11,13.5,18.6,25,18.6c2.5,0,5-0.4,7.4-1.1
			C609.5,549.5,615,545,618.3,538.9z M609.2,534c-2,3.7-5.3,6.4-9.3,7.6c-1.5,0.4-3,0.7-4.5,0.7c-6.9,0-13.1-4.6-15-11.2
			c-1.2-4-0.8-8.3,1.2-12c2-3.7,5.3-6.4,9.3-7.6c1.5-0.4,3-0.7,4.5-0.7c6.9,0,13.1,4.6,15,11.2C611.6,526.1,611.2,530.3,609.2,534z"
			/>
		<path class="st0" d="M652.2,486.9l-16.7,5c-0.3-0.4-0.7-0.8-1-1.1l6.7-13.3c0.6-1.2,0.7-2.7,0.3-4c-0.4-1.3-1.4-2.4-2.6-3
			L614.1,458c-1.2-0.6-2.6-0.7-4-0.3c-1.3,0.4-2.4,1.4-3,2.6l-6.8,13.5c0,0,0,0,0,0l-4.1-13.9c-0.8-2.7-3.7-4.3-6.5-3.5l-12.9,3.8
			l-13.3,3.9c-2.7,0.8-4.3,3.7-3.5,6.4l4.1,13.9c0,0,0,0,0,0l-13.1-7.6c-2.5-1.4-5.7-0.6-7.1,1.9l-13.9,24c-0.7,1.2-0.9,2.6-0.5,3.9
			c0.4,1.3,1.2,2.5,2.4,3.2l12.9,7.5c-0.1,0.5-0.2,1-0.3,1.5l-16.7,5c-1.3,0.4-2.4,1.3-3.1,2.5c-0.7,1.2-0.8,2.6-0.4,3.9l7.9,26.5
			c0.7,2.3,2.7,3.7,5,3.7c0.5,0,1-0.1,1.5-0.2l14.6-4.3c0.7,1,1.5,2,2.2,2.9l-7.5,12.6c-1.5,2.5-0.7,5.6,1.8,7.1l23.8,14.2
			c0.8,0.5,1.7,0.7,2.7,0.7c0.4,0,0.9-0.1,1.3-0.2c1.3-0.3,2.5-1.2,3.2-2.4l7.7-12.8c1.3,0.2,2.5,0.4,3.8,0.5l4.4,15
			c0.4,1.3,1.3,2.4,2.5,3.1c0.8,0.4,1.6,0.6,2.5,0.6c0.5,0,1-0.1,1.5-0.2l12.9-3.8l0,0l13.3-3.9c2.7-0.8,4.3-3.7,3.5-6.4l-4.4-15
			c1-0.8,2-1.6,2.9-2.5l13.4,6.6c0.7,0.4,1.5,0.5,2.3,0.5c1.9,0,3.8-1.1,4.7-2.9l12.2-24.9c0.6-1.2,0.7-2.7,0.2-4
			c-0.4-1.3-1.4-2.4-2.6-3l-13.2-6.5c0.2-1.2,0.3-2.4,0.3-3.6l14.6-4.3c2.7-0.8,4.3-3.7,3.5-6.4l-7.9-26.6
			C657.8,487.7,654.9,486.1,652.2,486.9z M655.1,515l-12.6,3.7c-0.6,0.2-1.1,0.4-1.5,0.8c-1.9,0.9-3.1,2.9-2.9,5
			c0.2,3.2-0.1,5.4-0.7,8.9l1.4,0.2c-0.6,2.3,0.5,4.9,2.7,6l10.7,5.2l-7.6,15.6l-11.2-5.5c-0.3-0.2-0.7-0.3-1-0.4
			c-2-1-4.5-0.6-6.1,1.1c-2.4,2.6-3.8,3.8-6.6,5.7c-1,0.7-1.7,1.7-2,2.8c-0.5,1.1-0.6,2.3-0.2,3.5l3.9,13.2l-7.9,2.3l0,0l-8.3,2.5
			l-3.9-13.2c-0.4-1.2-1.2-2.2-2.2-2.9c-0.9-0.7-1.9-1.1-3.1-1.1c-3.3,0-5.3-0.3-8.6-1.1c-2.3-0.6-4.6,0.5-5.7,2.4
			c-0.2,0.3-0.5,0.6-0.7,0.9l-6.4,10.7l-14.9-8.9l6.1-10.2c0.2-0.3,0.3-0.5,0.4-0.8c1.5-2,1.4-4.8-0.3-6.7c-2.4-2.7-3.9-4.3-5.5-7.1
			c-1.1-1.9-3.2-2.9-5.2-2.6c-0.6,0-1.1,0-1.7,0.2l-12.6,3.7l-4.9-16.6l15.1-4.5c0.1,0,0.1-0.1,0.2-0.1c0.2-0.1,0.4-0.1,0.5-0.2
			c0.1-0.1,0.3-0.1,0.4-0.2c0.2-0.1,0.3-0.2,0.4-0.3c0.1-0.1,0.3-0.2,0.4-0.3c0.1-0.1,0.2-0.2,0.4-0.4c0.1-0.1,0.2-0.2,0.3-0.3
			c0.1-0.1,0.2-0.3,0.3-0.4c0.1-0.1,0.2-0.2,0.2-0.4c0.1-0.2,0.1-0.3,0.2-0.5c0.1-0.1,0.1-0.3,0.2-0.4c0-0.2,0.1-0.3,0.1-0.5
			c0-0.2,0.1-0.3,0.1-0.5c0,0,0-0.1,0-0.1c0.2-2.5,0.5-4.2,1.2-6.8c0.5-2-0.3-4-1.8-5.2c-0.4-0.6-0.9-1.1-1.6-1.5l-10.7-6.2l8.7-15
			l10.3,5.9c0.2,0.1,0.5,0.2,0.7,0.3c1,0.9,2.2,1.3,3.4,1.3c1.3,0,2.6-0.5,3.6-1.4c1.5-1.4,2.8-2.4,4.8-3.8c2.1-1.4,2.8-4.1,1.8-6.4
			c0-0.2,0-0.3-0.1-0.5l-3.4-11.4l7.9-2.3c0,0,0,0,0,0l8.3-2.5l3.4,11.3c0,0.1,0.1,0.2,0.2,0.4c0.4,2.5,2.4,4.4,5,4.4
			c2.5,0.1,4.1,0.2,6.1,0.6c0.3,0.1,0.6,0.1,0.9,0.1c2.3,0,4.4-1.6,5-3.8c0.1-0.2,0.3-0.4,0.4-0.6l5.3-10.6l15.5,7.8l-5.6,11
			c-0.3,0.7-0.5,1.4-0.5,2.1c-0.6,1.8-0.1,3.9,1.4,5.3c1.9,1.8,3.2,3,4.7,5c0,0,0.1,0.1,0.1,0.1c0.2,0.3,0.4,0.5,0.7,0.7
			c0,0,0.1,0.1,0.1,0.1c0.3,0.2,0.6,0.4,0.9,0.6c0.1,0.1,0.2,0.1,0.3,0.1c0.2,0.1,0.5,0.2,0.7,0.3c0.1,0,0.3,0.1,0.4,0.1
			c0.2,0,0.5,0.1,0.7,0.1c0.1,0,0.1,0,0.2,0c0,0,0.1,0,0.1,0c0.4,0,0.9-0.1,1.3-0.2l0.1,0c0,0,0,0,0,0l14.9-4.4L655.1,515z"/>
		<path class="st0" d="M1396.4,207.9l-53.7-91.3c-1.3-2.3-4.2-3.2-6.6-2.1c-0.5,0.2-10.9,4.9-23.4,17L1243.6,63l0.8-0.8
			c0.3-0.3,0.6-0.7,0.8-1.1c1.8-3.1,3.6-10.3-1.9-15.8c-5.5-5.5-12.7-3.5-15.8-1.8c-0.4,0.2-0.7,0.5-1.1,0.8l-0.2,0.2l-37-36.7
			c-0.4-0.4-0.8-0.7-1.2-0.9c-5.1-2.7-15.5-5.6-22,1c0,0,0,0-0.1,0.1c0,0,0,0-0.1,0.1c-6.6,6.6-3.6,17-0.8,22.1
			c0.2,0.4,0.5,0.8,0.9,1.2l37,36.7l-0.2,0.2c-0.3,0.3-0.6,0.7-0.8,1.1c-1.8,3.1-3.6,10.3,1.8,15.7c0,0,0,0,0,0
			c2.7,2.7,5.9,3.6,8.7,3.6c2.9,0,5.5-0.9,7.1-1.8c0.3-0.2,0.6-0.4,0.8-0.6l37.3,37.1c0,0,0,0,0,0c0,0,0,0,0,0l34.5,34.2
			c-6.5,10.9-11.7,23.1-15.4,36.3c-0.4,1.3-0.2,2.7,0.5,3.9c0.7,1.2,1.8,2.1,3.1,2.5l99,27.6c0.5,0.1,0.9,0.2,1.4,0.2
			c0.2,0,0.3-0.1,0.5-0.1c0.2,0,0.4,0.1,0.6,0.1c1.8,0,3.6-1,4.5-2.7c2.9-5.2,4.4-7.4,8.5-10.7
			C1397.2,213,1397.7,210.2,1396.4,207.9z M1219,52l-4.9,5c0,0,0,0,0,0l-3.7,3.8L1174,24.6c-1.1-2.4-2.6-7.2-0.6-9.2
			c0,0,0-0.1,0.1-0.1c0,0,0,0,0.1-0.1c1.9-1.9,6.7-0.6,9.2,0.6L1219,52z M1236.4,55.5l-10.6,10.7c0,0,0,0,0,0L1214,78.1
			c-0.7,0.3-1.9,0.5-2.8-0.4c0,0,0,0,0,0c-0.9-0.9-0.6-2.1-0.4-2.8l11.8-11.9c0,0,0,0,0,0l10.6-10.7c0.7-0.3,1.9-0.5,2.8,0.4
			C1236.9,53.6,1236.7,54.9,1236.4,55.5z M1270.2,103.9l-8.6,8.4l-33.7-33.5l4.1-4.2c0,0,0,0,0,0l4.3-4.4L1270.2,103.9z
			 M1317.8,153.6c0.6,3.1,3.1,6,7.3,10.8c2.2,2.6,6.6,7.6,7.6,10.1c-2.5-0.9-7.6-5.3-10.1-7.5c-4.9-4.2-7.8-6.6-10.9-7.2
			c-2.1-0.4-7-4.4-10.2-7.7l-32.6-32.4l8.6-8.4l32.4,32.1C1313.4,146.6,1317.4,151.6,1317.8,153.6z M1385.3,209.5
			c-2.5,2.4-4.2,4.8-5.8,7.5l-91-25.4c3-9.6,7-18.6,11.7-26.8c2.8,2.2,6.2,4.4,9.3,5.1c1.2,0.5,4.2,3.2,6.3,4.9
			c5.3,4.5,11.9,10.3,17.9,10.3c2.2,0,4.2-0.8,6.1-2.7c0.2-0.2,0.3-0.3,0.4-0.5c0.2-0.1,0.4-0.3,0.5-0.4c7-7-1.6-16.8-7.8-23.9
			c-1.8-2-4.5-5.1-5-6.2c-1-4.4-5-9.3-7.9-12.4c6.6-6.4,12.5-10.5,16.2-12.7L1385.3,209.5z"/>
		<path class="st0" d="M1531.5,231.8c0-56.1-43.8-81.3-45.7-82.4c-2.4-1.4-5.5-0.6-7,1.8l-34.9,57.3c-1.4,2.4-0.8,5.4,1.5,7
			c6.9,4.7,10.2,9.9,10.9,16.8c0.3,2.6,2.5,4.7,5.2,4.7h64.7C1529.2,237,1531.5,234.7,1531.5,231.8z M1521,226.7h-55
			c-1.6-6.5-5.1-12-10.7-16.7l29.7-48.7C1494.9,168.3,1518.9,189.2,1521,226.7z"/>
		<path class="st0" d="M1483.1,332.5c50.9-26.7,46.9-82.2,46.8-82.8c-0.2-2.7-2.5-4.8-5.2-4.8h-65.3c-2.6,0-4.9,2-5.2,4.6
			c-0.8,7.4-4.8,14-11,18.3c-2.3,1.6-2.9,4.6-1.5,7l34.4,55.8c1,1.6,2.7,2.5,4.4,2.5C1481.5,333.1,1482.3,332.9,1483.1,332.5z
			 M1482.5,320.9l-29.4-47.7c5.2-4.8,8.9-11.1,10.7-17.9h56C1519.4,267.7,1515.6,301.2,1482.5,320.9z"/>
		<path class="st0" d="M1372.1,343.4c16.6,6.4,32.5,9.6,47.5,9.6c0,0,0,0,0,0c29.8,0,45.4-12.9,46.1-13.4c1.9-1.6,2.4-4.5,1.1-6.6
			l-33.1-54.9c-1.3-2.2-4.1-3.1-6.5-2.1c-2.9,1.3-5.9,1.3-8.1,1.3c-3.5,0-6.9-0.7-10.1-2c-2.4-1-5.3-0.1-6.5,2.2l-32.9,58.6
			c-0.7,1.3-0.9,2.9-0.4,4.3C1369.5,341.8,1370.6,342.9,1372.1,343.4z M1381.4,335.8l27.8-49.5c3.1,0.9,6.4,1.3,9.7,1.3
			c1.9,0,4.7,0,7.9-0.7l28.5,47.2c-5.6,3.2-17.6,8.6-35.7,8.6c0,0,0,0,0,0C1407.6,342.7,1394.8,340.4,1381.4,335.8z"/>
		<path class="st0" d="M1314.2,280.9c13.1,37.9,39.9,51.1,41,51.7c0.7,0.3,1.5,0.5,2.2,0.5c1.7,0,3.4-0.9,4.4-2.5l35.2-56.8
			c1.4-2.3,0.9-5.2-1.2-6.8c-2.3-1.8-4.3-4-5.9-6.5c-1.2-1.8-3.4-2.8-5.6-2.2l-66.5,15.9c-1.4,0.3-2.6,1.3-3.3,2.6
			C1313.8,278,1313.7,279.5,1314.2,280.9z M1326,282.9l57.4-13.7c0.8,1,1.7,2,2.6,2.9l-30.2,48.7C1349,316.2,1335,304.7,1326,282.9z
			"/>
		<path class="st0" d="M1469.4,138.2c-0.8-0.5-19-11.9-47.4-11.9c-16.6,0-33.2,3.9-49.5,11.6c-1.3,0.6-2.3,1.7-2.7,3.1
			c-0.4,1.4-0.3,2.9,0.4,4.1l33.8,59.4c1,1.7,2.7,2.6,4.5,2.6c0.9,0,1.7-0.2,2.5-0.7c3.5-1.9,6.4-2.6,11.4-2.6c4,0,6,0.3,8.8,1.5
			c2.4,1,5.2,0.1,6.5-2.2l33.4-58C1472.5,142.8,1471.8,139.7,1469.4,138.2z M1459.5,144.7l-28.6,49.7c-2.8-0.7-5.4-0.8-8.4-0.8
			c-4.7,0-8.3,0.5-11.8,1.8l-28.6-50.3c13.2-5.5,26.7-8.3,40-8.3C1439.7,136.7,1453,141.6,1459.5,144.7z"/>
		<path class="st0" d="M861.6,621.7V588c0-2.9,2.3-5.2,5.2-5.2s5.2,2.3,5.2,5.2v33.7c0,2.9-2.3,5.2-5.2,5.2S861.6,624.6,861.6,621.7
			z"/>
		<path class="st0" d="M70.7,1214.6c0,0.5,0.1,1,0.3,1.5c-0.1,0.4-0.2,0.9-0.2,1.4v129.4c0,2.9,2.3,5.2,5.2,5.2h76.6c0,0,0,0,0,0
			c0.3,0,0.6,0,1-0.1c0.1,0,0.2-0.1,0.4-0.1c0.1,0,0.3-0.1,0.4-0.1l25-9h14v7.7c0,2.9,2.3,5.2,5.2,5.2h47.1c2.9,0,5.2-2.3,5.2-5.2
			v-7.7h274.6v7.7c0,2.9,2.3,5.2,5.2,5.2h47.1c2.9,0,5.2-2.3,5.2-5.2v-7.7h13.9c2.8,0,5.1-2.2,5.2-5l4.3-133.7c0-0.1,0-0.2,0-0.3
			c0-0.2,0-0.3,0-0.5c0-0.2-0.1-0.4-0.1-0.5c0-0.1,0-0.2-0.1-0.3c-0.5-1.8-12.6-41.4-46.5-45.1c-0.3-3.4-1.4-7.7-4.5-11.3
			c-2.2-2.5-6.4-5.6-13.6-5.6h-43.7v-137.1c0-2.9-2.3-5.2-5.2-5.2h-14.2v-13.7c0-2.9-2.3-5.2-5.2-5.2H288.4c-2.9,0-5.2,2.3-5.2,5.2
			v156h-61.7c-0.3,0-0.5,0-0.8,0.1c-5.9,0.9-16.6,5.8-18.5,17.9c-5.5,2.2-15.9,7.8-22.7,19.6c-0.4-0.1-0.8-0.2-1.2-0.2h-71.2
			c-1.4,0-2.7,0.6-3.7,1.5l-30.9,31.2C71.5,1211.5,70.7,1213,70.7,1214.6z M283.2,1157h-69.8c2.2-4.5,7.1-5.9,8.5-6.2h61.2V1157z
			 M467.9,998.1H307.8c-2.9,0-5.2,2.3-5.2,5.2V1157h-9V989.6h174.3V998.1z M487.3,1157H313v-148.5h174.3V1157z M548.9,1157h-51.3
			v-6.2h43.7c4,0,5.3,1.5,5.8,2.1C548.1,1154,548.6,1155.5,548.9,1157z M593.4,1198.6h-6.8l-14.3-22.7c-0.9-1.5-2.6-2.4-4.4-2.4
			H211.5c-1.6,0-3,0.7-4,1.9l-16.5,20.1c-0.8,0.9-1.1,2-1.2,3.1h-5.9c2.4-23.5,20.6-30.2,24-31.3h346.4
			C576.5,1167.3,588.6,1187.8,593.4,1198.6z M417.9,1256.3v-3.4h119.7v37.5c0,0.3,0,0.5,0.1,0.8c0,0,0.6,4.6-2.4,8
			c-2.6,2.9-7.4,4.5-14,4.5H259.6c-0.7,0-17.8-0.4-17.8-13.3v-37.5h116.1v3.4c0,2.9,2.3,5.2,5.2,5.2h49.6
			C415.6,1261.5,417.9,1259.2,417.9,1256.3z M241.8,1242.5V1209h295.8v33.5H412.7c-2.9,0-5.2,2.3-5.2,5.2v3.4h-39.2v-3.4
			c0-2.9-2.3-5.2-5.2-5.2H241.8z M201.8,1198.6l12.1-14.8h351.2l9.3,14.8H201.8z M594.7,1237.5c-3.5,1.5-14.8,4.7-46.8,5V1209h47.7
			L594.7,1237.5z M535.7,1342.8h36.7v2.5h-36.7V1342.8z M203.7,1342.8h36.7v2.5h-36.7V1342.8z M183.6,1248.9
			c11.1,3.5,28.3,4.3,40.5,4.3c2.8,0,5.3,0,7.4-0.1v37.3c0,18.5,18.4,23.5,28.1,23.6h261.7c9.9,0,17.3-2.8,22-8.2
			c5.4-6.3,5-13.7,4.8-15.8v-37.2c21.1-0.2,36.9-1.7,46.4-4.4l-2.7,83.9H183.6V1248.9z M183.6,1209h47.8v33.6
			c-19.5,0.5-41-1.1-47.8-4.8V1209z M157.3,1215.4l16.4-19c-0.3,2.3-0.4,4.8-0.4,7.4v130.1l-15.5,5.6v-122
			C157.7,1216.7,157.5,1216,157.3,1215.4z M148.7,1209.4H88.4l21-21.2h57.7L148.7,1209.4z M81.1,1219.8h66.2v121.9H81.1V1219.8z"/>
		<path class="st0" d="M223,1228.4h-15.5c-2.9,0-5.2-2.3-5.2-5.2c0-2.9,2.3-5.2,5.2-5.2H223c2.9,0,5.2,2.3,5.2,5.2
			C228.1,1226.1,225.8,1228.4,223,1228.4z"/>
		<path class="st0" d="M464,694l60.9,37.6l154.8-46.1c2.7-0.8,5.6,0.7,6.5,3.5c0.8,2.7-0.7,5.6-3.5,6.5l-157,46.8
			c-0.5,0.1-1,0.2-1.5,0.2c-1,0-1.9-0.3-2.7-0.8l-62.9-38.8c-2.4-1.5-3.2-4.7-1.7-7.1C458.3,693.2,461.5,692.5,464,694z"/>
		<path class="st0" d="M456.3,675.4c0,0.2,0,0.3,0,0.5c0,0.2,0,0.3,0,0.5c0,0.2,0,0.3,0.1,0.5c0,0.2,0.1,0.4,0.1,0.5
			c0,0.1,0,0.1,0,0.2c0,0.1,0.1,0.1,0.1,0.1c0.2,0.5,0.4,0.9,0.7,1.4c0,0,0,0,0,0c0.3,0.4,0.6,0.7,1,1c0.1,0.1,0.2,0.1,0.3,0.2
			c0.1,0.1,0.1,0.1,0.2,0.2l62.9,38.8c0.8,0.5,1.8,0.8,2.7,0.8c0.5,0,1-0.1,1.5-0.2l157-46.8c0.4-0.1,0.7-0.2,1-0.4c0,0,0,0,0,0
			c0.3-0.2,0.6-0.4,0.9-0.7c0.1-0.1,0.2-0.2,0.2-0.2c0.2-0.2,0.4-0.5,0.6-0.7c0-0.1,0.1-0.1,0.1-0.2c0,0,0-0.1,0.1-0.1
			c0.1-0.2,0.2-0.3,0.3-0.5c0.1-0.1,0.1-0.3,0.2-0.4c0.1-0.2,0.1-0.3,0.1-0.5c0-0.2,0.1-0.3,0.1-0.5c0-0.2,0-0.3,0-0.5
			c0-0.2,0-0.3,0-0.5c0-0.2,0-0.3-0.1-0.5c0-0.2-0.1-0.4-0.1-0.5c0,0,0-0.1,0-0.1c0-0.1-0.1-0.2-0.1-0.3c-0.1-0.2-0.1-0.3-0.2-0.5
			c-0.1-0.1-0.2-0.3-0.2-0.4c-0.1-0.1-0.2-0.3-0.3-0.4c-0.1-0.1-0.2-0.3-0.3-0.4c-0.1-0.1-0.2-0.2-0.3-0.3c-0.1-0.1-0.3-0.2-0.4-0.3
			c-0.1-0.1-0.2-0.1-0.2-0.2l-64.2-39.8c0,0-0.1,0-0.1-0.1c-0.2-0.1-0.4-0.2-0.5-0.3c-0.1-0.1-0.3-0.1-0.4-0.2
			c-0.2-0.1-0.4-0.1-0.6-0.1c-0.1,0-0.3-0.1-0.4-0.1c-0.2,0-0.4,0-0.6,0c-0.2,0-0.3,0-0.5,0c-0.2,0-0.3,0-0.5,0.1
			c-0.2,0-0.4,0.1-0.5,0.1c-0.1,0-0.1,0-0.2,0l-155.7,47.8c-0.1,0-0.2,0.1-0.3,0.1c-0.2,0.1-0.3,0.1-0.5,0.2
			c-0.2,0.1-0.3,0.2-0.4,0.2c-0.1,0.1-0.3,0.2-0.4,0.3c-0.1,0.1-0.3,0.2-0.4,0.4c-0.1,0.1-0.2,0.2-0.3,0.3c-0.1,0.1-0.2,0.3-0.3,0.5
			c-0.1,0.1-0.1,0.2-0.2,0.2c0,0,0,0.1-0.1,0.1c-0.1,0.2-0.2,0.3-0.2,0.5c-0.1,0.1-0.1,0.3-0.2,0.4c-0.1,0.2-0.1,0.3-0.1,0.5
			C456.4,675.1,456.3,675.2,456.3,675.4z M473.9,677.7l142.5-43.8l52.4,32.5l-143.7,42.8L473.9,677.7z"/>
		<path class="st0" d="M456.6,717.7c1.5-2.4,4.7-3.2,7.1-1.7l60.9,37.6l154.8-46.1c2.7-0.8,5.6,0.7,6.5,3.5c0.8,2.7-0.7,5.6-3.5,6.5
			l-157,46.8c-0.5,0.1-1,0.2-1.5,0.2c-1,0-1.9-0.3-2.7-0.8l-62.9-38.8C455.9,723.3,455.1,720.1,456.6,717.7z"/>
		<path class="st0" d="M620.6,644.7l18.1,11.2c2.4,1.5,3.2,4.7,1.7,7.1c-1,1.6-2.7,2.5-4.4,2.5c-0.9,0-1.9-0.3-2.7-0.8l-18.1-11.2
			c-2.4-1.5-3.2-4.7-1.7-7.1C615,644,618.2,643.2,620.6,644.7z"/>
		<path class="st0" d="M622.1,672.1c-1,1.6-2.7,2.5-4.4,2.5c-0.9,0-1.9-0.3-2.7-0.8l-18.1-11.2c-2.4-1.5-3.2-4.7-1.7-7.1
			c1.5-2.4,4.7-3.2,7.1-1.7l18.1,11.2C622.8,666.5,623.6,669.7,622.1,672.1z"/>
		<path class="st0" d="M633.4,125.2c0.1-1.8,0.3-10.9-6.3-18.2c-5.4-5.9-13.5-8.9-24.1-8.9H425.4h-3.8H243.9
			c-10.6,0-18.7,3-24.1,8.9c-6.6,7.2-6.4,16.3-6.3,18.2v239.1c0,9.1,2.7,16.1,8.1,20.7c5.4,4.6,12.1,5.4,16.2,5.4
			c1.5,0,2.7-0.1,3.4-0.2h136.8c-0.2,6.9-1.5,17.6-6.7,23.1c-2.3,2.5-5.3,3.7-9,3.7c-2.9,0-5.2,2.3-5.2,5.2v22.7
			c0,2.9,2.3,5.2,5.2,5.2h59.1h3.8h59.1c2.9,0,5.2-2.3,5.2-5.2v-22.7c0-2.9-2.3-5.2-5.2-5.2c-3.7,0-6.6-1.2-9-3.7
			c-5.2-5.6-6.5-16.2-6.7-23.1h136.8c0.6,0.1,1.8,0.2,3.4,0.2c4.1,0,10.8-0.8,16.2-5.4c5.4-4.6,8.1-11.5,8.1-20.7V125.2z
			 M421.6,427.4h3.8h53.9v12.4h-53.9h-3.8h-53.9v-12.4H421.6z M425.4,417h-3.8h-40c5.6-8.5,6.7-20.1,6.8-26.8h33.2h3.8h33.2
			c0.1,6.7,1.3,18.4,6.8,26.8H425.4z M223.9,347.9H423c0.1,0,0.3,0,0.4,0c0.1,0,0.3,0,0.4,0H623v16.4c0,6-1.5,10.2-4.5,12.7
			c-4.6,3.9-11.6,2.8-11.7,2.8c-0.3,0-0.6-0.1-0.9-0.1H425.4h-3.8H240.9c-0.3,0-0.6,0-0.9,0.1c0,0-7.2,1.1-11.7-2.9
			c-2.9-2.5-4.4-6.8-4.4-12.7V347.9z M623,124.5c0,0.2,0,0.3,0,0.5v212.6H423.9c-0.1,0-0.3,0-0.4,0c-0.1,0-0.3,0-0.4,0H223.9V125
			c0-0.2,0-0.3,0-0.5c0,0-0.4-6.1,3.7-10.6c3.3-3.6,8.8-5.4,16.3-5.4h177.6h3.8H603c7.6,0,13.1,1.8,16.4,5.5
			C623.5,118.4,623,124.4,623,124.5z"/>
		<path class="st0" d="M587.4,164.7H526c-2.9,0-5.2-2.3-5.2-5.2c0-2.9,2.3-5.2,5.2-5.2h61.4c2.9,0,5.2,2.3,5.2,5.2
			C592.6,162.4,590.3,164.7,587.4,164.7z"/>
		<path class="st0" d="M497.8,164.7h-43c-2.9,0-5.2-2.3-5.2-5.2c0-2.9,2.3-5.2,5.2-5.2h43c2.9,0,5.2,2.3,5.2,5.2
			C503,162.4,500.7,164.7,497.8,164.7z"/>
		<path class="st0" d="M587.4,210.9h-190c-2.9,0-5.2-2.3-5.2-5.2c0-2.9,2.3-5.2,5.2-5.2h190c2.9,0,5.2,2.3,5.2,5.2
			C592.6,208.5,590.3,210.9,587.4,210.9z"/>
		<path class="st0" d="M541.7,269.2h43.9c2.9,0,5.2,2.3,5.2,5.2c0,2.9-2.3,5.2-5.2,5.2h-43.9c-2.9,0-5.2-2.3-5.2-5.2
			C536.5,271.6,538.9,269.2,541.7,269.2z"/>
		<path class="st0" d="M445.8,269.2h75.1c2.9,0,5.2,2.3,5.2,5.2c0,2.9-2.3,5.2-5.2,5.2h-75.1c-2.9,0-5.2-2.3-5.2-5.2
			C440.6,271.6,443,269.2,445.8,269.2z"/>
		<path class="st0" d="M587.4,234.4h-27.6c-2.9,0-5.2-2.3-5.2-5.2c0-2.9,2.3-5.2,5.2-5.2h27.6c2.9,0,5.2,2.3,5.2,5.2
			C592.6,232.1,590.3,234.4,587.4,234.4z"/>
		<path class="st0" d="M441.9,363.7c0,2.9-2.3,5.2-5.2,5.2h-27.6c-2.9,0-5.2-2.3-5.2-5.2c0-2.9,2.3-5.2,5.2-5.2h27.6
			C439.6,358.5,441.9,360.8,441.9,363.7z"/>
		<path class="st0" d="M1538.4,129.4c0-2.9,2.3-5.2,5.2-5.2c5.1,0,9.8,0.3,14.3,0.9v10.5c-4.3-0.7-9.1-1-14.3-1
			C1540.8,134.5,1538.4,132.2,1538.4,129.4z"/>
		<path class="st0" d="M158.3,532.8c-29.5,0-59.5,8-59.5,23.3v24.2c-15.2,1.3-41.2,10.8-41.2,39.9c0,10.5,3.4,19.1,10,25.5
			c10.4,10.1,25.7,11.7,31.3,12v26.6c0,0.3,0,0.7,0.1,1c0.3,1.3,6.8,30.7,59.4,30.7c52.5,0,59.1-25.4,59.3-26.4
			c0.1-0.4,0.1-0.8,0.1-1.2V560c0-0.5-0.1-1.1-0.3-1.5c0.2-0.8,0.3-1.5,0.3-2.3C217.8,540.8,187.9,532.8,158.3,532.8z M98.9,647.3
			c-4.6-0.2-16.5-1.6-24.1-9c-4.6-4.5-6.8-10.4-6.8-18.1c0-23.9,23.4-28.6,30.9-29.4V647.3z M207.4,556.2c0,3.9-16.7,12.9-49.1,12.9
			c-32.4,0-49.1-9.1-49.1-12.9c0-3.9,16.7-12.9,49.1-12.9C190.7,543.2,207.4,552.3,207.4,556.2z M207.4,687.5
			c-1.1,2.6-9.2,18.1-49.1,18.1c-40.7,0-48.1-18.8-49.1-22V569.9c11.3,6.3,30.3,9.6,49.1,9.6s37.8-3.3,49.1-9.6V687.5z"/>
		<path class="st0" d="M623.6,1078.4l-1.5-10.2c0,0,0,0,0,0L597.9,909c-0.2-1.5-1.1-2.9-2.5-3.7l-21.2-12.5l-3.1-20.2
			c-0.2-1.4-0.9-2.6-2.1-3.4c-1.1-0.8-2.5-1.2-3.9-1l-20.8,3.2c0,0,0,0,0,0l-20.8,3.1c-1.4,0.2-2.6,0.9-3.4,2.1
			c-0.8,1.1-1.2,2.5-1,3.9l3.1,20.2l-16.6,18.3c-1,1.2-1.5,2.7-1.3,4.3c0,0,23.4,154.5,25.7,169.4c1.8,12.1,18.4,14.7,32.1,14.7
			c7.8,0,14.8-0.8,17.6-1.2c0,0,0,0,0,0c0,0,0.1,0,0.1,0C587.8,1104.7,626.5,1097.4,623.6,1078.4z M563.5,891.6l-15.7,2.4l-15.7,2.4
			l-1.9-12.3l15.7-2.4c0,0,0,0,0,0l15.7-2.4L563.5,891.6z M590.1,926.4c-5.7,1.9-17.8,5.4-36,8.2c-18.2,2.8-30.9,3-36.9,2.8
			c-0.9-6.1-1.6-10.7-2-13.4l15.3-16.9l19-2.9l19-2.9L588,913L590.1,926.4z M611.1,1065.4c-7.3,2.4-23,7.3-35.9,9.3
			c-12.9,1.9-29.4,1.9-37,1.7c-4.4-29.3-14-92.7-19.5-128.6c0.4,0,0.8,0,1.2,0c7.2,0,19.2-0.5,35.6-3c17.4-2.6,29.4-5.9,36.1-8.1
			L611.1,1065.4z M613.3,1079.9c0.8,5.6-17.7,12.9-34.9,15.8c-17.2,2.4-37.2,0.9-38-4.7c-0.1-0.9-0.3-2.3-0.6-4.1c1.5,0,3.3,0,5.2,0
			c8.8,0,21.3-0.3,31.8-1.9c12.8-1.9,27.8-6.5,35.9-9.1L613.3,1079.9z"/>
		<path class="st0" d="M996.2,235.5c-5.7,0-11.1,1.9-15.5,5.3c-1.1-4.6-3.5-9.8-5.6-12.2c-3.3-3.8-3.1-8.1-3.1-8.3
			c0.1-1.7-0.7-3.5-2.1-4.5c-1.4-1-3.2-1.4-4.9-0.8l-96.3,34.6c-0.4,0.1-0.7,0.3-1,0.5c-0.1,0.1-0.2,0.1-0.2,0.2
			c-0.2,0.2-0.4,0.3-0.6,0.5c-0.1,0.1-0.2,0.2-0.2,0.3c-0.2,0.2-0.3,0.4-0.4,0.6c-0.1,0.1-0.1,0.2-0.2,0.4c-0.1,0.2-0.2,0.4-0.3,0.6
			c0,0.1-0.1,0.1-0.1,0.2c-3.3,9.8-15.1,36.5-30.7,42.1c-9.2,3.3-20.8,5.6-33,8c-15.7,3.1-32,6.3-47.1,12.3
			c-21.6,8.5-56.7,34.1-53,44.3c0.7,2,2.4,6.7,26,6.7c0,0,0,0,0,0c8.8,0,26.2-0.8,43-6.3c15.5-5,30-12.9,44.2-20.5
			c11-5.9,21.3-11.5,30.6-14.8c2.6-0.9,5.5-1.4,8.9-1.4c18.6,0,41.3,14.1,41.6,14.3c0.4,0.2,0.8,0.4,1.2,0.5c0.1,0,0.2,0,0.3,0.1
			c0.4,0.1,0.8,0.2,1.1,0.2c0.1,0,0.1,0,0.2,0c0.1,0,0.3,0,0.4,0c0.1,0,0.2,0,0.3,0c0.3,0,0.7-0.1,1-0.2l24.6-8.9
			c2.2,10.1,10.3,19.8,20.2,19.8h306.8c11.5,0,20.9-9.4,20.9-20.9c0-11.5-9.4-20.9-20.9-20.9c-0.3,0-0.5,0-0.8,0.1
			c-0.2,0-0.5-0.1-0.8-0.1h-114.4c-5.8,0-10.5-4.7-10.5-10.5c0-5.8,4.7-10.5,10.5-10.5c0.4,0,0.8,0,1.1-0.1c0.4,0.1,0.7,0.1,1.1,0.1
			h57.1c14,0,25.3-11.4,25.3-25.3c0-14-11.4-25.3-25.3-25.3H996.2z M870.2,269l19.1,53.2c-9.3-4.4-22.6-9.3-34.9-9.3
			c-4.5,0-8.7,0.7-12.4,2c-10,3.6-20.7,9.4-32,15.5c-13.7,7.4-27.9,15-42.5,19.8c-11.3,3.7-25.8,5.8-39.8,5.8h0
			c-6.1,0-10.6-0.4-13.6-0.8c6.7-7.5,25-22.5,44.3-30.1c14.3-5.6,30.1-8.7,45.3-11.8c12.6-2.5,24.5-4.9,34.5-8.4
			C853.5,299.3,864.3,281.5,870.2,269z M919.7,242.4l24.7,68.7l-42.6,15.3l-24.7-68.7L919.7,242.4z M985.6,284.5
			c0.4,0.8,0.9,2.7,1.2,3.8c0.7,2.4,1.3,4.8,2.5,6.6l-35.2,12.7l-24.7-68.7l33.1-11.9c0.8,2.6,2.2,5.6,4.7,8.5
			c1.6,1.8,3.5,7.7,3.8,9.8c-1.3,5.4,0.9,11.5,5.7,15.7c0.9,1,2.8,4.7,2.8,6.1C978.2,272,980.9,281,985.6,284.5z M996.2,245.9h199.3
			c8.3,0,15,6.7,15,15c0,8.3-6.7,15-15,15h-57.1c-0.4,0-0.8,0-1.1,0.1c-0.4-0.1-0.7-0.1-1.1-0.1c-11.5,0-20.9,9.4-20.9,20.9
			c0,11.5,9.4,20.9,20.9,20.9h114.4c0.3,0,0.5,0,0.8-0.1c0.2,0,0.5,0.1,0.8,0.1c5.8,0,10.5,4.7,10.5,10.5c0,5.8-4.7,10.5-10.5,10.5
			H945.4c-4.7,0-9.5-7.1-10.3-13l61.8-22.2c1.6-0.6,2.8-1.9,3.2-3.5c0.9-3.1,0.8-7.7-2.1-10.7c-0.3-0.7-0.8-2.4-1.1-3.5
			c-1-3.7-2.1-7.5-5.1-9.5c-1-0.8-2.4-4.9-2.1-6.4c1.9-6.3-3.9-14.8-6-16.7c-0.1,0-0.1-0.1-0.2-0.2c0.1-0.1,0.3-0.3,0.4-0.5
			C986.6,248.4,991.3,245.9,996.2,245.9z"/>
		<path class="st0" d="M920.9,278.4c-0.6,0.2-1.2,0.3-1.8,0.3c-2.1,0-4.1-1.3-4.9-3.4l-6.6-18.2c-1-2.7,0.4-5.7,3.1-6.6
			c2.7-1,5.7,0.4,6.6,3.1l6.6,18.2C925,274.5,923.6,277.5,920.9,278.4z"/>
		<path class="st0" d="M750.1,347.8c0.9-1.8,0.9-3.9,0.3-5.7c-1.1-3-3.9-5-7.1-5c-0.9,0-1.7,0.1-2.5,0.4c-1.9,0.7-3.4,2.1-4.3,3.9
			c-0.9,1.8-1,3.9-0.3,5.7c1.1,3,3.9,5,7.1,5c0.9,0,1.7-0.1,2.6-0.4C747.8,351,749.3,349.6,750.1,347.8z M745.9,345.9
			c-0.3,0.7-0.9,1.2-1.6,1.5c-1.4,0.5-3.1-0.3-3.7-1.7c-0.3-0.7-0.2-1.5,0.1-2.2c0.3-0.7,0.9-1.2,1.6-1.5c0.3-0.1,0.6-0.2,1-0.2
			c1.2,0,2.3,0.8,2.7,1.9C746.3,344.4,746.3,345.2,745.9,345.9z"/>
		<path class="st0" d="M423.8,649v-6.7c27.2-2.6,48.6-25.4,49-53.1h8.1c2.9,0,5.2-2.3,5.2-5.2c0-2.9-2.3-5.2-5.2-5.2h-9
			c-4.2-23.7-23.9-42.2-48.2-44.5v-9.9c0-2.9-2.3-5.2-5.2-5.2c-2.9,0-5.2,2.3-5.2,5.2v9.9c-24.3,2.3-44,20.8-48.2,44.5h-10.7
			c-2.9,0-5.2,2.3-5.2,5.2c0,2.9,2.3,5.2,5.2,5.2h9.9c0.4,27.8,21.8,50.6,49,53.1v6.7c0,2.9,2.3,5.2,5.2,5.2
			C421.5,654.2,423.8,651.9,423.8,649z M374.7,589.1h12.7c0.4,15,11.5,27.4,25.9,29.8v12.9C391.9,629.3,375.2,611.2,374.7,589.1z
			 M413.4,557.6c-11.6,1.9-21,10.2-24.5,21.2h-13.2c4-18,19.1-31.9,37.7-34.1V557.6z M439.4,588.3c0,11.5-9.3,20.8-20.8,20.8
			c-11.5,0-20.8-9.3-20.8-20.8c0-11.5,9.3-20.8,20.8-20.8C430.1,567.5,439.4,576.8,439.4,588.3z M461.4,578.8h-13.2
			c-3.5-11-12.9-19.3-24.5-21.2v-12.9C442.4,546.9,457.4,560.8,461.4,578.8z M423.8,631.8V619c14.4-2.4,25.5-14.8,25.9-29.8h12.7
			C462,611.2,445.3,629.3,423.8,631.8z"/>
		<path class="st0" d="M1549.2,256c-0.5-2.8,1.3-5.5,4.1-6.1c0.2,0,1.9-0.4,4.6-0.6v10.4c-1.6,0.2-2.5,0.4-2.6,0.4
			C1552.5,260.6,1549.8,258.8,1549.2,256z"/>
		<path class="st0" d="M714.4,1108.5c0,2.9-2.3,5.2-5.2,5.2c-2.9,0-5.2-2.3-5.2-5.2c0-10.2,3.3-18.1,10-23.5
			c13.6-11.2,36.1-7,37-6.8c2.8,0.5,4.6,3.3,4.1,6.1c-0.5,2.8-3.3,4.6-6.1,4.1c-0.1,0-4-0.7-9.2-0.7c-6.1,0-13.9,1-19.2,5.4
			C716.4,1096.4,714.4,1101.5,714.4,1108.5z"/>
		<path class="st0" d="M417.7,505.2c-2.9,0-5.2-2.3-5.2-5.2v-34c0-2.9,2.3-5.2,5.2-5.2c2.9,0,5.2,2.3,5.2,5.2v34
			C422.9,502.8,420.6,505.2,417.7,505.2z"/>
		<path class="st0" d="M709.2,1124.8c2.9,0,5.2,2.3,5.2,5.2v34c0,2.9-2.3,5.2-5.2,5.2c-2.9,0-5.2-2.3-5.2-5.2v-34
			C704,1127.2,706.4,1124.8,709.2,1124.8z"/>
		<path class="st0" d="M589.3,805.7c-2.9,0-5.2-2.3-5.2-5.2v-34c0-2.9,2.3-5.2,5.2-5.2c2.9,0,5.2,2.3,5.2,5.2v34
			C594.5,803.4,592.2,805.7,589.3,805.7z"/>
		<path class="st0" d="M755.9,238.8c-2.9,0-5.2-2.3-5.2-5.2v-34c0-2.9,2.3-5.2,5.2-5.2c2.9,0,5.2,2.3,5.2,5.2v34
			C761,236.4,758.7,238.8,755.9,238.8z"/>
		<path class="st0" d="M1428.3,386.7c2.9,0,5.2,2.3,5.2,5.2c0,2.9-2.3,5.2-5.2,5.2h-34c-2.9,0-5.2-2.3-5.2-5.2
			c0-2.9,2.3-5.2,5.2-5.2H1428.3z"/>
		<path class="st0" d="M1365.8,397.1h-34c-2.9,0-5.2-2.3-5.2-5.2c0-2.9,2.3-5.2,5.2-5.2h34c2.9,0,5.2,2.3,5.2,5.2
			C1371,394.8,1368.7,397.1,1365.8,397.1z"/>
		<path class="st0" d="M1303.7,391.9c0,2.9-2.3,5.2-5.2,5.2h-34c-2.9,0-5.2-2.3-5.2-5.2c0-2.9,2.3-5.2,5.2-5.2h34
			C1301.3,386.7,1303.7,389,1303.7,391.9z"/>
		<path class="st0" d="M1235.3,386.7c2.9,0,5.2,2.3,5.2,5.2c0,2.9-2.3,5.2-5.2,5.2h-34c-2.9,0-5.2-2.3-5.2-5.2
			c0-2.9,2.3-5.2,5.2-5.2H1235.3z"/>
		<path class="st0" d="M1169.8,386.7c2.9,0,5.2,2.3,5.2,5.2c0,2.9-2.3,5.2-5.2,5.2h-34c-2.9,0-5.2-2.3-5.2-5.2
			c0-2.9,2.3-5.2,5.2-5.2H1169.8z"/>
		<path class="st0" d="M1102.5,386.7c2.9,0,5.2,2.3,5.2,5.2c0,2.9-2.3,5.2-5.2,5.2h-34c-2.9,0-5.2-2.3-5.2-5.2
			c0-2.9,2.3-5.2,5.2-5.2H1102.5z"/>
		<path class="st0" d="M1039.3,386.7c2.9,0,5.2,2.3,5.2,5.2c0,2.9-2.3,5.2-5.2,5.2h-34c-2.9,0-5.2-2.3-5.2-5.2
			c0-2.9,2.3-5.2,5.2-5.2H1039.3z"/>
		<path class="st0" d="M937.4,386.7h34c2.9,0,5.2,2.3,5.2,5.2c0,2.9-2.3,5.2-5.2,5.2h-34c-2.9,0-5.2-2.3-5.2-5.2
			C932.2,389,934.6,386.7,937.4,386.7z"/>
		<path class="st0" d="M748.1,998c2.9,0,5.2,2.3,5.2,5.2c0,2.9-2.3,5.2-5.2,5.2h-34c-2.9,0-5.2-2.3-5.2-5.2c0-2.9,2.3-5.2,5.2-5.2
			H748.1z"/>
		<path class="st0" d="M685.3,1008.3h-34c-2.9,0-5.2-2.3-5.2-5.2c0-2.9,2.3-5.2,5.2-5.2h34c2.9,0,5.2,2.3,5.2,5.2
			C690.5,1006,688.2,1008.3,685.3,1008.3z"/>
		<path class="st0" d="M639.8,858.5c0-2.9,2.3-5.2,5.2-5.2h34c2.9,0,5.2,2.3,5.2,5.2c0,2.9-2.3,5.2-5.2,5.2h-34
			C642.1,863.7,639.8,861.4,639.8,858.5z"/>
		<path class="st0" d="M621.7,1219.9h34c2.9,0,5.2,2.3,5.2,5.2c0,2.9-2.3,5.2-5.2,5.2h-34c-2.9,0-5.2-2.3-5.2-5.2
			C616.5,1222.2,618.9,1219.9,621.7,1219.9z"/>
		<path class="st0" d="M311.9,851.7c0,2.9-2.3,5.2-5.2,5.2h-34c-2.9,0-5.2-2.3-5.2-5.2c0-2.9,2.3-5.2,5.2-5.2h34
			C309.6,846.5,311.9,848.8,311.9,851.7z"/>
		<path class="st0" d="M280.7,582.8c0,2.9-2.3,5.2-5.2,5.2h-34c-2.9,0-5.2-2.3-5.2-5.2c0-2.9,2.3-5.2,5.2-5.2h34
			C278.3,577.6,280.7,580,280.7,582.8z"/>
		<path class="st0" d="M295.5,588c-2.9,0-5.2-2.3-5.2-5.2c0-2.9,2.3-5.2,5.2-5.2h34c2.9,0,5.2,2.3,5.2,5.2c0,2.9-2.3,5.2-5.2,5.2
			H295.5z"/>
		<path class="st0" d="M700.4,289.3c0,2.9-2.3,5.2-5.2,5.2h-34c-2.9,0-5.2-2.3-5.2-5.2c0-2.9,2.3-5.2,5.2-5.2h34
			C698,284.1,700.4,286.5,700.4,289.3z"/>
		<path class="st0" d="M245.9,856.8h-34c-2.9,0-5.2-2.3-5.2-5.2c0-2.9,2.3-5.2,5.2-5.2h34c2.9,0,5.2,2.3,5.2,5.2
			C251.1,854.5,248.8,856.8,245.9,856.8z"/>
		<path class="st0" d="M261,1097.1h-34c-2.9,0-5.2-2.3-5.2-5.2c0-2.9,2.3-5.2,5.2-5.2h34c2.9,0,5.2,2.3,5.2,5.2
			C266.2,1094.8,263.9,1097.1,261,1097.1z"/>
		<path class="st0" d="M207.2,1097.1h-34c-2.9,0-5.2-2.3-5.2-5.2c0-2.9,2.3-5.2,5.2-5.2h34c2.9,0,5.2,2.3,5.2,5.2
			C212.4,1094.8,210.1,1097.1,207.2,1097.1z"/>
		<path class="st0" d="M753.8,283.5c-6.4,7.8-16.2,11.7-29.4,11.7c-2.9,0-5.2-2.3-5.2-5.2c0-2.9,2.3-5.2,5.2-5.2
			c9.9,0,17-2.6,21.3-7.8c4.1-5.1,5-11.7,5-16.5c0-3.4-0.5-5.8-0.5-5.8c-0.6-2.8,1.2-5.5,4-6.1c2.8-0.6,5.5,1.2,6.1,4
			C760.6,253.3,764,270.9,753.8,283.5z"/>
		<path class="st0" d="M1455.9,394.6c-2.9,0-5.2-2.3-5.2-5.2c0-2.9,2.3-5.2,5.2-5.2c9.9,0,17-2.6,21.3-7.8c4.1-5.1,5-11.7,5-16.5
			c0-3.4-0.5-5.8-0.5-5.8c-0.6-2.8,1.2-5.5,4-6.1c2.8-0.6,5.5,1.2,6.1,4c0.2,0.7,3.6,18.4-6.6,30.9
			C1478.9,390.6,1469,394.6,1455.9,394.6z"/>
		<path class="st0" d="M675.7,1219c9.9,0.2,17.1-2.2,21.5-7.3c4.3-5,5.3-11.6,5.4-16.4c0.1-3.4-0.3-5.8-0.3-5.8
			c-0.5-2.8,1.4-5.5,4.2-6c2.8-0.5,5.5,1.4,6,4.2c0.1,0.7,3.1,18.4-7.4,30.7c-6.5,7.6-16.5,11.3-29.7,11c-2.8-0.1-5.1-2.5-5.1-5.3
			C670.4,1221.2,672.8,1219,675.7,1219z"/>
		<path class="st0" d="M148.8,1085.1c2.9,0,5.2,2.3,5.2,5.2c0,2.9-2.3,5.2-5.2,5.2c-13.1,0-23-3.9-29.4-11.7
			c-10.2-12.5-6.8-30.2-6.6-30.9c0.6-2.8,3.3-4.6,6.1-4c2.8,0.6,4.6,3.3,4.1,6.1c0,0.2-2.6,13.7,4.5,22.3
			C131.8,1082.4,139,1085.1,148.8,1085.1z"/>
		<path class="st0" d="M911.9,386.8c2.9,0,5.2,2.3,5.2,5.2c0,2.9-2.3,5.2-5.2,5.2c-13.1,0-23-3.9-29.4-11.7
			c-10.2-12.5-6.8-30.2-6.6-30.9c0.6-2.8,3.3-4.6,6.1-4c2.8,0.6,4.6,3.3,4.1,6.1c0,0.2-2.6,13.7,4.5,22.3
			C894.9,384.2,902.1,386.8,911.9,386.8z"/>
		<path class="st0" d="M620.6,853.1c2.9,0,5.2,2.3,5.2,5.2c0,2.9-2.3,5.2-5.2,5.2c-13.1,0-23-3.9-29.4-11.7
			c-10.2-12.5-6.8-30.2-6.6-30.9c0.6-2.8,3.3-4.6,6.1-4c2.8,0.6,4.6,3.3,4.1,6.1c0,0.2-2.6,13.7,4.5,22.3
			C603.6,850.5,610.7,853.1,620.6,853.1z"/>
		<path class="st0" d="M705.1,957.1h66.1v166c0,2.9,2.3,5.2,5.2,5.2h33.7c2.9,0,5.2-2.3,5.2-5.2V1041h73v18.1c0,0,0,0,0,0
			c0,0,0,0,0,0v150.5c0,6.6,5.4,12,12,12h657.5v-10.4H910.7c-6.6,0-12-5.4-12-12v-116.7c7.4,8.4,17.6,14.5,26.9,14.5h500.9
			c17.2,0,31.3-14,31.3-31.3c0-17.2-14-31.3-31.3-31.3c-0.4,0-0.9,0.1-1.3,0.2c-0.4-0.1-0.8-0.2-1.3-0.2h-190.1
			c-11.5,0-20.9-9.4-20.9-20.9c0-11.5,9.4-20.9,20.9-20.9c0.7,0,1.3-0.1,1.9-0.4c0.6,0.2,1.2,0.4,1.9,0.4h95
			c21.3,0,38.7-17.4,38.7-38.7c0-21.3-17.4-38.7-38.7-38.7h-192.2c-10.9,0-20.5-10.2-20.5-21.9c0-11.3,9.2-20.5,20.5-20.5
			c0,0,0,0,0,0c0,0,0,0,0,0h167.7c15.4,0,27.9-11.6,27.9-26c0-14.3-12.5-26-27.9-26h-32.4c-0.3,0-0.5,0-0.8,0.1c-0.1,0-0.1,0-0.2,0
			c-9.7,0-17.5-7.9-17.5-17.5c0-9.7,7.9-17.5,17.5-17.5h201c9.7,0,17.5,7.9,17.5,17.5c0,9.7-7.9,17.5-17.5,17.5
			c-0.3,0-0.6,0-0.8,0.1c-0.3,0-0.5-0.1-0.8-0.1h-59.2c-0.1,0-0.2,0-0.3,0c-0.3,0-0.6-0.1-0.9-0.1c-15.4,0-27.9,11.6-27.9,26
			c0,14.3,12.5,26,27.9,26h144.2v-10.4h-144.2c-9.7,0-17.5-7-17.5-15.6s7.9-15.6,17.5-15.6c0.1,0,0.2,0,0.3,0c0.3,0,0.6,0.1,0.9,0.1
			h59.2c0.3,0,0.6,0,0.8-0.1c0.3,0,0.5,0.1,0.8,0.1c15.4,0,27.9-12.5,27.9-27.9c0-15.4-12.5-27.9-27.9-27.9h-201
			c-15.4,0-27.9,12.5-27.9,27.9c0,15.4,12.5,27.9,27.9,27.9c0.3,0,0.5,0,0.8-0.1c0.1,0,0.1,0,0.2,0h32.4c9.7,0,17.5,7,17.5,15.6
			s-7.9,15.6-17.5,15.6h-167.7c0,0,0,0,0,0c0,0,0,0,0,0c-17,0-30.9,13.9-30.9,30.9c0,8.4,3.3,16.1,8.5,21.9H898.8V789.2
			c3.1-37.8,11-111.9,20.1-134.6h97.9c1.7,2.7,2.6,5.9,2.6,9.1c0,9.7-7.9,17.6-17.6,17.6h-33.5c-0.2,0-0.4,0-0.6,0.1
			c-0.2,0-0.4-0.1-0.6-0.1c-15.4,0-28,12.6-28,28c0,15.4,12.6,28,28,28h236.2c0.2,0,0.4,0,0.6-0.1c0.2,0,0.4,0.1,0.6,0.1
			c15.4,0,28-12.6,28-28c0-15.4-12.6-28-28-28c-0.2,0-0.4,0-0.6,0.1c-0.2,0-0.4-0.1-0.6-0.1h-24.6c-9.5,0-17.6-8.4-17.6-18.4
			c0-2.9,0.8-5.8,2.1-8.3h394.5v-10.4H897c-2.9,0-5.2,2.3-5.2,5.2v3.9H736.7v-81.7h130.1c0,0,0,0,0,0h691.1v-10.4h-684l13-39.8
			h670.9v-10.4H935.1V429h622.8v-10.4H851.2v-0.9c0-2.9-2.3-5.2-5.2-5.2h-25.9c-29.7,0-39.5,20.6-40.6,31.5c0,0.2,0,0.3,0,0.5v67.4
			c-13.2,2.8-50.5,14.2-53,53.3c-0.1,0.4-0.1,0.8-0.1,1.2v89.2l-10.5,28.3c0,0.1-0.1,0.2-0.1,0.4c0,0.2-0.1,0.3-0.1,0.5
			c0,0.2,0,0.4,0,0.6c0,0.1,0,0.2,0,0.3v67.8c0,2.9,2.3,5.2,5.2,5.2h2.6v45.4h-18.2c-2.9,0-5.2,2.3-5.2,5.2v142.6
			C699.9,954.8,702.3,957.1,705.1,957.1z M840.8,511.1h-51v-66.3c0.4-3,3.9-21.9,30.2-21.9h20.7V511.1z M897.9,429h26.8v82.1h-26.8
			V429z M851.2,511.1V429h36.3v82.1H851.2z M737.4,561.2c5.4-33.5,43.6-39.3,47.6-39.8H876l-13,39.8H737.4z M1029.8,663.7
			c0-3.1-0.5-6.2-1.5-9.1h123.9c-0.8,2.7-1.3,5.5-1.3,8.3c0,0.2,0,0.4,0,0.5c0,0.1,0,0.2,0,0.3c0,15.4,12.6,28,28,28h24.6
			c0.2,0,0.4,0,0.6-0.1c0.2,0,0.4,0.1,0.6,0.1c9.7,0,17.6,7.9,17.6,17.6c0,9.7-7.9,17.6-17.6,17.6c-0.2,0-0.4,0-0.6,0.1
			c-0.2,0-0.4-0.1-0.6-0.1H967.2c-9.7,0-17.6-7.9-17.6-17.6c0-9.7,7.9-17.6,17.6-17.6c0.2,0,0.4,0,0.6-0.1c0.2,0,0.4,0.1,0.6,0.1
			h33.5C1017.2,691.7,1029.8,679.1,1029.8,663.7z M898.8,925.8h433.8c15.6,0,28.3,12.7,28.3,28.3c0,15.6-12.7,28.3-28.3,28.3h-95
			c-0.7,0-1.3,0.1-1.9,0.4c-0.6-0.2-1.2-0.4-1.9-0.4c-17.2,0-31.3,14-31.3,31.3c0,17.2,14,31.3,31.3,31.3H1424
			c0.4,0,0.9-0.1,1.3-0.2c0.4,0.1,0.8,0.2,1.3,0.2c11.5,0,20.9,9.4,20.9,20.9c0,11.5-9.4,20.9-20.9,20.9H925.7
			c-11.3,0-26.9-16-26.9-27.7c0,0,0,0,0,0V925.8z M901.7,680.5H728.2l6.3-16.9H897c2.9,0,5.2-2.3,5.2-5.2v-3.9h5.7
			C905.7,661.3,903.6,670.3,901.7,680.5z M888.4,748.4H725.9v-57.5h174c-3.2,19.2-5.9,41-7.8,59C891.2,749,889.9,748.4,888.4,748.4z
			 M815.4,980.2h73v50.3h-73V980.2z M815.4,957.1h73v12.8h-73V957.1z M781.6,957.1H805v160.8h-23.3V957.1z M710.3,864.6h13v63.5
			c0,2.9,2.3,5.2,5.2,5.2h23.3c2.9,0,5.2-2.3,5.2-5.2v-63.5h5.6v63.5c0,2.9,2.3,5.2,5.2,5.2h23.3c2.9,0,5.2-2.3,5.2-5.2v-63.5h6.5
			v63.5c0,2.9,2.3,5.2,5.2,5.2h23.3c2.9,0,5.2-2.3,5.2-5.2v-63.5h5.6v63.5c0,2.9,2.3,5.2,5.2,5.2h23.3c2.9,0,5.2-2.3,5.2-5.2v-63.5
			h12.6v82.1H710.3V864.6z M852.5,923v-58.4h13V923H852.5z M813.2,923v-58.4h13V923H813.2z M773,923v-58.4h13V923H773z M733.7,923
			v-58.4h13V923H733.7z M710.3,845.2h178.1v9.1H710.3V845.2z M842.2,831.8v-37.6h13v37.6H842.2z M802.8,831.8v-37.6h13v37.6H802.8z
			 M762.6,831.8v-37.6h13v37.6H762.6z M710.3,814.5h18.1c2.9,0,5.2-2.3,5.2-5.2v-50.6h154.7c1.1,0,2.1-0.3,2.9-0.9
			c-1.7,16.9-2.7,29.2-2.9,30.7c0,0.1,0,0.3,0,0.4v45.8h-22.9V789c0-2.9-2.3-5.2-5.2-5.2h-23.3c-2.9,0-5.2,2.3-5.2,5.2v45.8h-5.6
			V789c0-2.9-2.3-5.2-5.2-5.2h-23.3c-2.9,0-5.2,2.3-5.2,5.2v45.8H786V789c0-2.9-2.3-5.2-5.2-5.2h-23.3c-2.9,0-5.2,2.3-5.2,5.2v45.8
			h-41.9V814.5z"/>
	</g>
</g>
</svg>
