<?xml version="1.0" encoding="utf-8"?>
<!-- Generator: Adobe Illustrator 23.0.5, SVG Export Plug-In . SVG Version: 6.00 Build 0)  -->
<svg version="1.1" id="Layer_1" xmlns="http://www.w3.org/2000/svg" xmlns:xlink="http://www.w3.org/1999/xlink" x="0px" y="0px"
	 viewBox="0 0 500 342.5" style="enable-background:new 0 0 500 342.5;" xml:space="preserve">
<style type="text/css">
	.st0{opacity:0.2;fill:#6FB274;}
</style>
<path class="st0" d="M358.7,332.9c-2.6,0-4.8,2.1-4.8,4.8c0,2.6,2.1,4.8,4.8,4.8c2.6,0,4.8-2.1,4.8-4.8
	C363.4,335.1,361.3,332.9,358.7,332.9z M358.7,339.6c-1.1,0-1.9-0.9-1.9-1.9c0-1.1,0.9-1.9,1.9-1.9c1.1,0,1.9,0.9,1.9,1.9
	C360.6,338.8,359.7,339.6,358.7,339.6z"/>
<path class="st0" d="M7.2,13.4c0.8,0,1.4-0.6,1.4-1.4s-0.6-1.4-1.4-1.4H0v2.8H7.2z"/>
<path class="st0" d="M0.5,19.2h6.7c0.8,0,1.4-0.6,1.4-1.4s-0.6-1.4-1.4-1.4H0.5c-0.2,0-0.3,0.1-0.5,0.2V19
	C0.2,19.1,0.3,19.2,0.5,19.2z"/>
<path class="st0" d="M7.2,29.7c0.8,0,1.4-0.6,1.4-1.4s-0.6-1.4-1.4-1.4H0v2.8H7.2z"/>
<path class="st0" d="M0.5,35.5h6.7c0.8,0,1.4-0.6,1.4-1.4c0-0.8-0.6-1.4-1.4-1.4H0.5c-0.2,0-0.3,0.1-0.5,0.2v2.4
	C0.2,35.4,0.3,35.5,0.5,35.5z"/>
<path class="st0" d="M5.2,90.7c0.8,0,1.4-0.6,1.4-1.4c0-0.8-0.6-1.4-1.4-1.4H0v2.8H5.2z"/>
<g>
	<path class="st0" d="M130.2,22h2.6v3.5c0,0.7,0.6,1.3,1.3,1.3c0.7,0,1.3-0.6,1.3-1.3V22h2.6c0.7,0,1.3-0.6,1.3-1.3
		c0-0.7-0.6-1.3-1.3-1.3h-2.6V16c0-0.7-0.6-1.3-1.3-1.3c-0.7,0-1.3,0.6-1.3,1.3v3.4h-2.6c-0.7,0-1.3,0.6-1.3,1.3
		C128.9,21.5,129.5,22,130.2,22z"/>
	<path class="st0" d="M217.2,33.1c0.2,0.4,0.6,0.6,1.1,0.6c0,0,0,0,0.1,0c0.5,0,0.9-0.3,1.1-0.7l3.2-6.5c0.3-0.6,0-1.4-0.6-1.7
		c-0.6-0.3-1.4,0-1.7,0.6l-2.2,4.4l-1.1-1.7c-0.4-0.6-1.2-0.8-1.8-0.4c-0.6,0.4-0.8,1.2-0.4,1.8L217.2,33.1z"/>
	<path class="st0" d="M217.2,47.7c0.2,0.4,0.6,0.6,1.1,0.6c0,0,0,0,0.1,0c0.5,0,0.9-0.3,1.1-0.7l3.2-6.5c0.3-0.6,0-1.4-0.6-1.7
		c-0.6-0.3-1.4,0-1.7,0.6l-2.2,4.4l-1.1-1.7c-0.4-0.6-1.2-0.8-1.8-0.4c-0.6,0.4-0.8,1.2-0.4,1.8L217.2,47.7z"/>
	<path class="st0" d="M227,27.5h12.1c0.7,0,1.3-0.6,1.3-1.3c0-0.7-0.6-1.3-1.3-1.3H227c-0.7,0-1.3,0.6-1.3,1.3
		C225.7,27,226.3,27.5,227,27.5z"/>
	<path class="st0" d="M243.1,27.5h6c0.7,0,1.3-0.6,1.3-1.3c0-0.7-0.6-1.3-1.3-1.3h-6c-0.7,0-1.3,0.6-1.3,1.3
		C241.8,27,242.4,27.5,243.1,27.5z"/>
	<path class="st0" d="M227,32.8h6c0.7,0,1.3-0.6,1.3-1.3s-0.6-1.3-1.3-1.3h-6c-0.7,0-1.3,0.6-1.3,1.3S226.3,32.8,227,32.8z"/>
	<path class="st0" d="M236.1,31.8c0,0.7,0.6,1.3,1.3,1.3h18.2c0.7,0,1.3-0.6,1.3-1.3c0-0.7-0.6-1.3-1.3-1.3h-18.2
		C236.7,30.5,236.1,31.1,236.1,31.8z"/>
	<path class="st0" d="M227,42.3h16.7c0.7,0,1.3-0.6,1.3-1.3s-0.6-1.3-1.3-1.3H227c-0.7,0-1.3,0.6-1.3,1.3S226.3,42.3,227,42.3z"/>
	<path class="st0" d="M251.3,42.3c0.7,0,1.3-0.6,1.3-1.3s-0.6-1.3-1.3-1.3H248c-0.7,0-1.3,0.6-1.3,1.3s0.6,1.3,1.3,1.3H251.3z"/>
	<path class="st0" d="M227,47.6h6c0.7,0,1.3-0.6,1.3-1.3c0-0.7-0.6-1.3-1.3-1.3h-6c-0.7,0-1.3,0.6-1.3,1.3
		C225.7,47,226.3,47.6,227,47.6z"/>
	<path class="st0" d="M236.1,46.6c0,0.7,0.6,1.3,1.3,1.3h10.4c0.7,0,1.3-0.6,1.3-1.3s-0.6-1.3-1.3-1.3h-10.4
		C236.7,45.3,236.1,45.9,236.1,46.6z"/>
	<path class="st0" d="M325.6,115c0.7,0,1.3-0.6,1.3-1.3v-3.5h2.6c0.7,0,1.3-0.6,1.3-1.3c0-0.7-0.6-1.3-1.3-1.3h-2.6v-3.4
		c0-0.7-0.6-1.3-1.3-1.3c-0.7,0-1.3,0.6-1.3,1.3v3.4h-2.6c-0.7,0-1.3,0.6-1.3,1.3c0,0.7,0.6,1.3,1.3,1.3h2.6v3.5
		C324.3,114.4,324.9,115,325.6,115z"/>
	<path class="st0" d="M448,186.6h-2.6v-3.4c0-0.7-0.6-1.3-1.3-1.3c-0.7,0-1.3,0.6-1.3,1.3v3.4h-2.6c-0.7,0-1.3,0.6-1.3,1.3
		c0,0.7,0.6,1.3,1.3,1.3h2.6v3.5c0,0.7,0.6,1.3,1.3,1.3c0.7,0,1.3-0.6,1.3-1.3v-3.5h2.6c0.7,0,1.3-0.6,1.3-1.3
		C449.3,187.2,448.7,186.6,448,186.6z"/>
	<path class="st0" d="M448,253.7c0-2.4-1.9-4.3-4.3-4.3c-2.4,0-4.3,1.9-4.3,4.3c0,2.4,1.9,4.3,4.3,4.3
		C446.1,258,448,256.1,448,253.7z M443.7,255.4c-1,0-1.8-0.8-1.8-1.8c0-1,0.8-1.8,1.8-1.8c1,0,1.8,0.8,1.8,1.8
		C445.5,254.7,444.7,255.4,443.7,255.4z"/>
	<path class="st0" d="M436.4,125.5c2.4,0,4.3-1.9,4.3-4.3c0-2.4-1.9-4.3-4.3-4.3c-2.4,0-4.3,1.9-4.3,4.3
		C432.1,123.5,434,125.5,436.4,125.5z M436.4,119.4c1,0,1.8,0.8,1.8,1.8c0,1-0.8,1.8-1.8,1.8c-1,0-1.8-0.8-1.8-1.8
		C434.6,120.2,435.4,119.4,436.4,119.4z"/>
	<path class="st0" d="M191.2,59.6c0-2.4-1.9-4.3-4.3-4.3c-2.4,0-4.3,1.9-4.3,4.3c0,2.4,1.9,4.3,4.3,4.3
		C189.3,63.9,191.2,61.9,191.2,59.6z M185.2,59.6c0-1,0.8-1.8,1.8-1.8c1,0,1.8,0.8,1.8,1.8c0,1-0.8,1.8-1.8,1.8
		C186,61.3,185.2,60.5,185.2,59.6z"/>
	<path class="st0" d="M380.4,212.2c0.2,0.2,0.5,0.3,0.8,0.3c0.4,0,0.7-0.2,1-0.5l3.7-4.4c0.4-0.5,0.4-1.2,0-1.7l-3.7-4.4
		c-0.5-0.5-1.3-0.6-1.8-0.1c-0.5,0.5-0.6,1.3-0.1,1.8l3,3.6l-3,3.6C379.7,210.9,379.8,211.7,380.4,212.2z"/>
	<path class="st0" d="M386.9,212.2c0.2,0.2,0.5,0.3,0.8,0.3c0.4,0,0.7-0.2,1-0.5l3.7-4.4c0.4-0.5,0.4-1.2,0-1.7l-3.7-4.4
		c-0.5-0.5-1.3-0.6-1.8-0.1c-0.5,0.5-0.6,1.3-0.1,1.8l3,3.6l-3,3.6C386.3,210.9,386.4,211.7,386.9,212.2z"/>
	<path class="st0" d="M398.4,229.4l12.7,3.4c0.1,0,0.2,0,0.3,0c0.2,0,0.4-0.1,0.6-0.2c0.3-0.2,0.5-0.4,0.6-0.8l8.6-32c0,0,0,0,0,0
		c0,0,0,0,0,0l2.5-9.3c0,0,0,0,0,0c0,0,0,0,0,0l5.9-22.1c0.2-0.7-0.2-1.4-0.9-1.6l-12.7-3.4c-0.7-0.2-1.4,0.2-1.6,0.9l-16.9,63.3
		C397.3,228.5,397.7,229.2,398.4,229.4z M416.6,166.4l10.2,2.7l-0.4,1.6l-2.2-0.6c-0.7-0.2-1.4,0.2-1.6,0.9
		c-0.2,0.7,0.2,1.4,0.9,1.6l2.2,0.6l-0.4,1.6l-5.1-1.4c-0.7-0.2-1.4,0.2-1.6,0.9c-0.2,0.7,0.2,1.4,0.9,1.6l5.1,1.4l-0.6,2.2
		l-2.2-0.6c-0.7-0.2-1.4,0.2-1.6,0.9c-0.2,0.7,0.2,1.4,0.9,1.6l2.2,0.6l-0.6,2.2l-5.1-1.4c-0.7-0.2-1.4,0.2-1.6,0.9
		c-0.2,0.7,0.2,1.4,0.9,1.6l5.1,1.4l-0.6,2.2l-2.2-0.6c-0.7-0.2-1.4,0.2-1.6,0.9c-0.2,0.7,0.2,1.4,0.9,1.6l2.2,0.6l-0.6,2.2
		l-5.1-1.4c-0.7-0.2-1.4,0.2-1.6,0.9c-0.2,0.7,0.2,1.4,0.9,1.6l5.1,1.4l-0.6,2.2l-2.2-0.6c-0.7-0.2-1.4,0.2-1.6,0.9
		c-0.2,0.7,0.2,1.4,0.9,1.6l2.2,0.6l-0.6,2.2l-5.1-1.4c-0.7-0.2-1.4,0.2-1.6,0.9c-0.2,0.7,0.2,1.4,0.9,1.6l5.1,1.4l-0.6,2.2
		l-2.2-0.6c-0.7-0.2-1.4,0.2-1.6,0.9c-0.2,0.7,0.2,1.4,0.9,1.6l2.2,0.6l-0.6,2.2l-5.1-1.4c-0.7-0.2-1.4,0.2-1.6,0.9
		c-0.2,0.7,0.2,1.4,0.9,1.6l5.1,1.4l-0.6,2.2l-2.2-0.6c-0.7-0.2-1.4,0.2-1.6,0.9c-0.2,0.7,0.2,1.4,0.9,1.6l2.2,0.6l-0.6,2.2
		l-5.1-1.4c-0.7-0.2-1.4,0.2-1.6,0.9c-0.2,0.7,0.2,1.4,0.9,1.6l5.1,1.4l-0.6,2.2l-2.2-0.6c-0.7-0.2-1.4,0.2-1.6,0.9
		c-0.2,0.7,0.2,1.4,0.9,1.6l2.2,0.6l-0.4,1.6l-10.2-2.7L416.6,166.4z"/>
	<path class="st0" d="M283.6,39.7c0.1,0,0.2,0,0.3,0l22.2-5.1c0.7-0.2,1.1-0.8,1-1.5l-3.7-16c-0.1-0.3-0.3-0.6-0.6-0.8
		c-0.3-0.2-0.6-0.2-1-0.2l-22.2,5.1c-0.7,0.2-1.1,0.8-1,1.5l3.7,16c0.1,0.3,0.3,0.6,0.6,0.8C283.1,39.6,283.3,39.7,283.6,39.7z
		 M281.4,23.4l19.8-4.5l3.1,13.5l-19.8,4.5L281.4,23.4z"/>
	<path class="st0" d="M281,51c0.2,0.1,0.4,0.2,0.7,0.2c0.1,0,0.2,0,0.3,0l30.8-7.1c0.7-0.2,1.1-0.8,1-1.5l-1.6-6.9l13.2,1.2
		c0,0,0.1,0,0.1,0c0.3,0,0.6-0.1,0.8-0.3c0.3-0.2,0.4-0.5,0.5-0.9l2.8-31.5c0.1-0.7-0.5-1.3-1.2-1.4L296.9,0c-0.3,0-0.7,0.1-0.9,0.3
		c-0.3,0.2-0.4,0.5-0.5,0.9l-1.1,12.1l-20.1,4.6c-0.7,0.2-1.1,0.8-1,1.5l7.1,30.8C280.5,50.5,280.8,50.8,281,51z M297.9,2.7l29,2.6
		l-2.6,29L311.6,33l-1.9-8.4l12.3,1.1c0,0,0.1,0,0.1,0c0.7,0,1.2-0.5,1.3-1.2l1.4-16.4c0.1-0.7-0.5-1.3-1.2-1.4l-22.7-2
		c-0.7-0.1-1.3,0.5-1.4,1.2l-0.6,6.3l-1.9,0.4L297.9,2.7z M309,22l-2.4-10.2c-0.1-0.3-0.3-0.6-0.6-0.8c-0.3-0.2-0.6-0.2-1-0.2
		l-3.6,0.8l0.4-4.2l20.2,1.8L320.9,23L309,22z M304.5,13.6l6.5,28.3l-28.3,6.5l-6.5-28.3L304.5,13.6z"/>
	<path class="st0" d="M498.7,193.7h-35.5c-0.7,0-1.3,0.6-1.3,1.3v3.5h-3.9c-0.7,0-1.3,0.6-1.3,1.3v3.2h-3.2c-0.7,0-1.3,0.6-1.3,1.3
		v49.2c0,0.7,0.6,1.3,1.3,1.3h35.5c0.7,0,1.3-0.6,1.3-1.3v-3.2h3.2c0.7,0,1.3-0.6,1.3-1.3v-3.5h3.9c0.7,0,1.3-0.6,1.3-1.3V195
		C500,194.3,499.4,193.7,498.7,193.7z M487.8,252.2h-32.9v-46.7h32.9V252.2z M492.3,247.7h-1.9v-43.4c0-0.7-0.6-1.3-1.3-1.3h-29.7
		v-2h32.9V247.7z M497.4,243h-2.6v-43.2c0-0.7-0.6-1.3-1.3-1.3h-29v-2.2h32.9V243z"/>
	<path class="st0" d="M459.1,220.3h11.6c0.7,0,1.3-0.6,1.3-1.3s-0.6-1.3-1.3-1.3h-11.6c-0.7,0-1.3,0.6-1.3,1.3
		S458.4,220.3,459.1,220.3z"/>
	<path class="st0" d="M474.6,220.3h3.2c0.7,0,1.3-0.6,1.3-1.3s-0.6-1.3-1.3-1.3h-3.2c-0.7,0-1.3,0.6-1.3,1.3
		S473.9,220.3,474.6,220.3z"/>
	<path class="st0" d="M459.1,225.1h7.1c0.7,0,1.3-0.6,1.3-1.3c0-0.7-0.6-1.3-1.3-1.3h-7.1c-0.7,0-1.3,0.6-1.3,1.3
		C457.8,224.5,458.4,225.1,459.1,225.1z"/>
	<path class="st0" d="M459.1,232.4h14.2c0.7,0,1.3-0.6,1.3-1.3c0-0.7-0.6-1.3-1.3-1.3h-14.2c-0.7,0-1.3,0.6-1.3,1.3
		C457.8,231.8,458.4,232.4,459.1,232.4z"/>
	<path class="st0" d="M459.1,237.3h6c0.7,0,1.3-0.6,1.3-1.3c0-0.7-0.6-1.3-1.3-1.3h-6c-0.7,0-1.3,0.6-1.3,1.3
		C457.8,236.8,458.4,237.3,459.1,237.3z"/>
	<path class="st0" d="M459.1,245.3h12.3c0.7,0,1.3-0.6,1.3-1.3c0-0.7-0.6-1.3-1.3-1.3h-12.3c-0.7,0-1.3,0.6-1.3,1.3
		C457.8,244.8,458.4,245.3,459.1,245.3z"/>
	<path class="st0" d="M475.8,242.8c-0.7,0-1.3,0.6-1.3,1.3c0,0.7,0.6,1.3,1.3,1.3h4.4c0.7,0,1.3-0.6,1.3-1.3c0-0.7-0.6-1.3-1.3-1.3
		H475.8z"/>
	<path class="st0" d="M467.7,236.1c0,0.7,0.6,1.3,1.3,1.3h10.5c0.7,0,1.3-0.6,1.3-1.3c0-0.7-0.6-1.3-1.3-1.3H469
		C468.3,234.8,467.7,235.4,467.7,236.1z"/>
	<path class="st0" d="M424.3,235.4h19.8c0.7,0,1.3-0.6,1.3-1.3v-11.5c0,0,0,0,0,0c0,0,0-0.1,0-0.1c0,0,0-0.1,0-0.1c0,0,0-0.1,0-0.1
		c0,0,0-0.1,0-0.1c0,0,0-0.1-0.1-0.1c0,0,0-0.1-0.1-0.1c0,0,0,0,0,0c0,0,0,0-0.1-0.1c0,0-0.1-0.1-0.1-0.1c0,0-0.1-0.1-0.1-0.1
		c0,0-0.1,0-0.1-0.1c0,0-0.1,0-0.1-0.1c0,0-0.1,0-0.1-0.1c0,0-0.1,0-0.1,0c0,0-0.1,0-0.1,0c0,0-0.1,0-0.1,0c0,0-0.1,0-0.1,0h-19.8
		c0,0-0.1,0-0.1,0c0,0-0.1,0-0.1,0c0,0-0.1,0-0.1,0c0,0-0.1,0-0.1,0c0,0-0.1,0-0.1,0c0,0-0.1,0-0.1,0.1c0,0-0.1,0-0.1,0.1
		c0,0-0.1,0.1-0.1,0.1c0,0-0.1,0.1-0.1,0.1c0,0,0,0-0.1,0.1c0,0,0,0,0,0c0,0,0,0.1-0.1,0.1c0,0,0,0.1-0.1,0.1c0,0,0,0.1,0,0.1
		c0,0,0,0.1,0,0.1c0,0,0,0.1,0,0.1c0,0,0,0.1,0,0.1c0,0,0,0,0,0v11.5C423,234.8,423.6,235.4,424.3,235.4z M440.3,223.9l-6.1,4.6
		l-6.1-4.6H440.3z M425.5,225.1l7.9,6c0.2,0.2,0.5,0.3,0.8,0.3c0.3,0,0.5-0.1,0.8-0.3l7.9-6v7.7h-17.3V225.1z"/>
	<path class="st0" d="M351.7,135.7c0.6,0.2,1.2,0.3,1.8,0.3c2.8,0,5.3-1.9,6.1-4.6c0.5-1.6,0.3-3.4-0.5-4.9
		c-0.8-1.5-2.2-2.6-3.8-3.1c-0.6-0.2-1.2-0.3-1.8-0.3c-2.8,0-5.3,1.9-6.1,4.6c-0.5,1.6-0.3,3.4,0.5,4.9
		C348.7,134.1,350.1,135.2,351.7,135.7z M349.8,128.4c0.5-1.6,2-2.8,3.7-2.8c0.4,0,0.7,0.1,1.1,0.2c1,0.3,1.8,1,2.3,1.9
		c0.5,0.9,0.6,2,0.3,2.9c-0.5,1.6-2,2.8-3.7,2.8c-0.4,0-0.7-0.1-1.1-0.2c-1-0.3-1.8-1-2.3-1.9C349.6,130.5,349.5,129.4,349.8,128.4z
		"/>
	<path class="st0" d="M339.6,119.8c-0.7-0.2-1.4,0.2-1.6,0.9l-1.9,6.5c-0.2,0.7,0.2,1.4,0.9,1.6l3.6,1.1c0,0.3,0,0.6,0.1,0.9
		l-3.3,1.6c-0.3,0.1-0.5,0.4-0.6,0.7c-0.1,0.3-0.1,0.7,0.1,1l3,6.1c0.2,0.5,0.7,0.7,1.1,0.7c0.2,0,0.4,0,0.6-0.1l3.3-1.6
		c0.2,0.2,0.5,0.4,0.7,0.6l-1.1,3.7c-0.2,0.7,0.2,1.4,0.9,1.6l3.3,1l0,0l3.2,0.9c0.1,0,0.2,0.1,0.4,0.1c0.2,0,0.4-0.1,0.6-0.2
		c0.3-0.2,0.5-0.4,0.6-0.8l1.1-3.7c0.3,0,0.6-0.1,0.9-0.1l1.9,3.2c0.2,0.3,0.5,0.5,0.8,0.6c0.1,0,0.2,0,0.3,0c0.2,0,0.5-0.1,0.7-0.2
		l5.9-3.5c0.6-0.4,0.8-1.1,0.4-1.7l-1.9-3.1c0.2-0.2,0.4-0.5,0.6-0.7l3.6,1.1c0.1,0,0.2,0.1,0.4,0.1c0.5,0,1.1-0.4,1.2-0.9l1.9-6.5
		c0.1-0.3,0.1-0.7-0.1-1s-0.4-0.5-0.8-0.6l-4.1-1.2c0-0.1,0-0.2-0.1-0.4l3.2-1.8c0.3-0.2,0.5-0.4,0.6-0.8c0.1-0.3,0-0.7-0.1-1
		l-3.4-5.9c-0.4-0.6-1.1-0.8-1.7-0.5l-3.2,1.9c0,0,0,0,0,0l1-3.4c0.2-0.7-0.2-1.4-0.9-1.6l-3.3-1l-3.2-0.9c-0.7-0.2-1.4,0.2-1.6,0.9
		l-1,3.4c0,0,0,0,0,0l-1.7-3.3c-0.2-0.3-0.4-0.5-0.7-0.6c-0.3-0.1-0.7-0.1-1,0.1l-6.1,3.1c-0.3,0.2-0.5,0.4-0.6,0.7
		c-0.1,0.3-0.1,0.7,0.1,1l1.7,3.3c-0.1,0.1-0.2,0.2-0.3,0.3L339.6,119.8z M343.7,123.7L343.7,123.7c0.1,0,0.2,0.1,0.4,0.1
		c0,0,0,0,0,0c0,0,0,0,0.1,0c0.1,0,0.1,0,0.2,0c0,0,0.1,0,0.1,0c0.1,0,0.1,0,0.2-0.1c0,0,0.1,0,0.1,0c0.1,0,0.2-0.1,0.2-0.1
		c0,0,0,0,0,0c0.1-0.1,0.1-0.1,0.2-0.2c0,0,0,0,0,0c0.4-0.5,0.7-0.8,1.1-1.2c0.4-0.3,0.5-0.9,0.3-1.3c0-0.2,0-0.4-0.1-0.5l-1.4-2.7
		l3.8-1.9l1.3,2.6c0,0.1,0.1,0.1,0.1,0.2c0.2,0.6,0.7,0.9,1.2,0.9c0.1,0,0.2,0,0.2,0c0.5-0.1,0.9-0.1,1.5-0.1c0.6,0,1.1-0.5,1.2-1.1
		c0,0,0-0.1,0-0.1l0.8-2.8l2,0.6c0,0,0,0,0,0l1.9,0.6l-0.8,2.8c0,0,0,0.1,0,0.1c-0.2,0.6-0.1,1.2,0.4,1.6c0.5,0.3,0.8,0.6,1.2,0.9
		c0.2,0.2,0.6,0.4,0.9,0.4c0.3,0,0.6-0.1,0.8-0.3c0.1,0,0.1,0,0.2-0.1l2.5-1.5l2.1,3.7l-2.6,1.5c-0.2,0.1-0.3,0.2-0.4,0.4
		c-0.4,0.3-0.6,0.8-0.4,1.3c0.2,0.6,0.2,1,0.3,1.7c0,0,0,0,0,0c0,0,0,0.1,0,0.1c0,0,0,0.1,0,0.1c0,0,0,0.1,0,0.1c0,0,0,0.1,0.1,0.1
		c0,0,0,0.1,0.1,0.1c0,0,0,0.1,0.1,0.1c0,0,0,0.1,0.1,0.1c0,0,0.1,0.1,0.1,0.1c0,0,0.1,0,0.1,0.1c0,0,0.1,0.1,0.1,0.1
		c0,0,0.1,0,0.1,0.1c0,0,0.1,0,0.1,0.1c0,0,0,0,0.1,0l3.7,1.1L367,135l-3.1-0.9c-0.1,0-0.3-0.1-0.4,0c-0.5-0.1-1,0.2-1.3,0.6
		c-0.4,0.7-0.7,1.1-1.3,1.7c-0.4,0.5-0.4,1.2-0.1,1.6c0,0.1,0.1,0.1,0.1,0.2l1.5,2.5l-3.7,2.2l-1.6-2.6c0-0.1-0.1-0.2-0.2-0.2
		c-0.3-0.5-0.8-0.7-1.4-0.6c-0.8,0.2-1.3,0.3-2.1,0.3c-0.3,0-0.6,0.1-0.8,0.3c-0.2,0.2-0.4,0.4-0.5,0.7l-1,3.3l-2-0.6l0,0l-1.9-0.6
		l1-3.3c0.1-0.3,0.1-0.6-0.1-0.9c-0.1-0.3-0.3-0.5-0.5-0.7c-0.7-0.5-1-0.8-1.6-1.4c-0.4-0.4-1-0.5-1.5-0.3c-0.1,0-0.2,0.1-0.3,0.1
		l-2.7,1.3l-1.9-3.8l2.6-1.3c0.6-0.3,0.8-0.9,0.7-1.5l0.3-0.1c-0.1-0.9-0.2-1.4-0.2-2.2c0-0.5-0.3-1-0.7-1.2
		c-0.1-0.1-0.2-0.1-0.4-0.2l-3.1-0.9l1.2-4.1L343.7,123.7C343.7,123.7,343.7,123.7,343.7,123.7z"/>
	<path class="st0" d="M156.8,52.8c1,0.8,1.4,1.4,2.1,2.6c0.2,0.4,0.7,0.7,1.1,0.7c0,0,0.1,0,0.1,0c0,0,0.1,0,0.1,0
		c0.1,0,0.2,0,0.3,0l24.4-6.8c0.3-0.1,0.6-0.3,0.8-0.6c0.2-0.3,0.2-0.6,0.1-1c-0.9-3.2-2.2-6.2-3.8-8.9l8.5-8.4c0,0,0,0,0,0
		c0,0,0,0,0,0l9.2-9.1c0.1,0.1,0.1,0.1,0.2,0.2c0.4,0.2,1,0.5,1.7,0.5c0.7,0,1.5-0.2,2.1-0.9c0,0,0,0,0,0c1.4-1.3,0.9-3.1,0.5-3.9
		c-0.1-0.1-0.1-0.2-0.2-0.3l0,0l9.1-9c0.1-0.1,0.2-0.2,0.2-0.3c0.7-1.3,1.4-3.8-0.2-5.4c0,0,0,0,0,0c0,0,0,0,0,0
		c-1.6-1.6-4.2-0.9-5.4-0.2c-0.1,0.1-0.2,0.1-0.3,0.2l-9.1,9l0,0c-0.1-0.1-0.2-0.1-0.3-0.2c-0.7-0.4-2.5-0.9-3.9,0.4
		c-1.4,1.3-0.9,3.1-0.5,3.9c0.1,0.1,0.1,0.2,0.2,0.3l0.2,0.2l-17,16.9c-3.1-3-5.6-4.1-5.8-4.2c-0.6-0.3-1.3,0-1.6,0.5l-13.2,22.5
		C156.2,51.7,156.3,52.4,156.8,52.8z M209.1,3.9c0.6-0.3,1.8-0.6,2.3-0.1c0,0,0,0,0,0c0,0,0,0,0,0c0.5,0.5,0.1,1.7-0.2,2.3l-8.9,8.9
		l-0.9-0.9c0,0,0,0,0,0l-1.2-1.2L209.1,3.9z M195.9,13c0.2-0.2,0.5-0.2,0.7-0.1l2.6,2.6c0,0,0,0,0,0l2.9,2.9
		c0.1,0.2,0.1,0.5-0.1,0.7h0c-0.2,0.2-0.5,0.2-0.7,0.1l-2.9-2.9c0,0,0,0,0,0l-2.6-2.6C195.8,13.5,195.7,13.2,195.9,13z M195.9,17.3
		l1.1,1.1c0,0,0,0,0,0l1,1l-8.3,8.2l-2.1-2.1L195.9,17.3z M177.8,35.3l8-7.9l2.1,2.1l-8,8c-0.8,0.8-2,1.8-2.5,1.9
		c-0.8,0.1-1.5,0.7-2.7,1.8c-0.6,0.5-1.9,1.6-2.5,1.8c0.2-0.6,1.3-1.9,1.9-2.5c1-1.2,1.6-1.9,1.8-2.7
		C175.9,37.3,176.9,36.1,177.8,35.3z M171.3,31.1c0.9,0.5,2.4,1.5,4,3.1c-0.7,0.8-1.7,2-1.9,3.1c-0.1,0.3-0.8,1-1.2,1.5
		c-1.5,1.8-3.6,4.2-1.9,5.9c0,0,0.1,0.1,0.1,0.1c0,0,0.1,0.1,0.1,0.1c0.5,0.5,1,0.7,1.5,0.7c1.5,0,3.1-1.4,4.4-2.5
		c0.5-0.4,1.3-1.1,1.5-1.2c0.8-0.2,1.6-0.7,2.3-1.2c1.2,2,2.1,4.2,2.9,6.6l-22.4,6.2c-0.4-0.7-0.8-1.3-1.4-1.8L171.3,31.1z"/>
	<path class="st0" d="M124.5,58.3h15.9c0.7,0,1.2-0.5,1.3-1.1c0.2-1.7,1-3,2.7-4.1c0.6-0.4,0.7-1.1,0.4-1.7l-8.6-14.1
		c-0.4-0.6-1.1-0.8-1.7-0.4C134,37,123.2,43.2,123.2,57C123.2,57.7,123.8,58.3,124.5,58.3z M134.7,39.7l7.3,12
		c-1.4,1.2-2.2,2.5-2.6,4.1h-13.5C126.3,46.6,132.3,41.4,134.7,39.7z"/>
	<path class="st0" d="M135.7,81.9c0.4,0,0.8-0.2,1.1-0.6l8.5-13.7c0.4-0.6,0.2-1.3-0.4-1.7c-1.5-1-2.5-2.7-2.7-4.5
		c-0.1-0.6-0.6-1.1-1.3-1.1h-16.1c-0.7,0-1.2,0.5-1.3,1.2c0,0.1-1,13.8,11.5,20.4C135.3,81.9,135.5,81.9,135.7,81.9z M126.2,62.8
		h13.8c0.4,1.7,1.3,3.2,2.6,4.4L135.3,79C127.2,74.1,126.2,65.9,126.2,62.8z"/>
	<path class="st0" d="M163.2,83.7c0.1-0.3,0.1-0.7-0.1-1.1L155,68.3c-0.3-0.6-1-0.8-1.6-0.5c-0.8,0.3-1.6,0.5-2.5,0.5
		c-0.5,0-1.3,0-2-0.3c-0.6-0.3-1.3,0-1.6,0.5l-8.2,13.5c-0.3,0.5-0.2,1.2,0.3,1.6c0.2,0.1,4,3.3,11.3,3.3c0,0,0,0,0,0
		c3.7,0,7.6-0.8,11.7-2.4C162.8,84.4,163.1,84.1,163.2,83.7z M150.8,84.3C150.8,84.3,150.8,84.3,150.8,84.3c-4.5,0-7.4-1.3-8.8-2.1
		l7-11.6c0.8,0.2,1.5,0.2,1.9,0.2c0.8,0,1.6-0.1,2.4-0.3l6.8,12.2C156.9,83.7,153.7,84.3,150.8,84.3z"/>
	<path class="st0" d="M176.6,68.1c-0.2-0.3-0.5-0.5-0.8-0.6l-16.4-3.9c-0.5-0.1-1.1,0.1-1.4,0.6c-0.4,0.6-0.9,1.1-1.5,1.6
		c-0.5,0.4-0.6,1.1-0.3,1.7l8.7,14c0.2,0.4,0.7,0.6,1.1,0.6c0.2,0,0.4,0,0.6-0.1c0.3-0.1,6.9-3.4,10.1-12.7
		C176.8,68.8,176.8,68.4,176.6,68.1z M166.5,78.9l-7.4-12c0.2-0.2,0.4-0.5,0.6-0.7l14.1,3.4C171.6,75,168.1,77.8,166.5,78.9z"/>
	<path class="st0" d="M138.1,35.7l8.2,14.3c0.3,0.6,1,0.8,1.6,0.5c0.7-0.3,1.2-0.4,2.2-0.4c1.2,0,2,0.2,2.8,0.6
		c0.2,0.1,0.4,0.2,0.6,0.2c0.4,0,0.9-0.2,1.1-0.6l8.3-14.6c0.2-0.3,0.2-0.7,0.1-1c-0.1-0.3-0.4-0.6-0.7-0.8c-4-1.9-8.1-2.9-12.2-2.9
		c-7,0-11.5,2.8-11.7,2.9C137.9,34.4,137.8,35.1,138.1,35.7z M150.2,33.6c3.3,0,6.6,0.7,9.8,2L153,48c-0.9-0.3-1.8-0.4-2.9-0.4
		c-0.8,0-1.4,0-2.1,0.2l-7-12.2C142.6,34.8,145.8,33.6,150.2,33.6z"/>
	<path class="st0" d="M288,152.9v-8.3c0-0.7-0.6-1.3-1.3-1.3s-1.3,0.6-1.3,1.3v8.3c0,0.7,0.6,1.3,1.3,1.3S288,153.7,288,152.9z"/>
	<path class="st0" d="M482.1,297.8l-7.6-7.7c-0.2-0.2-0.6-0.4-0.9-0.4h-17.5c-0.1,0-0.2,0-0.3,0c-1.7-2.9-4.2-4.3-5.6-4.8
		c-0.5-3-3.1-4.2-4.5-4.4c-0.1,0-0.1,0-0.2,0h-15.2v-38.4c0-0.7-0.6-1.3-1.3-1.3h-45.4c-0.7,0-1.3,0.6-1.3,1.3v3.4h-3.5
		c-0.7,0-1.3,0.6-1.3,1.3v33.7h-10.7c-1.8,0-2.8,0.7-3.3,1.4c-0.8,0.9-1,1.9-1.1,2.8c-8.4,0.9-11.3,10.7-11.4,11.1c0,0,0,0,0,0.1
		c0,0,0,0.1,0,0.1c0,0,0,0.1,0,0.1c0,0,0,0,0,0.1l1.1,32.9c0,0.7,0.6,1.2,1.3,1.2h3.4v1.9c0,0.7,0.6,1.3,1.3,1.3h11.6
		c0.7,0,1.3-0.6,1.3-1.3v-1.9h67.6v1.9c0,0.7,0.6,1.3,1.3,1.3h11.6c0.7,0,1.3-0.6,1.3-1.3v-1.9h3.5l6.2,2.2c0,0,0.1,0,0.1,0
		c0,0,0.1,0,0.1,0c0.1,0,0.2,0,0.2,0c0,0,0,0,0,0h18.8c0.7,0,1.3-0.6,1.3-1.3v-31.8c0-0.1,0-0.2-0.1-0.3c0-0.1,0.1-0.2,0.1-0.4
		C482.6,298.4,482.4,298,482.1,297.8z M430.3,283.1h15.1c0.4,0.1,1.6,0.4,2.1,1.5h-17.2V283.1z M384.9,243.5h42.9v41.2h-2.2v-37.8
		c0-0.7-0.6-1.3-1.3-1.3h-39.4V243.5z M380.1,248.1H423v36.5h-42.9V248.1z M365.4,283.6c0.1-0.1,0.4-0.5,1.4-0.5h10.7v1.5H365
		C365,284.3,365.2,283.9,365.4,283.6z M363.6,287.2h85.2c0.8,0.3,5.3,1.9,5.9,7.7h-1.5c0-0.3-0.1-0.5-0.3-0.8l-4.1-5
		c-0.2-0.3-0.6-0.5-1-0.5h-87.7c-0.4,0-0.8,0.2-1.1,0.6l-3.5,5.6H354C355.2,292.2,358.2,287.2,363.6,287.2z M398.5,310.3h12.2
		c0.7,0,1.3-0.6,1.3-1.3v-0.8h28.6v9.2c0,3.2-4.2,3.3-4.4,3.3h-64.4c-1.6,0-2.8-0.4-3.5-1.1c-0.7-0.8-0.6-2-0.6-2c0-0.1,0-0.1,0-0.2
		v-9.2h29.5v0.8C397.2,309.8,397.8,310.3,398.5,310.3z M410.7,305.7c-0.7,0-1.3,0.6-1.3,1.3v0.8h-9.6v-0.8c0-0.7-0.6-1.3-1.3-1.3
		h-30.7v-8.2h72.8v8.2H410.7z M358.7,294.9l2.3-3.6h86.4l3,3.6H358.7z M353.5,297.4h11.7v8.2c-7.9-0.1-10.6-0.9-11.5-1.2
		L353.5,297.4z M368.2,330.9h-9v-0.6h9V330.9z M449.9,330.9h-9v-0.6h9V330.9z M454.8,327.8H354.4l-0.7-20.6c2.3,0.7,6.2,1,11.4,1.1
		v9.1c-0.1,0.5-0.1,2.3,1.2,3.9c1.1,1.3,3,2,5.4,2h64.4c2.4,0,6.9-1.3,6.9-5.8v-9.2c0.5,0,1.1,0,1.8,0c3,0,7.2-0.2,10-1.1V327.8z
		 M454.8,304.5c-1.7,0.9-7,1.3-11.8,1.2v-8.3h11.8V304.5z M461.2,299.5v30l-3.8-1.4v-32c0-0.6,0-1.2-0.1-1.8l4,4.7
		C461.2,299.2,461.2,299.3,461.2,299.5z M458.9,292.3h14.2l5.2,5.2h-14.8L458.9,292.3z M480,330.1h-16.3v-30H480V330.1z"/>
	<path class="st0" d="M445.2,302.2h3.8c0.7,0,1.3-0.6,1.3-1.3c0-0.7-0.6-1.3-1.3-1.3h-3.8c-0.7,0-1.3,0.6-1.3,1.3
		C443.9,301.6,444.4,302.2,445.2,302.2z"/>
	<path class="st0" d="M385.9,170.7l-15,9.2l-38.1-11.3c-0.7-0.2-1.4,0.2-1.6,0.9c-0.2,0.7,0.2,1.4,0.9,1.6l38.6,11.5
		c0.1,0,0.2,0.1,0.4,0.1c0.2,0,0.5-0.1,0.7-0.2l15.5-9.5c0.6-0.4,0.8-1.2,0.4-1.8C387.2,170.5,386.5,170.4,385.9,170.7z"/>
	<path class="st0" d="M387.7,166c0,0,0-0.1,0-0.1c0,0,0-0.1,0-0.1c0,0,0-0.1-0.1-0.1c0,0,0,0,0,0c0,0,0,0,0-0.1c0,0-0.1-0.1-0.1-0.1
		c0,0-0.1-0.1-0.1-0.1c0,0-0.1-0.1-0.1-0.1c0,0-0.1,0-0.1-0.1c0,0-0.1,0-0.1-0.1c0,0-0.1,0-0.1-0.1c0,0,0,0-0.1,0l-38.3-11.8
		c0,0,0,0,0,0c0,0-0.1,0-0.1,0c0,0-0.1,0-0.1,0c0,0-0.1,0-0.1,0c0,0-0.1,0-0.1,0c0,0-0.1,0-0.1,0c0,0-0.1,0-0.1,0c0,0-0.1,0-0.1,0
		c0,0-0.1,0-0.1,0.1c0,0,0,0,0,0l-15.8,9.8c0,0,0,0-0.1,0c0,0-0.1,0.1-0.1,0.1c0,0-0.1,0.1-0.1,0.1c0,0-0.1,0.1-0.1,0.1
		c0,0,0,0.1-0.1,0.1c0,0,0,0.1-0.1,0.1c0,0,0,0.1-0.1,0.1c0,0,0,0,0,0.1c0,0,0,0,0,0c0,0,0,0.1,0,0.1c0,0,0,0.1,0,0.1
		c0,0,0,0.1,0,0.1c0,0,0,0.1,0,0.1c0,0,0,0.1,0,0.1c0,0,0,0.1,0,0.1c0,0,0,0.1,0,0.1c0,0,0,0.1,0.1,0.1c0,0,0,0,0,0c0,0,0,0,0,0
		c0,0.1,0.1,0.1,0.1,0.2c0,0,0,0,0.1,0.1c0.1,0.1,0.1,0.1,0.2,0.2c0,0,0,0,0,0c0.1,0,0.2,0.1,0.2,0.1l38.6,11.5
		c0.1,0,0.2,0.1,0.4,0.1c0.2,0,0.5-0.1,0.7-0.2l15.5-9.5c0,0,0,0,0.1,0c0,0,0,0,0.1,0c0.1-0.1,0.2-0.2,0.2-0.2c0,0,0,0,0,0
		c0.1-0.1,0.1-0.2,0.2-0.3c0,0,0,0,0,0c0,0,0,0,0,0c0,0,0-0.1,0-0.1c0,0,0-0.1,0-0.1c0,0,0-0.1,0-0.1c0,0,0-0.1,0-0.1
		C387.7,166.1,387.7,166.1,387.7,166z M370.8,174.5l-35.4-10.5l12.9-8l35.1,10.8L370.8,174.5z"/>
	<path class="st0" d="M387.7,176.6c-0.4-0.6-1.2-0.8-1.8-0.4l-15,9.2L332.8,174c-0.7-0.2-1.4,0.2-1.6,0.9c-0.2,0.7,0.2,1.4,0.9,1.6
		l38.6,11.5c0.1,0,0.2,0.1,0.4,0.1c0.2,0,0.5-0.1,0.7-0.2l15.5-9.5C387.9,177.9,388,177.2,387.7,176.6z"/>
	<path class="st0" d="M347.3,158.6l-4.4,2.8c-0.6,0.4-0.8,1.2-0.4,1.8c0.2,0.4,0.7,0.6,1.1,0.6c0.2,0,0.5-0.1,0.7-0.2l4.4-2.8
		c0.6-0.4,0.8-1.2,0.4-1.8C348.7,158.4,347.9,158.2,347.3,158.6z"/>
	<path class="st0" d="M347,165.4c0.2,0.4,0.7,0.6,1.1,0.6c0.2,0,0.5-0.1,0.7-0.2l4.4-2.8c0.6-0.4,0.8-1.2,0.4-1.8
		c-0.4-0.6-1.2-0.8-1.8-0.4l-4.4,2.8C346.8,164,346.6,164.8,347,165.4z"/>
	<path class="st0" d="M350.2,96c0.4,0,0.7,0,0.8,0h33.6c0,1.7-0.4,4.3-1.6,5.7c-0.6,0.6-1.3,0.9-2.2,0.9c-0.7,0-1.3,0.6-1.3,1.3v5.6
		c0,0.7,0.6,1.3,1.3,1.3h14.5h0.9h14.5c0.7,0,1.3-0.6,1.3-1.3v-5.6c0-0.7-0.6-1.3-1.3-1.3c-0.9,0-1.6-0.3-2.2-0.9
		c-1.3-1.4-1.6-4-1.6-5.7h33.6c0.2,0,0.4,0,0.8,0c1,0,2.7-0.2,4-1.3c1.3-1.1,2-2.8,2-5.1V30.8c0-0.5,0.1-2.7-1.6-4.5
		c-1.3-1.4-3.3-2.2-5.9-2.2h-43.7h-0.9h-43.7c-2.6,0-4.6,0.7-5.9,2.2c-1.6,1.8-1.6,4-1.6,4.5v58.8c0,2.2,0.7,4,2,5.1
		C347.5,95.8,349.2,96,350.2,96z M409.6,105.1v3h-13.3h-0.9h-13.3v-3h13.3h0.9H409.6z M385.5,102.6c1.4-2.1,1.6-4.9,1.7-6.6h8.2h0.9
		h8.2c0,1.7,0.3,4.5,1.7,6.6h-9.8h-0.9H385.5z M444.9,89.6c0,1.5-0.4,2.5-1.1,3.1c-1.1,1-2.9,0.7-2.9,0.7c-0.1,0-0.1,0-0.2,0h-44.4
		h-0.9h-44.4c-0.1,0-0.1,0-0.2,0c0,0-1.7,0.3-2.9-0.7c-0.7-0.6-1.1-1.7-1.1-3.1v-4h49c0,0,0.1,0,0.1,0c0,0,0.1,0,0.1,0h49V89.6z
		 M347.6,28c0.8-0.9,2.2-1.3,4-1.3h43.7h0.9H440c1.9,0,3.2,0.4,4,1.3c1,1.1,0.9,2.6,0.9,2.6c0,0,0,0.1,0,0.1V83h-49c0,0-0.1,0-0.1,0
		c0,0-0.1,0-0.1,0h-49V30.7c0,0,0-0.1,0-0.1C346.7,30.6,346.6,29.1,347.6,28z"/>
	<path class="st0" d="M355.5,40.5h15.1c0.7,0,1.3-0.6,1.3-1.3s-0.6-1.3-1.3-1.3h-15.1c-0.7,0-1.3,0.6-1.3,1.3S354.8,40.5,355.5,40.5
		z"/>
	<path class="st0" d="M377.5,40.5h10.6c0.7,0,1.3-0.6,1.3-1.3s-0.6-1.3-1.3-1.3h-10.6c-0.7,0-1.3,0.6-1.3,1.3S376.8,40.5,377.5,40.5
		z"/>
	<path class="st0" d="M355.5,51.9h46.7c0.7,0,1.3-0.6,1.3-1.3c0-0.7-0.6-1.3-1.3-1.3h-46.7c-0.7,0-1.3,0.6-1.3,1.3
		C354.2,51.3,354.8,51.9,355.5,51.9z"/>
	<path class="st0" d="M366.7,66.2h-10.8c-0.7,0-1.3,0.6-1.3,1.3s0.6,1.3,1.3,1.3h10.8c0.7,0,1.3-0.6,1.3-1.3S367.4,66.2,366.7,66.2z
		"/>
	<path class="st0" d="M390.3,66.2h-18.5c-0.7,0-1.3,0.6-1.3,1.3s0.6,1.3,1.3,1.3h18.5c0.7,0,1.3-0.6,1.3-1.3S391,66.2,390.3,66.2z"
		/>
	<path class="st0" d="M355.5,57.7h6.8c0.7,0,1.3-0.6,1.3-1.3s-0.6-1.3-1.3-1.3h-6.8c-0.7,0-1.3,0.6-1.3,1.3S354.8,57.7,355.5,57.7z"
		/>
	<path class="st0" d="M391.3,89.5c0,0.7,0.6,1.3,1.3,1.3h6.8c0.7,0,1.3-0.6,1.3-1.3s-0.6-1.3-1.3-1.3h-6.8
		C391.9,88.2,391.3,88.8,391.3,89.5z"/>
	<path class="st0" d="M446.5,137.4c0,0.1-0.1,0.2-0.1,0.4v31.6c0,0.1,0,0.2,0,0.3c0.1,0.3,1.7,6.5,14.6,6.5
		c12.9,0,14.5-7.2,14.6-7.5c0-0.1,0-0.2,0-0.3v-6.5c1.4-0.1,5.1-0.4,7.7-2.9c1.6-1.6,2.5-3.7,2.5-6.3c0-7.1-6.4-9.5-10.1-9.8v-5.9
		c0-3.8-7.4-5.7-14.6-5.7c-7.3,0-14.6,2-14.6,5.7C446.4,137,446.4,137.2,446.5,137.4z M475.7,145.3c1.8,0.2,7.6,1.4,7.6,7.2
		c0,1.9-0.5,3.3-1.7,4.4c-1.9,1.8-4.8,2.2-5.9,2.2V145.3z M461.1,133.6c8,0,12.1,2.2,12.1,3.2c0,1-4.1,3.2-12.1,3.2
		s-12.1-2.2-12.1-3.2C449,135.9,453.1,133.6,461.1,133.6z M449,140.2c2.8,1.6,7.4,2.4,12.1,2.4c4.6,0,9.3-0.8,12.1-2.4v28
		c-0.2,0.8-2.1,5.4-12.1,5.4c-9.8,0-11.8-3.8-12.1-4.4V140.2z"/>
	<path class="st0" d="M357.3,272.1C357.3,272.1,357.3,272.1,357.3,272.1C357.3,272.1,357.3,272.1,357.3,272.1
		c0.7,0.1,2.4,0.3,4.4,0.3c3.4,0,7.5-0.6,7.9-3.6c0.6-3.7,6.3-41.7,6.3-41.7c0.1-0.4-0.1-0.8-0.3-1l-4.1-4.5l0.8-5
		c0.1-0.3,0-0.7-0.2-0.9c-0.2-0.3-0.5-0.5-0.8-0.5l-5.1-0.8c0,0,0,0,0,0l-5.1-0.8c-0.3,0-0.7,0-0.9,0.2c-0.3,0.2-0.5,0.5-0.5,0.8
		l-0.8,5l-5.2,3.1c-0.3,0.2-0.6,0.5-0.6,0.9l-5.9,39.2c0,0,0,0,0,0l-0.4,2.5C345.9,270,355.4,271.8,357.3,272.1z M361.8,216.3
		l3.9,0.6c0,0,0,0,0,0l3.9,0.6l-0.5,3l-3.9-0.6l-3.9-0.6L361.8,216.3z M355.3,224.6l4.8-2.9l4.7,0.7l4.7,0.7l3.8,4.2
		c-0.1,0.6-0.3,1.8-0.5,3.3c-1.5,0-4.6,0-9.1-0.7c-4.5-0.7-7.5-1.5-8.9-2L355.3,224.6z M354.5,230.5c1.6,0.5,4.6,1.3,8.9,2
		c4,0.6,7,0.7,8.8,0.7c0.1,0,0.2,0,0.3,0c-1.3,8.8-3.7,24.4-4.8,31.6c-1.9,0-5.9,0-9.1-0.4c-3.2-0.5-7-1.7-8.8-2.3L354.5,230.5z
		 M349.3,264.7c2,0.7,5.7,1.8,8.8,2.2c2.6,0.4,5.6,0.5,7.8,0.5c0.5,0,0.9,0,1.3,0c-0.1,0.5-0.1,0.8-0.2,1c-0.2,1.4-5.1,1.8-9.4,1.2
		c-4.2-0.7-8.8-2.5-8.6-3.9L349.3,264.7z"/>
	<path class="st0" d="M205.9,57.9c-3.4,0-6.2,2.8-6.2,6.2c0,3.4,2.8,6.2,6.2,6.2h14.1c0.1,0,0.2,0,0.3,0c0.1,0,0.2,0,0.3,0
		c1.4,0,2.6,1.2,2.6,2.6c0,1.4-1.2,2.6-2.6,2.6h-28.1c-0.1,0-0.1,0-0.2,0c-0.1,0-0.1,0-0.2,0c-2.8,0-5.1,2.3-5.1,5.1
		c0,2.8,2.3,5.1,5.1,5.1h75.5c2.5,0,4.4-2.4,5-4.9l6.1,2.2c0.1,0,0.2,0,0.3,0.1c0,0,0,0,0.1,0c0,0,0.1,0,0.1,0c0,0,0,0,0.1,0
		c0.1,0,0.2,0,0.3,0c0,0,0,0,0.1,0c0.1,0,0.2-0.1,0.3-0.1c0.1,0,5.6-3.5,10.2-3.5c0.8,0,1.6,0.1,2.2,0.3c2.3,0.8,4.8,2.2,7.5,3.7
		c3.5,1.9,7.1,3.8,10.9,5.1c4.1,1.4,8.4,1.6,10.6,1.6c0,0,0,0,0,0c5.8,0,6.2-1.2,6.4-1.7c0.9-2.5-7.7-8.8-13-10.9
		c-3.7-1.5-7.7-2.3-11.6-3c-3-0.6-5.9-1.2-8.1-2c-3.8-1.4-6.7-7.9-7.5-10.3c0,0,0,0,0-0.1c0-0.1,0-0.1-0.1-0.2c0,0,0-0.1-0.1-0.1
		c0,0-0.1-0.1-0.1-0.1c0,0,0,0-0.1-0.1c0,0-0.1-0.1-0.2-0.1c0,0,0,0-0.1,0c-0.1,0-0.2-0.1-0.2-0.1l-23.7-8.5
		c-0.4-0.1-0.9-0.1-1.2,0.2c-0.3,0.3-0.5,0.7-0.5,1.1c0,0,0.1,1.1-0.8,2c-0.5,0.6-1.1,1.9-1.4,3c-1.1-0.8-2.4-1.3-3.8-1.3H205.9z
		 M293.7,75c2.5,0.9,5.4,1.5,8.5,2.1c3.8,0.7,7.6,1.5,11.2,2.9c4.8,1.9,9.3,5.6,10.9,7.4c-0.7,0.1-1.8,0.2-3.3,0.2h0
		c-3.4,0-7-0.5-9.8-1.4c-3.6-1.2-7.1-3.1-10.4-4.9c-2.8-1.5-5.4-2.9-7.9-3.8c-0.9-0.3-1.9-0.5-3-0.5c-3,0-6.3,1.2-8.6,2.3l4.7-13.1
		C287.4,69.2,290,73.6,293.7,75z M284.2,63.4l-6.1,16.9l-10.5-3.8l6.1-16.9L284.2,63.4z M259,65.7c0-0.4,0.5-1.3,0.7-1.5
		c1.2-1,1.7-2.5,1.4-3.9c0.1-0.5,0.5-2,0.9-2.4c0.6-0.7,1-1.4,1.2-2.1l8.1,2.9l-6.1,16.9l-8.7-3.1c0.3-0.4,0.5-1,0.6-1.6
		c0.1-0.3,0.2-0.7,0.3-0.9C258.7,69.1,259.3,66.9,259,65.7z M258.1,62.2C258.1,62.2,258,62.3,258.1,62.2c-0.6,0.5-2,2.6-1.5,4.1
		c0.1,0.4-0.3,1.4-0.5,1.6c-0.8,0.5-1,1.4-1.3,2.3c-0.1,0.3-0.2,0.7-0.3,0.9c-0.7,0.7-0.7,1.9-0.5,2.6c0.1,0.4,0.4,0.7,0.8,0.9
		l15.2,5.5c-0.2,1.5-1.4,3.2-2.5,3.2H192c-1.4,0-2.6-1.2-2.6-2.6c0-1.4,1.2-2.6,2.6-2.6c0.1,0,0.1,0,0.2,0c0.1,0,0.1,0,0.2,0h28.1
		c2.8,0,5.1-2.3,5.1-5.1c0-2.8-2.3-5.1-5.1-5.1c-0.1,0-0.2,0-0.3,0c-0.1,0-0.2,0-0.3,0h-14.1c-2,0-3.7-1.7-3.7-3.7
		c0-2,1.7-3.7,3.7-3.7h49c1.2,0,2.4,0.6,3.1,1.6C258,62.2,258,62.2,258.1,62.2z"/>
	<path class="st0" d="M273.5,68.5c0.1,0.1,0.3,0.1,0.4,0.1c0.5,0,1-0.3,1.2-0.8l1.6-4.5c0.2-0.7-0.1-1.4-0.8-1.6s-1.4,0.1-1.6,0.8
		l-1.6,4.5C272.4,67.5,272.8,68.3,273.5,68.5z"/>
	<path class="st0" d="M316.5,86.5c0.2,0.1,0.4,0.1,0.6,0.1c0.8,0,1.5-0.5,1.7-1.2c0.2-0.5,0.1-1-0.1-1.4c-0.2-0.4-0.6-0.8-1-1
		c-0.2-0.1-0.4-0.1-0.6-0.1c-0.8,0-1.5,0.5-1.7,1.2c-0.2,0.5-0.1,1,0.1,1.4C315.7,86,316,86.4,316.5,86.5z M317.1,84.1
		c0.1,0,0.2,0,0.2,0c0.2,0.1,0.3,0.2,0.4,0.4c0.1,0.2,0.1,0.4,0,0.5c-0.1,0.4-0.5,0.6-0.9,0.4c-0.2-0.1-0.3-0.2-0.4-0.4
		s-0.1-0.4,0-0.5C316.6,84.3,316.8,84.1,317.1,84.1z"/>
	<path class="st0" d="M397,160.9c0.7,0,1.3-0.6,1.3-1.3V158c6.7-0.6,12-6.2,12.1-13.1h2.4c0.7,0,1.3-0.6,1.3-1.3
		c0-0.7-0.6-1.3-1.3-1.3h-2.6c-1-5.8-5.9-10.4-11.9-10.9V129c0-0.7-0.6-1.3-1.3-1.3c-0.7,0-1.3,0.6-1.3,1.3v2.4
		c-6,0.6-10.8,5.1-11.9,10.9h-2.2c-0.7,0-1.3,0.6-1.3,1.3c0,0.7,0.6,1.3,1.3,1.3h2c0.1,6.8,5.4,12.4,12.1,13.1v1.7
		C395.7,160.4,396.3,160.9,397,160.9z M398.3,155.4v-3.2c3.6-0.6,6.3-3.6,6.4-7.3h3.1C407.7,150.4,403.6,154.8,398.3,155.4z
		 M398.3,134c4.6,0.5,8.3,4,9.3,8.4h-3.2c-0.9-2.7-3.2-4.7-6-5.2V134z M397,139.6c2.8,0,5.1,2.3,5.1,5.1c0,2.8-2.3,5.1-5.1,5.1
		c-2.8,0-5.1-2.3-5.1-5.1C391.9,141.9,394.2,139.6,397,139.6z M395.7,134v3.2c-2.8,0.5-5.2,2.5-6,5.2h-3.2
		C387.5,138,391.2,134.5,395.7,134z M386.2,144.9h3.1c0.1,3.7,2.8,6.7,6.4,7.3v3.2C390.5,154.8,386.3,150.4,386.2,144.9z"/>
	<path class="st0" d="M116.7,61.3c-0.6,0.1-1.1,0.1-1.1,0.2c-0.7,0.1-1.1,0.8-1,1.5c0.1,0.7,0.8,1.1,1.5,1c0,0,0.2,0,0.6-0.1
		c0.4,0,0.6,0.1,0.6,0.1c0.7,0.1,1.4-0.3,1.5-1c0.1-0.7-0.3-1.4-1-1.5C117.8,61.5,117.4,61.4,116.7,61.3z"/>
	<path class="st0" d="M325.5,274c0.7,0,1.3-0.6,1.3-1.3c0-2.5-0.8-4.4-2.4-5.8c-3.4-2.8-8.9-1.7-9.1-1.7c-0.7,0.1-1.1,0.8-1,1.5
		c0.1,0.7,0.8,1.1,1.5,1c0,0,1-0.2,2.3-0.2c1.5,0,3.4,0.2,4.7,1.3c1,0.8,1.5,2.1,1.5,3.8C324.2,273.4,324.8,274,325.5,274z"/>
	<path class="st0" d="M397.2,124.3c0.7,0,1.3-0.6,1.3-1.3v-8.4c0-0.7-0.6-1.3-1.3-1.3c-0.7,0-1.3,0.6-1.3,1.3v8.4
		C396,123.7,396.5,124.3,397.2,124.3z"/>
	<path class="st0" d="M326.8,286.4V278c0-0.7-0.6-1.3-1.3-1.3c-0.7,0-1.3,0.6-1.3,1.3v8.4c0,0.7,0.6,1.3,1.3,1.3
		C326.2,287.6,326.8,287.1,326.8,286.4z"/>
	<path class="st0" d="M355,198.2c0.7,0,1.3-0.6,1.3-1.3v-8.4c0-0.7-0.6-1.3-1.3-1.3c-0.7,0-1.3,0.6-1.3,1.3v8.4
		C353.7,197.6,354.3,198.2,355,198.2z"/>
	<path class="st0" d="M314.1,58.7c0.7,0,1.3-0.6,1.3-1.3v-8.4c0-0.7-0.6-1.3-1.3-1.3c-0.7,0-1.3,0.6-1.3,1.3v8.4
		C312.8,58.2,313.3,58.7,314.1,58.7z"/>
	<path class="st0" d="M148.6,95.1c-0.7,0-1.3,0.6-1.3,1.3c0,0.7,0.6,1.3,1.3,1.3h8.4c0.7,0,1.3-0.6,1.3-1.3c0-0.7-0.6-1.3-1.3-1.3
		H148.6z"/>
	<path class="st0" d="M164,97.7h8.4c0.7,0,1.3-0.6,1.3-1.3c0-0.7-0.6-1.3-1.3-1.3H164c-0.7,0-1.3,0.6-1.3,1.3
		C162.7,97.1,163.3,97.7,164,97.7z"/>
	<path class="st0" d="M179.3,96.4c0,0.7,0.6,1.3,1.3,1.3h8.4c0.7,0,1.3-0.6,1.3-1.3c0-0.7-0.6-1.3-1.3-1.3h-8.4
		C179.9,95.1,179.3,95.7,179.3,96.4z"/>
	<path class="st0" d="M196.1,95.1c-0.7,0-1.3,0.6-1.3,1.3c0,0.7,0.6,1.3,1.3,1.3h8.4c0.7,0,1.3-0.6,1.3-1.3c0-0.7-0.6-1.3-1.3-1.3
		H196.1z"/>
	<path class="st0" d="M212.2,95.1c-0.7,0-1.3,0.6-1.3,1.3c0,0.7,0.6,1.3,1.3,1.3h8.4c0.7,0,1.3-0.6,1.3-1.3c0-0.7-0.6-1.3-1.3-1.3
		H212.2z"/>
	<path class="st0" d="M228.8,95.1c-0.7,0-1.3,0.6-1.3,1.3c0,0.7,0.6,1.3,1.3,1.3h8.4c0.7,0,1.3-0.6,1.3-1.3c0-0.7-0.6-1.3-1.3-1.3
		H228.8z"/>
	<path class="st0" d="M244.3,95.1c-0.7,0-1.3,0.6-1.3,1.3c0,0.7,0.6,1.3,1.3,1.3h8.4c0.7,0,1.3-0.6,1.3-1.3c0-0.7-0.6-1.3-1.3-1.3
		H244.3z"/>
	<path class="st0" d="M269.4,95.1H261c-0.7,0-1.3,0.6-1.3,1.3c0,0.7,0.6,1.3,1.3,1.3h8.4c0.7,0,1.3-0.6,1.3-1.3
		C270.7,95.7,270.1,95.1,269.4,95.1z"/>
	<path class="st0" d="M316,245.5c-0.7,0-1.3,0.6-1.3,1.3c0,0.7,0.6,1.3,1.3,1.3h8.4c0.7,0,1.3-0.6,1.3-1.3c0-0.7-0.6-1.3-1.3-1.3
		H316z"/>
	<path class="st0" d="M331.4,248.1h8.4c0.7,0,1.3-0.6,1.3-1.3c0-0.7-0.6-1.3-1.3-1.3h-8.4c-0.7,0-1.3,0.6-1.3,1.3
		C330.1,247.5,330.7,248.1,331.4,248.1z"/>
	<path class="st0" d="M342.6,211.2c0-0.7-0.6-1.3-1.3-1.3H333c-0.7,0-1.3,0.6-1.3,1.3c0,0.7,0.6,1.3,1.3,1.3h8.4
		C342,212.5,342.6,211.9,342.6,211.2z"/>
	<path class="st0" d="M347.1,300.1h-8.4c-0.7,0-1.3,0.6-1.3,1.3c0,0.7,0.6,1.3,1.3,1.3h8.4c0.7,0,1.3-0.6,1.3-1.3
		C348.3,300.7,347.8,300.1,347.1,300.1z"/>
	<path class="st0" d="M423.3,209.5c0,0.7,0.6,1.3,1.3,1.3h8.4c0.7,0,1.3-0.6,1.3-1.3c0-0.7-0.6-1.3-1.3-1.3h-8.4
		C423.8,208.2,423.3,208.8,423.3,209.5z"/>
	<path class="st0" d="M431,143.4c0,0.7,0.6,1.3,1.3,1.3h8.4c0.7,0,1.3-0.6,1.3-1.3c0-0.7-0.6-1.3-1.3-1.3h-8.4
		C431.5,142.1,431,142.7,431,143.4z"/>
	<path class="st0" d="M427.3,144.7c0.7,0,1.3-0.6,1.3-1.3c0-0.7-0.6-1.3-1.3-1.3h-8.4c-0.7,0-1.3,0.6-1.3,1.3c0,0.7,0.6,1.3,1.3,1.3
		H427.3z"/>
	<path class="st0" d="M327.7,71.2c0,0.7,0.6,1.3,1.3,1.3h8.4c0.7,0,1.3-0.6,1.3-1.3c0-0.7-0.6-1.3-1.3-1.3H329
		C328.3,69.9,327.7,70.5,327.7,71.2z"/>
	<path class="st0" d="M439.5,210.8h8.4c0.7,0,1.3-0.6,1.3-1.3c0-0.7-0.6-1.3-1.3-1.3h-8.4c-0.7,0-1.3,0.6-1.3,1.3
		C438.2,210.2,438.8,210.8,439.5,210.8z"/>
	<path class="st0" d="M435.8,269.9h8.4c0.7,0,1.3-0.6,1.3-1.3c0-0.7-0.6-1.3-1.3-1.3h-8.4c-0.7,0-1.3,0.6-1.3,1.3
		C434.5,269.3,435.1,269.9,435.8,269.9z"/>
	<path class="st0" d="M449,269.9h8.4c0.7,0,1.3-0.6,1.3-1.3c0-0.7-0.6-1.3-1.3-1.3H449c-0.7,0-1.3,0.6-1.3,1.3
		C447.8,269.3,448.3,269.9,449,269.9z"/>
	<path class="st0" d="M321.8,72.6c0.7,0,1.3-0.6,1.3-1.3c0-0.7-0.6-1.3-1.3-1.3c-2.4,0-4.2-0.7-5.2-1.9c-1-1.2-1.2-2.9-1.2-4.1
		c0-0.8,0.1-1.4,0.1-1.4c0.1-0.7-0.3-1.4-1-1.5c-0.7-0.1-1.4,0.3-1.5,1c0,0.2-0.9,4.5,1.6,7.6C316.1,71.6,318.6,72.6,321.8,72.6z"/>
	<path class="st0" d="M141.8,97.1c0.7,0,1.3-0.6,1.3-1.3c0-0.7-0.6-1.3-1.3-1.3c-2.4,0-4.2-0.7-5.2-1.9c-1-1.2-1.2-2.9-1.2-4.1
		c0-0.8,0.1-1.4,0.1-1.4c0.1-0.7-0.3-1.4-1-1.5c-0.7-0.1-1.4,0.3-1.5,1c0,0.2-0.9,4.5,1.6,7.6C136.2,96.1,138.6,97.1,141.8,97.1z"/>
	<path class="st0" d="M333.8,299.9c-2.4,0.1-4.2-0.5-5.3-1.8c-1.1-1.2-1.3-2.9-1.3-4c0-0.8,0.1-1.4,0.1-1.4c0.1-0.7-0.3-1.4-1-1.5
		c-0.7-0.1-1.4,0.3-1.5,1c0,0.2-0.8,4.5,1.8,7.6c1.6,1.9,4.1,2.8,7.3,2.7c0.7,0,1.3-0.6,1.2-1.3
		C335.1,300.4,334.5,299.9,333.8,299.9z"/>
	<path class="st0" d="M463.4,266.9c-0.7,0-1.3,0.6-1.3,1.3c0,0.7,0.6,1.3,1.3,1.3c3.2,0,5.7-1,7.2-2.9c2.5-3.1,1.7-7.4,1.6-7.6
		c-0.1-0.7-0.8-1.1-1.5-1c-0.7,0.1-1.1,0.8-1,1.5c0,0,0.6,3.4-1.1,5.5C467.6,266.3,465.8,266.9,463.4,266.9z"/>
	<path class="st0" d="M275.7,95.1c-0.7,0-1.3,0.6-1.3,1.3c0,0.7,0.6,1.3,1.3,1.3c3.2,0,5.7-1,7.2-2.9c2.5-3.1,1.7-7.4,1.6-7.6
		c-0.1-0.7-0.8-1.1-1.5-1c-0.7,0.1-1.1,0.8-1,1.5c0,0,0.6,3.4-1.1,5.5C279.8,94.5,278.1,95.1,275.7,95.1z"/>
	<path class="st0" d="M347.3,209.9c-0.7,0-1.3,0.6-1.3,1.3c0,0.7,0.6,1.3,1.3,1.3c3.2,0,5.7-1,7.2-2.9c2.5-3.1,1.7-7.4,1.6-7.6
		c-0.1-0.7-0.8-1.1-1.5-1c-0.7,0.1-1.1,0.8-1,1.5c0,0,0.6,3.4-1.1,5.5C351.5,209.2,349.8,209.9,347.3,209.9z"/>
	<path class="st0" d="M327.8,234.2v-35.1c0-0.7-0.6-1.3-1.3-1.3h-4.5v-11.2h0.6c0.7,0,1.3-0.6,1.3-1.3v-16.7c0,0,0-0.1,0-0.1
		c0,0,0-0.1,0-0.1c0,0,0-0.1,0-0.1c0,0,0-0.1,0-0.1l-2.6-7v-21.9c0-0.1,0-0.2,0-0.3c-0.6-9.6-9.8-12.4-13-13.1v-16.6
		c0,0,0-0.1,0-0.1c-0.3-2.7-2.7-7.7-10-7.7h-6.4c-0.7,0-1.3,0.6-1.3,1.3v0.2H116.7H0v2.6h116.7H270v20.2H116.7H0v2.6h116.7h165.1
		l3.2,9.8H116.7H0v2.6h116.7h170c0,0,0,0,0,0h32v20.1h-38.2v-1c0-0.7-0.6-1.3-1.3-1.3H116.7H0v2.6h16.9c-0.2,0.7-0.3,1.3-0.3,2.1
		c0,0,0,0.1,0,0.1c0,0,0,0,0,0.1c0,3.8,3.1,6.9,6.9,6.9h6c0.1,0,0.1,0,0.2,0c0.1,0,0.1,0,0.2,0c2.4,0,4.3,1.9,4.3,4.3
		c0,2.4-1.9,4.3-4.3,4.3c-0.1,0-0.1,0-0.2,0c-0.1,0-0.1,0-0.2,0H0v2.6h29.6c0.1,0,0.1,0,0.2,0c0.1,0,0.1,0,0.2,0
		c3.8,0,6.9-3.1,6.9-6.9c0-3.8-3.1-6.9-6.9-6.9c-0.1,0-0.1,0-0.2,0c-0.1,0-0.1,0-0.2,0h-6c-2.3,0-4.3-2.1-4.3-4.5
		c0-0.7,0.2-1.4,0.5-2.1h97h97c0.3,0.6,0.5,1.3,0.5,2.1c0,2.5-2,4.5-4.3,4.5h-6c-0.1,0-0.1,0-0.2,0c-0.1,0-0.1,0-0.2,0
		c-3.8,0-6.9,3.1-6.9,6.9c0,3.8,3.1,6.9,6.9,6.9c0.1,0,0.1,0,0.2,0c0.1,0,0.1,0,0.2,0h58.1c3.8,0,6.9-3.1,6.9-6.9
		c0-3.8-3.1-6.9-6.9-6.9c0,0-0.1,0-0.1,0c0,0-0.1,0-0.1,0h-8.2c-2.4,0-4.3-1.9-4.3-4.3c0-0.8,0.2-1.6,0.6-2.2h24.1
		c2.2,5.6,4.2,23.8,5,33.1v31.1H225c1.3-1.4,2.1-3.3,2.1-5.4c0-4.2-3.4-7.6-7.6-7.6c0,0,0,0,0,0h0h-41.3c-2.4,0-4.3-1.7-4.3-3.8
		c0-2.1,1.9-3.8,4.3-3.8h8c0,0,0,0,0,0c0.1,0,0.1,0,0.2,0c3.8,0,6.9-3.1,6.9-6.9s-3.1-6.9-6.9-6.9H137c-3.8,0-6.9,3.1-6.9,6.9
		s3.1,6.9,6.9,6.9c0.1,0,0.1,0,0.2,0c0.1,0,0.1,0,0.2,0h14.6c0.1,0,0.1,0,0.2,0c0,0,0,0,0.1,0c2.4,0,4.3,1.7,4.3,3.8
		c0,2.1-1.9,3.8-4.3,3.8h-35.5H81.3c-2.4,0-4.3-1.7-4.3-3.8c0-2.1,1.9-3.8,4.3-3.8c0,0,0,0,0.1,0c0.1,0,0.1,0,0.2,0h14.6
		c0.1,0,0.1,0,0.2,0c0.1,0,0.1,0,0.2,0c3.8,0,6.9-3.1,6.9-6.9s-3.1-6.9-6.9-6.9H47.1c-3.8,0-6.9,3.1-6.9,6.9s3.1,6.9,6.9,6.9
		c0.1,0,0.1,0,0.2,0c0,0,0,0,0,0h8c2.4,0,4.3,1.7,4.3,3.8c0,2.1-1.9,3.8-4.3,3.8H14c0,0,0,0,0,0s0,0,0,0c-4.2,0-7.6,3.4-7.6,7.6
		c0,2.1,0.8,4,2.1,5.4H0v2.6h61.3c3.8,0,7,3.1,7,7c0,3.8-3.1,7-7,7H38c-0.2,0-0.3,0-0.5,0.1c-0.1-0.1-0.3-0.1-0.5-0.1
		c-4.2,0-7.7,3.4-7.7,7.7c0,4.2,3.4,7.7,7.7,7.7h46.8c0.1,0,0.2,0,0.3,0c0.1,0,0.2,0,0.3,0c2.8,0,5.1,2.3,5.1,5.1
		c0,2.8-2.3,5.1-5.1,5.1H0v2.6h84.4c4.2,0,7.7-3.4,7.7-7.7c0-4.2-3.4-7.7-7.7-7.7c-0.1,0-0.2,0-0.3,0c-0.1,0-0.2,0-0.3,0H37
		c-2.8,0-5.1-2.3-5.1-5.1c0-2.8,2.3-5.1,5.1-5.1c0.2,0,0.3,0,0.5-0.1c0.1,0.1,0.3,0.1,0.5,0.1h23.4c5.2,0,9.5-4.3,9.5-9.5
		s-4.3-9.5-9.5-9.5H14c-2.7,0-5-2.5-5-5.4c0-2.8,2.3-5.1,5-5.1c0,0,0,0,0,0s0,0,0,0h41.3c3.8,0,6.9-2.9,6.9-6.4
		c0-3.5-3.1-6.4-6.9-6.4h-8c-0.1,0-0.1,0-0.2,0c0,0,0,0,0,0c-2.4,0-4.3-1.9-4.3-4.3s1.9-4.3,4.3-4.3h49.4c2.4,0,4.3,1.9,4.3,4.3
		s-1.9,4.3-4.3,4.3c-0.1,0-0.1,0-0.2,0c-0.1,0-0.1,0-0.2,0H81.5c0,0,0,0-0.1,0c-0.1,0-0.1,0-0.2,0c-3.8,0-6.9,2.9-6.9,6.4
		c0,3.5,3.1,6.4,6.9,6.4h35.5h35.5c3.8,0,6.9-2.9,6.9-6.4c0-3.5-3.1-6.4-6.9-6.4c-0.1,0-0.1,0-0.2,0c0,0,0,0-0.1,0h-14.6
		c-0.1,0-0.1,0-0.2,0c-0.1,0-0.1,0-0.2,0c-2.4,0-4.3-1.9-4.3-4.3s1.9-4.3,4.3-4.3h49.4c2.4,0,4.3,1.9,4.3,4.3s-1.9,4.3-4.3,4.3
		c0,0,0,0,0,0c-0.1,0-0.1,0-0.2,0h-8c-3.8,0-6.9,2.9-6.9,6.4c0,3.5,3.1,6.4,6.9,6.4h41.3h0c0,0,0,0,0,0c2.8,0,5,2.3,5,5.1
		c0,2.9-2.4,5.4-5,5.4h-47.3c-5.2,0-9.5,4.3-9.5,9.5s4.3,9.5,9.5,9.5h23.4c0.2,0,0.3,0,0.5-0.1c0.1,0.1,0.3,0.1,0.5,0.1
		c2.8,0,5.1,2.3,5.1,5.1c0,2.8-2.3,5.1-5.1,5.1h-46.8c-0.1,0-0.2,0-0.3,0c-0.1,0-0.2,0-0.3,0c-4.2,0-7.7,3.4-7.7,7.7
		c0,4.2,3.4,7.7,7.7,7.7h123.2c2.3,0,4.8-1.5,6.6-3.6V295c0,1.6-1.3,2.9-2.9,2.9H116.7H0v2.6h116.7h161.8c1.6,0,2.9-1.3,2.9-2.9v-37
		c0,0,0,0,0,0c0,0,0,0,0,0v-4.5h18v20.2c0,0.7,0.6,1.3,1.3,1.3h8.3c0.7,0,1.3-0.6,1.3-1.3v-40.8h16.3
		C327.2,235.5,327.8,234.9,327.8,234.2z M293.1,104h5.1c6.5,0,7.3,4.7,7.4,5.4v16.3h-12.5V104z M279.1,125.7h-6.6v-20.2h6.6V125.7z
		 M281.7,125.7v-20.2h8.9v20.2H281.7z M287.7,138.1l-3.2-9.8h22.4c1,0.1,10.4,1.5,11.7,9.8H287.7z M253.5,170.2h8.2c0,0,0.1,0,0.1,0
		c0,0,0.1,0,0.1,0c2.4,0,4.3,1.9,4.3,4.3c0,2.4-1.9,4.3-4.3,4.3h-58.1c-0.1,0-0.1,0-0.2,0c-0.1,0-0.1,0-0.2,0
		c-2.4,0-4.3-1.9-4.3-4.3c0-2.4,1.9-4.3,4.3-4.3c0.1,0,0.1,0,0.2,0c0.1,0,0.1,0,0.2,0h6c3.8,0,6.9-3.1,6.9-6.9c0,0,0,0,0-0.1
		c0,0,0-0.1,0-0.1c0-0.7-0.1-1.4-0.3-2.1H247c-0.2,0.7-0.4,1.5-0.4,2.2C246.7,167.1,249.7,170.2,253.5,170.2z M278.9,260.5
		C278.9,260.5,278.9,260.5,278.9,260.5c0,2.9-3.8,6.8-6.6,6.8H149.1c-2.8,0-5.1-2.3-5.1-5.1c0-2.8,2.3-5.1,5.1-5.1
		c0.1,0,0.2,0,0.3,0c0.1,0,0.2,0,0.3,0h46.8c4.2,0,7.7-3.4,7.7-7.7c0-4.2-3.4-7.7-7.7-7.7c-0.2,0-0.3,0-0.5,0.1
		c-0.1-0.1-0.3-0.1-0.5-0.1h-23.4c-3.8,0-7-3.1-7-7c0-3.8,3.1-7,7-7h106.7V260.5z M276.6,161h1.4v1c0,0.7,0.6,1.3,1.3,1.3h40
		l1.5,4.2h-42.7C277.7,164.9,277.2,162.7,276.6,161z M280.5,184.5c-0.5-4.4-1.1-9.8-1.9-14.5h42.8v14.1h-40
		C281.1,184.1,280.8,184.3,280.5,184.5z M299.4,253.5h-18v-12.4h18V253.5z M299.4,238.6h-18v-3.1h18V238.6z M307.7,275H302v-39.6
		h5.7V275z M325.3,232.9h-43.8v-20.2h3.1v15.6c0,0.7,0.6,1.3,1.3,1.3h5.7c0.7,0,1.3-0.6,1.3-1.3v-15.6h1.4v15.6
		c0,0.7,0.6,1.3,1.3,1.3h5.7c0.7,0,1.3-0.6,1.3-1.3v-15.6h1.6v15.6c0,0.7,0.6,1.3,1.3,1.3h5.7c0.7,0,1.3-0.6,1.3-1.3v-15.6h1.4v15.6
		c0,0.7,0.6,1.3,1.3,1.3h5.7c0.7,0,1.3-0.6,1.3-1.3v-15.6h3.2V232.9z M287.1,227.1v-14.4h3.2v14.4H287.1z M296.8,227.1v-14.4h3.2
		v14.4H296.8z M306.6,227.1v-14.4h3.2v14.4H306.6z M316.3,227.1v-14.4h3.2v14.4H316.3z M325.3,210.2h-43.8v-2.2h43.8V210.2z
		 M289.6,204.6v-9.3h3.2v9.3H289.6z M299.3,204.6v-9.3h3.2v9.3H299.3z M309.2,204.6v-9.3h3.2v9.3H309.2z M325.3,205.4h-10.3v-11.3
		c0-0.7-0.6-1.3-1.3-1.3h-5.7c-0.7,0-1.3,0.6-1.3,1.3v11.3h-1.6v-11.3c0-0.7-0.6-1.3-1.3-1.3H298c-0.7,0-1.3,0.6-1.3,1.3v11.3h-1.4
		v-11.3c0-0.7-0.6-1.3-1.3-1.3h-5.7c-0.7,0-1.3,0.6-1.3,1.3v11.3h-5.6v-11.3c0,0,0-0.1,0-0.1c0-0.4-0.3-3.4-0.7-7.6
		c0.2,0.1,0.4,0.2,0.7,0.2h38.1v12.4c0,0.7,0.6,1.3,1.3,1.3h4.5V205.4z"/>
	<path class="st0" d="M95.5,22h2.6v3.5c0,0.7,0.6,1.3,1.3,1.3s1.3-0.6,1.3-1.3V22h2.6c0.7,0,1.3-0.6,1.3-1.3c0-0.7-0.6-1.3-1.3-1.3
		h-2.6V16c0-0.7-0.6-1.3-1.3-1.3s-1.3,0.6-1.3,1.3v3.4h-2.6c-0.7,0-1.3,0.6-1.3,1.3C94.2,21.5,94.8,22,95.5,22z"/>
	<path class="st0" d="M14,32.9c0.2,0.4,0.6,0.7,1.1,0.7c0,0,0,0,0.1,0c0.4,0,0.9-0.2,1.1-0.6l2.3-3.7c0.4-0.6,0.2-1.4-0.4-1.8
		c-0.6-0.4-1.4-0.2-1.8,0.4l-1.1,1.7l-2.2-4.4c-0.3-0.6-1.1-0.9-1.7-0.6c-0.6,0.3-0.9,1.1-0.6,1.7L14,32.9z"/>
	<path class="st0" d="M14,47.6c0.2,0.4,0.6,0.7,1.1,0.7c0,0,0,0,0.1,0c0.4,0,0.9-0.2,1.1-0.6l2.3-3.7c0.4-0.6,0.2-1.4-0.4-1.8
		c-0.6-0.4-1.4-0.2-1.8,0.4l-1.1,1.7L13.1,40c-0.3-0.6-1.1-0.9-1.7-0.6c-0.6,0.3-0.9,1.1-0.6,1.7L14,47.6z"/>
	<path class="st0" d="M46.6,55.2c-2.4,0-4.3,1.9-4.3,4.3c0,2.4,1.9,4.3,4.3,4.3c2.4,0,4.3-1.9,4.3-4.3
		C50.9,57.2,48.9,55.2,46.6,55.2z M46.6,61.3c-1,0-1.8-0.8-1.8-1.8c0-1,0.8-1.8,1.8-1.8c1,0,1.8,0.8,1.8,1.8
		C48.3,60.5,47.5,61.3,46.6,61.3z"/>
	<path class="st0" d="M20.4,7.7l9.1,9l0,0c-0.1,0.1-0.1,0.2-0.2,0.3c-0.4,0.8-0.9,2.5,0.5,3.9c0,0,0,0,0,0c0.7,0.7,1.4,0.9,2.1,0.9
		c0.7,0,1.4-0.2,1.7-0.5c0.1,0,0.1-0.1,0.2-0.2l9.2,9.1c0,0,0,0,0,0c0,0,0,0,0,0l8.5,8.4c-1.6,2.7-2.9,5.7-3.8,8.9
		c-0.1,0.3,0,0.7,0.1,1c0.2,0.3,0.4,0.5,0.8,0.6L72.9,56c0.1,0,0.2,0,0.3,0c0,0,0.1,0,0.1,0c0,0,0.1,0,0.1,0c0.4,0,0.9-0.2,1.1-0.7
		c0.7-1.3,1.1-1.8,2.1-2.6c0.5-0.4,0.6-1.1,0.3-1.6L63.8,28.7c-0.3-0.6-1-0.8-1.6-0.5c-0.1,0.1-2.7,1.2-5.8,4.2l-17-16.9l0.2-0.2
		c0.1-0.1,0.1-0.2,0.2-0.3c0.4-0.8,0.9-2.5-0.5-3.9c-1.4-1.3-3.1-0.9-3.9-0.4c-0.1,0.1-0.2,0.1-0.3,0.2l0,0l-9.1-9
		c-0.1-0.1-0.2-0.2-0.3-0.2C24.5,1,22,0.3,20.4,2c0,0,0,0,0,0c0,0,0,0,0,0c-1.6,1.6-0.9,4.2-0.2,5.4C20.2,7.5,20.3,7.6,20.4,7.7z
		 M62.2,31.1l12,20.5c-0.6,0.6-1,1.2-1.4,1.8l-22.4-6.2c0.7-2.4,1.7-4.6,2.9-6.6c0.7,0.5,1.5,1.1,2.3,1.2c0.3,0.1,1,0.8,1.5,1.2
		c1.3,1.1,2.9,2.5,4.4,2.5c0.5,0,1-0.2,1.5-0.7c0,0,0.1-0.1,0.1-0.1c0,0,0.1-0.1,0.1-0.1c1.7-1.7-0.4-4.1-1.9-5.9
		c-0.4-0.5-1.1-1.3-1.2-1.5c-0.2-1.1-1.2-2.3-1.9-3.1C59.9,32.6,61.3,31.6,62.2,31.1z M55.7,35.3c0.9,0.8,1.8,2,1.9,2.5
		c0.2,0.8,0.8,1.5,1.8,2.7c0.5,0.6,1.6,1.9,1.9,2.5c-0.6-0.2-1.9-1.3-2.5-1.8c-1.2-1-1.9-1.6-2.7-1.8c-0.5-0.1-1.7-1.1-2.5-1.9l-8-8
		l2.1-2.1L55.7,35.3z M46,25.6l-2.1,2.1l-8.3-8.2l1-1c0,0,0,0,0,0l1.1-1.1L46,25.6z M34.3,15.5l2.6-2.6c0.2-0.1,0.5-0.1,0.7,0.1
		c0.2,0.2,0.2,0.5,0.1,0.7l-2.6,2.6c0,0,0,0,0,0l-2.9,2.9c-0.2,0.1-0.5,0.1-0.7-0.1h0c-0.2-0.2-0.2-0.5-0.1-0.7L34.3,15.5
		C34.3,15.5,34.3,15.5,34.3,15.5z M22.1,3.8C22.1,3.8,22.2,3.8,22.1,3.8C22.2,3.8,22.2,3.8,22.1,3.8c0.5-0.5,1.7-0.2,2.3,0.1
		l8.9,8.9L32.2,14c0,0,0,0,0,0l-0.9,0.9L22.3,6C22,5.4,21.7,4.3,22.1,3.8z"/>
	<path class="st0" d="M99,36.8c-0.6-0.3-1.4-0.1-1.7,0.4l-8.6,14.1c-0.4,0.6-0.2,1.3,0.4,1.7c1.7,1.1,2.5,2.4,2.7,4.1
		c0.1,0.7,0.6,1.1,1.3,1.1H109c0.7,0,1.3-0.6,1.3-1.3C110.3,43.2,99.5,37,99,36.8z M94.1,55.8c-0.4-1.6-1.2-2.9-2.6-4.1l7.3-12
		c2.4,1.7,8.4,6.9,8.9,16.1H94.1z"/>
	<path class="st0" d="M109.9,61.4c-0.1-0.7-0.6-1.2-1.3-1.2H92.5c-0.6,0-1.2,0.5-1.3,1.1c-0.2,1.8-1.2,3.5-2.7,4.5
		c-0.6,0.4-0.7,1.1-0.4,1.7l8.5,13.7c0.2,0.4,0.7,0.6,1.1,0.6c0.2,0,0.4,0,0.6-0.1C110.9,75.2,109.9,61.6,109.9,61.4z M98.2,79
		L91,67.2c1.3-1.2,2.2-2.7,2.6-4.4h13.8C107.3,65.9,106.3,74.1,98.2,79z"/>
	<path class="st0" d="M94.3,81.9l-8.2-13.5c-0.3-0.5-1-0.8-1.6-0.5c-0.7,0.3-1.5,0.3-2,0.3c-0.9,0-1.7-0.2-2.5-0.5
		c-0.6-0.3-1.3,0-1.6,0.5l-8.1,14.4c-0.2,0.3-0.2,0.7-0.1,1.1c0.1,0.3,0.4,0.6,0.7,0.8c4.1,1.6,8,2.4,11.7,2.4c0,0,0,0,0,0
		c7.3,0,11.2-3.2,11.3-3.3C94.5,83.1,94.6,82.4,94.3,81.9z M82.7,84.3C82.7,84.3,82.7,84.3,82.7,84.3c-2.9,0-6.1-0.6-9.4-1.7
		l6.8-12.2c0.8,0.2,1.6,0.3,2.4,0.3c0.5,0,1.2,0,1.9-0.2l7,11.6C90.1,83,87.2,84.3,82.7,84.3z"/>
	<path class="st0" d="M66.9,81.8c0.2,0.1,0.4,0.1,0.6,0.1c0.4,0,0.8-0.2,1.1-0.6l8.7-14c0.3-0.6,0.2-1.3-0.3-1.7
		c-0.6-0.4-1.1-1-1.5-1.6c-0.3-0.5-0.8-0.7-1.4-0.6l-16.4,3.9c-0.4,0.1-0.6,0.3-0.8,0.6c-0.2,0.3-0.2,0.7-0.1,1
		C60,78.4,66.6,81.7,66.9,81.8z M73.8,66.2c0.2,0.2,0.4,0.5,0.6,0.7l-7.4,12c-1.7-1.1-5.1-4-7.3-9.3L73.8,66.2z"/>
	<path class="st0" d="M78.9,50.3c0.2,0.4,0.7,0.6,1.1,0.6c0.2,0,0.4-0.1,0.6-0.2c0.9-0.5,1.6-0.6,2.8-0.6c1,0,1.5,0.1,2.2,0.4
		c0.6,0.3,1.3,0,1.6-0.5l8.2-14.3c0.3-0.6,0.2-1.3-0.4-1.7c-0.2-0.1-4.7-2.9-11.7-2.9c-4.1,0-8.2,1-12.2,2.9
		c-0.3,0.2-0.6,0.4-0.7,0.8c-0.1,0.3-0.1,0.7,0.1,1L78.9,50.3z M83.3,33.6c4.3,0,7.6,1.2,9.2,2l-7,12.2c-0.7-0.2-1.3-0.2-2.1-0.2
		c-1.1,0-2,0.1-2.9,0.4l-7-12.4C76.8,34.3,80.1,33.6,83.3,33.6z"/>
	<path class="st0" d="M113.2,33.1c1.3,0,2.4,0.1,3.5,0.3c1.1-0.2,2.2-0.3,3.5-0.3c0.7,0,1.3-0.6,1.3-1.3c0-0.7-0.6-1.3-1.3-1.3
		c-1.3,0-2.4,0.1-3.5,0.2c-1.1-0.1-2.3-0.2-3.5-0.2c-0.7,0-1.3,0.6-1.3,1.3C112,32.5,112.5,33.1,113.2,33.1z"/>
	<path class="st0" d="M46.7,80.7c0-2.8-2.3-5.1-5.1-5.1c-0.1,0-0.1,0-0.2,0c-0.1,0-0.1,0-0.2,0H13c-1.4,0-2.6-1.2-2.6-2.6
		c0-1.4,1.2-2.6,2.6-2.6c0.1,0,0.2,0,0.3,0c0.1,0,0.2,0,0.3,0h14.1c3.4,0,6.2-2.8,6.2-6.2c0-3.4-2.8-6.2-6.2-6.2H0v2.6h27.6
		c2,0,3.7,1.7,3.7,3.7c0,2-1.7,3.7-3.7,3.7H13.6c-0.1,0-0.2,0-0.3,0c-0.1,0-0.2,0-0.3,0c-2.8,0-5.1,2.3-5.1,5.1
		c0,2.8,2.3,5.1,5.1,5.1h28.1c0.1,0,0.1,0,0.2,0c0.1,0,0.1,0,0.2,0c1.4,0,2.6,1.2,2.6,2.6c0,1.4-1.2,2.6-2.6,2.6H0v2.6h41.5
		C44.4,85.8,46.7,83.5,46.7,80.7z"/>
	<path class="st0" d="M76.5,95.1c-0.7,0-1.3,0.6-1.3,1.3c0,0.7,0.6,1.3,1.3,1.3h8.4c0.7,0,1.3-0.6,1.3-1.3c0-0.7-0.6-1.3-1.3-1.3
		H76.5z"/>
	<path class="st0" d="M61.1,97.7h8.4c0.7,0,1.3-0.6,1.3-1.3c0-0.7-0.6-1.3-1.3-1.3h-8.4c-0.7,0-1.3,0.6-1.3,1.3
		C59.8,97.1,60.4,97.7,61.1,97.7z"/>
	<path class="st0" d="M43.3,96.4c0,0.7,0.6,1.3,1.3,1.3h8.4c0.7,0,1.3-0.6,1.3-1.3c0-0.7-0.6-1.3-1.3-1.3h-8.4
		C43.9,95.1,43.3,95.7,43.3,96.4z"/>
	<path class="st0" d="M29,95.1c-0.7,0-1.3,0.6-1.3,1.3c0,0.7,0.6,1.3,1.3,1.3h8.4c0.7,0,1.3-0.6,1.3-1.3c0-0.7-0.6-1.3-1.3-1.3H29z"
		/>
	<path class="st0" d="M12.9,95.1c-0.7,0-1.3,0.6-1.3,1.3c0,0.7,0.6,1.3,1.3,1.3h8.4c0.7,0,1.3-0.6,1.3-1.3c0-0.7-0.6-1.3-1.3-1.3
		H12.9z"/>
	<path class="st0" d="M91.6,97.1c3.2,0,5.7-1,7.2-2.9c2.5-3.1,1.7-7.4,1.6-7.6c-0.1-0.7-0.8-1.1-1.5-1c-0.7,0.1-1.1,0.8-1,1.5
		c0,0,0.1,0.6,0.1,1.4c0,1.2-0.2,2.8-1.2,4.1c-1,1.3-2.8,1.9-5.2,1.9c-0.7,0-1.3,0.6-1.3,1.3C90.4,96.5,90.9,97.1,91.6,97.1z"/>
</g>
</svg>
