<?xml version="1.0" encoding="utf-8"?>
<!-- Generator: Adobe Illustrator 23.0.5, SVG Export Plug-In . SVG Version: 6.00 Build 0)  -->
<svg version="1.1" id="Layer_1" xmlns="http://www.w3.org/2000/svg" xmlns:xlink="http://www.w3.org/1999/xlink" x="0px" y="0px"
	 viewBox="0 0 511.1 208.2" style="enable-background:new 0 0 511.1 208.2;" xml:space="preserve">
<style type="text/css">
	.st0{fill:#009245;}
</style>
<g>
	<g>
		<path class="st0" d="M60.2,48.3c3.4-2.5,6-5.6,7.9-9.1c1.9-3.7,2.8-7.4,2.8-11.6c0-7.2-2.6-13.4-7.7-18.5
			C58,3.9,51.8,1.4,44.4,1.4H10.5C7.6,1.4,5,2.4,3,4.5c-2.1,2-3,4.4-3,7.3v72.9c0,2.9,0.9,5.4,3,7.3c2.1,2.1,4.6,3.2,7.5,3.2h33.9
			c7.3,0,13.6-2.6,18.8-7.8c5-5.2,7.7-11.5,7.7-18.8c0-4-0.9-7.9-2.8-11.5C66.1,53.6,63.6,50.7,60.2,48.3L60.2,48.3z M47.9,72
			L47.9,72c-1.3,1.4-2.8,2.1-4.6,2.1H20.9V59h22.3c1.8,0,3.3,0.6,4.6,2.1c1.2,1.5,2,3.3,2,5.5C49.8,68.8,49.1,70.4,47.9,72L47.9,72z
			 M47.9,35.6L47.9,35.6c-1.3,1.4-2.8,2.1-4.6,2.1H20.9V22.5h22.3c1.8,0,3.3,0.7,4.6,2.2c1.2,1.5,2,3.2,2,5.4
			C49.8,32.2,49.1,34,47.9,35.6L47.9,35.6z"/>
		<path class="st0" d="M153.6,14.4c-3.2-5-7.3-8.7-12.5-10.9c-5.2-2.3-11-3.5-17.6-3.5c-10.3,0-18.5,2.9-25,8.5
			C91.9,14,88.6,22.3,88.6,33v52.9c0,2.9,0.9,5.3,3.1,7.5c2,2,4.6,3,7.5,3c2.9,0,5.3-1,7.3-3c2.2-2.2,3.1-4.6,3.1-7.5V70.6h27.7
			v15.3c0,2.9,1.1,5.3,3.2,7.5c2.1,2,4.5,3,7.4,3c2.9,0,5.4-1,7.5-3c2-2.2,3.1-4.6,3.1-7.5V33C158.5,25.8,156.8,19.6,153.6,14.4
			L153.6,14.4z M137.3,49.5L137.3,49.5h-27.7V33c0-3.2,1.4-6,4.2-8.3c2.7-2.3,5.9-3.5,9.7-3.5c3.8,0,7,1.2,9.8,3.5
			c2.6,2.3,3.9,5,3.9,8.3V49.5z"/>
		<path class="st0" d="M245.8,77.3c-2.1-2.1-4.6-3.2-7.5-3.2H199V10.7c0-2.9-1.1-5.4-3.1-7.5C193.8,1,191.3,0,188.4,0
			c-2.9,0-5.3,1-7.4,3.2c-2.1,2.1-3.1,4.6-3.1,7.5v74.1c0,2.9,1,5.4,3.1,7.3c2.1,2.1,4.5,3.2,7.4,3.2h49.8c2.9,0,5.4-1.1,7.5-3.2
			c2.1-2,3.2-4.4,3.2-7.3S247.9,79.5,245.8,77.3L245.8,77.3z"/>
		<path class="st0" d="M328.2,14.4c-3.2-5-7.3-8.7-12.5-10.9c-5.2-2.3-11-3.5-17.6-3.5c-10.3,0-18.6,2.9-25,8.5
			c-6.6,5.5-9.8,13.8-9.8,24.4v52.9c0,2.9,0.9,5.3,3.1,7.5c2,2,4.6,3,7.3,3c2.9,0,5.5-1,7.4-3c2.1-2.2,3.1-4.6,3.1-7.5V70.6h27.7
			v15.3c0,2.9,1,5.3,3.2,7.5c2.1,2,4.5,3,7.4,3s5.4-1,7.5-3c2-2.2,3.1-4.6,3.1-7.5V33C333.1,25.8,331.4,19.6,328.2,14.4L328.2,14.4z
			 M311.9,49.5L311.9,49.5h-27.7V33c0-3.2,1.4-6,4.1-8.3c2.8-2.3,6-3.5,9.8-3.5s7,1.2,9.7,3.5c2.6,2.3,4,5,4,8.3V49.5z"/>
		<path class="st0" d="M419,3.2C416.9,1,414.4,0,411.5,0c-3.1,0-5.6,1-7.6,3.2c-2,2.1-3.1,4.6-3.1,7.5v39.4L371.5,5
			c-2.2-3.4-5.2-5-8.7-5c-2.9,0-5.4,1-7.5,3.2c-2,2.1-3.1,4.6-3.1,7.5v75.2c0,2.9,1.1,5.3,3.1,7.5c2.1,2,4.6,3,7.5,3s5.3-1,7.4-3
			c2.1-2.2,3.2-4.6,3.2-7.5V46.4l29.2,45.3c2.1,3.2,5,4.7,8.8,4.7c2.9,0,5.4-1,7.5-3c2-2.2,3.1-4.6,3.1-7.5V10.5
			C422.1,7.6,421,5.1,419,3.2L419,3.2z"/>
		<path class="st0" d="M500.5,37.7h-18.9c-2.8,0-5.4,1.1-7.3,3.1c-2.1,2.1-3.1,4.6-3.1,7.5s0.9,5.3,3.1,7.4c2,2.2,4.5,3.2,7.3,3.2
			h8.4v5.6c0,2.9-1.4,5.6-4.1,7.7c-2.8,2-6,3-9.8,3c-4.1,0-7.4-1.2-10.1-3.6c-2.5-2.5-3.7-5.6-3.7-9.4V34.2c0-3.7,1.2-6.7,3.7-9.1
			c2.5-2.6,5.8-3.8,10.1-3.8c0.9,0,1.9,0,2.6,0.2c0.8,0,1.5,0.2,2.2,0.3c0.9,0.1,1.5,0.3,2.1,0.3c0.4,0.2,1.2,0.4,1.8,0.8
			c0.8,0.3,1.4,0.6,1.7,0.8c0.4,0.2,1,0.4,1.8,1.1c0.9,0.4,1.4,0.9,1.9,1c0.3,0.3,0.9,0.8,2,1.5c1.1,0.6,1.8,1.2,2.1,1.5
			c2,1.2,4.1,2,6.2,2c3.1,0,5.6-1,7.5-3.1c2.1-2,3.1-4.5,3.1-7.4c0-2.1-0.6-4.2-1.7-6c-2.3-3.8-6.4-7-12.4-9.9C491,1.5,484,0,476,0
			c-10.1,0-18.5,2.9-25,8.5c-6.6,5.5-9.8,13.8-9.8,24.4v31.6c0,10.4,3.2,18.2,9.8,23.8c6.6,5.3,15,8,25,8c4.9,0,9.5-0.6,13.6-2
			c4.3-1.2,7.9-3.2,11.2-5.8c3.2-2.5,5.6-5.8,7.5-9.9c1.8-4.1,2.7-8.7,2.7-14.1V48.3c0-2.9-0.9-5.4-3.1-7.5
			C506,38.8,503.4,37.7,500.5,37.7L500.5,37.7z"/>
	</g>
	<g>
		<path class="st0" d="M55,153.9H37.4c-2.7,0-4.9,1-6.9,2.8c-1.9,2-2.8,4.3-2.8,7s0.9,4.9,2.8,6.9c2,2.1,4.2,3,6.9,3h7.7v5.2
			c0,2.7-1.3,5.1-3.9,7.1c-2.5,1.8-5.5,2.8-8.8,2.8c-3.9,0-7.1-1.1-9.3-3.3c-2.4-2.3-3.6-5.1-3.6-8.7v-26c0-3.4,1.1-6.2,3.4-8.5
			c2.3-2.4,5.5-3.6,9.5-3.6c0.9,0,1.7,0,2.4,0.2c0.7,0,1.4,0.2,2.1,0.3c0.7,0.1,1.3,0.2,1.8,0.2c0.5,0.2,1,0.4,1.7,0.7
			c0.7,0.3,1.1,0.6,1.5,0.7c0.3,0.2,0.9,0.4,1.7,1c0.7,0.4,1.3,0.8,1.6,0.9c0.2,0.3,0.9,0.7,1.8,1.4c0.9,0.6,1.7,1.1,2.1,1.4
			c1.7,1.1,3.6,1.8,5.8,1.8c2.7,0,5-0.9,7-2.8c1.8-1.8,2.8-4.2,2.8-6.9c0-2-0.6-3.9-1.7-5.5c-2.1-3.6-5.9-6.5-11.5-9.2
			c-5.5-2.6-11.8-3.9-19.2-3.9c-9.5,0-17.3,2.7-23.2,7.9C3.1,132,0,139.7,0,149.6v29.2c0,9.6,3.1,16.8,9.2,22
			c5.9,4.9,13.7,7.4,23.2,7.4c4.5,0,8.8-0.6,12.6-1.8c3.8-1.1,7.2-3,10.2-5.4c2.9-2.3,5.4-5.4,7-9.2c1.7-3.8,2.5-8.1,2.5-13v-15.1
			c0-2.7-0.9-5-2.9-7C60,154.9,57.7,153.9,55,153.9L55,153.9z"/>
		<path class="st0" d="M132.4,172.3c5-1.8,8.8-5,11.6-9.5c2.8-4.7,4.3-9.9,4.3-16c0-7.5-2.1-13.8-6.6-19c-4.2-5.1-10-7.6-17.2-7.6
			H92.4c-2.8,0-5.1,0.8-7,2.4c-1.9,1.6-2.7,3.7-2.7,6.2v69.5c0,2.7,0.9,5,2.8,7c1.9,1.8,4.3,2.8,7,2.8s5-0.9,6.8-2.8
			c2-2,2.8-4.3,2.8-7v-24.9h7.7l20.5,30.3c2,2.9,4.7,4.3,8.1,4.3c2.7,0,5.1-0.9,7-2.8c2-2,2.8-4.3,2.8-7c0-2.1-0.6-4.1-1.7-5.8
			L132.4,172.3z M126.6,151.9L126.6,151.9c-1,1.3-2.5,2-4.5,2h-20.1v-14.1h20.1c2,0,3.4,0.6,4.5,2c1.1,1.3,1.6,3.1,1.6,5.1
			C128.2,149,127.7,150.7,126.6,151.9L126.6,151.9z"/>
		<path class="st0" d="M224.8,132.4c-2.9-4.7-6.9-8.1-11.7-10.1c-4.7-2.1-10.2-3.2-16.3-3.2c-9.5,0-17.1,2.7-23.1,7.9
			c-6.1,5.1-9.1,12.7-9.1,22.6v48.9c0,2.7,1,4.9,2.8,7c2,1.8,4.3,2.8,7,2.8c2.7,0,4.9-0.9,6.7-2.8c2-2.1,3-4.3,3-7v-14.1h25.4v14.1
			c0,2.7,1,4.9,3,7c2,1.8,4.2,2.8,6.9,2.8c2.7,0,5-0.9,7-2.8c1.8-2.1,2.8-4.3,2.8-7v-48.9C229.3,142.9,227.8,137.2,224.8,132.4
			L224.8,132.4z M209.6,164.8L209.6,164.8h-25.4v-15.2c0-3,1.1-5.5,3.7-7.7c2.5-2.1,5.5-3.2,9-3.2c3.6,0,6.5,1.1,9,3.2
			c2.6,2.1,3.7,4.7,3.7,7.7V164.8z"/>
		<path class="st0" d="M309,123.3c-2-2-4.4-2.9-7-2.9h-45.1c-2.7,0-4.9,0.9-6.9,2.9c-1.9,1.8-2.8,4.1-2.8,6.8v68.4
			c0,2.7,0.9,4.9,2.8,7c2,1.8,4.2,2.8,6.9,2.8s5-0.9,7-2.8c1.8-2.1,2.8-4.3,2.8-7v-24.9h24.4c2.7,0,5-0.9,7-3c1.8-2,2.8-4.2,2.8-6.9
			s-1-5-2.8-7c-2-1.8-4.3-2.8-7-2.8h-24.4v-14.1H302c2.5,0,5-0.9,7-2.8c2-2,2.8-4.3,2.8-7C311.7,127.4,310.9,125.1,309,123.3
			L309,123.3z"/>
		<path class="st0" d="M341.8,122c-2-2-4.2-2.9-6.9-2.9s-5,0.9-6.8,2.9c-2,2-3,4.3-3,7v69.5c0,2.7,1,4.9,3,7
			c1.8,1.8,4.1,2.8,6.8,2.8s4.9-0.9,6.9-2.8c1.9-2.1,2.8-4.3,2.8-7V129C344.7,126.3,343.7,124,341.8,122L341.8,122z"/>
		<path class="st0" d="M400.5,163.6l25.6-28.3c1.8-1.8,2.7-4.1,2.7-6.6c0-2.7-1-4.9-2.8-6.8c-1.8-1.8-4.1-2.8-6.8-2.8
			c-3,0-5.5,1.1-7.5,3.2l-29.1,32.1V129c0-2.7-1-5-2.8-7c-2-2-4.3-2.9-7-2.9c-2.7,0-4.9,0.9-6.8,2.9c-2,2-2.9,4.3-2.9,7v69.5
			c0,2.7,0.9,4.9,2.9,7c1.9,1.8,4.1,2.8,6.8,2.8c2.7,0,5-0.9,7-2.8c1.8-2.1,2.8-4.3,2.8-7v-25.8l29.1,32.1c1.8,2.3,4.4,3.4,7.3,3.4
			c2.7,0,5-0.9,7-2.8c1.8-2.1,2.8-4.3,2.8-7c0-2.5-0.9-4.7-2.7-6.6L400.5,163.6z"/>
		<path class="st0" d="M502.1,132.4c-3-4.7-7-8.1-11.8-10.1c-4.7-2.1-10.1-3.2-16.2-3.2c-9.5,0-17.1,2.7-23.2,7.9
			c-6.1,5.1-9,12.7-9,22.6v48.9c0,2.7,0.9,4.9,2.8,7c2,1.8,4.2,2.8,6.9,2.8c2.7,0,5-0.9,6.8-2.8c2-2.1,3-4.3,3-7v-14.1h25.4v14.1
			c0,2.7,0.9,4.9,2.9,7c2,1.8,4.3,2.8,7,2.8s5-0.9,7-2.8c1.8-2.1,2.8-4.3,2.8-7v-48.9C506.5,142.9,505.1,137.2,502.1,132.4
			L502.1,132.4z M486.9,164.8L486.9,164.8h-25.4v-15.2c0-3,1.1-5.5,3.6-7.7c2.5-2.1,5.5-3.2,9.1-3.2c3.5,0,6.5,1.1,9,3.2
			c2.5,2.1,3.7,4.7,3.7,7.7V164.8z"/>
	</g>
</g>
</svg>
