<?xml version="1.0" encoding="utf-8"?>
<!-- Generator: Adobe Illustrator 23.0.5, SVG Export Plug-In . SVG Version: 6.00 Build 0)  -->
<svg version="1.1" id="Layer_1" xmlns="http://www.w3.org/2000/svg" xmlns:xlink="http://www.w3.org/1999/xlink" x="0px" y="0px"
	 viewBox="0 0 194.9 139.2" style="enable-background:new 0 0 194.9 139.2;" xml:space="preserve">
<style type="text/css">
	.st0{opacity:0.2;fill:#6FB274;}
</style>
<path class="st0" d="M194.9,139.2c-6.5-1.9-12.7-4.5-18.5-7.8c-3.8-2.2-7.5-4.6-10.9-7.3c-23.6-18.6-35.9-47.5-32.9-77.2
	c0.4-3.9,1.1-7.8,2-11.6c1.9-8,5-15.7,9.1-22.9c1.7-3,3.7-5.9,5.7-8.7c0.9-1.3,1.9-2.5,2.9-3.7h8.2c-2.1,2.2-4,4.4-5.8,6.8
	c-2.2,2.9-4.2,6-6,9.2c-5.5,9.7-8.9,20.3-10,31.5c-3.1,30.4,11,59.6,36.8,76.2c3.7,2.4,7.6,4.4,11.6,6.2c2.6,1.1,5.3,2.1,7.9,2.9
	V139.2z"/>
<path class="st0" d="M148.2,135.4c-2.9,0-5.9-0.2-8.9-0.5c-43.6-4.4-77.2-40.8-78.2-84.5c-0.1-3.3,0-6.7,0.4-10.1
	c0-0.3,0-0.5,0.1-0.8C63,25.5,68,11.8,75.9,0h7.5c-8.8,11.7-14.2,25.6-15.7,40.3c-0.1,0.6-0.1,1.1-0.2,1.7
	c-0.3,3.4-0.3,6.9-0.2,10.4c1.9,39.7,33.1,72.6,72.6,76.6c2.7,0.3,5.5,0.4,8.2,0.4c5.5,0,11.1-0.6,16.5-1.7
	c4.3-0.9,8.5-2.1,12.6-3.7c6.3-2.4,12.2-5.6,17.7-9.5v7.3c-2.6,1.7-5.3,3.2-8,4.6c-3.9,1.9-8,3.6-12.1,5
	C166.2,134,157.2,135.4,148.2,135.4z"/>
<path class="st0" d="M79.2,50.8c-2.9,0-5.9-0.2-8.9-0.5l-0.8-0.1c-3.3-0.4-6.7-0.9-9.9-1.7C33.3,42.6,11.3,24.5,0,0h6.8
	C17.3,21,36.3,36.4,59,42.2c3.3,0.8,6.7,1.5,10.2,1.9c0.6,0.1,1.1,0.1,1.7,0.2c2.7,0.3,5.5,0.4,8.2,0.4c25.1,0,49.2-12,64.4-32.1
	c2.2-2.9,4.2-6,6-9.1c0.6-1.1,1.3-2.3,1.9-3.5h6.8c-1.1,2.4-2.3,4.8-3.6,7c-1.7,3-3.7,6-5.7,8.7c-4.9,6.6-10.8,12.5-17.4,17.4
	C116.2,44.7,98.1,50.8,79.2,50.8C79.2,50.8,79.2,50.8,79.2,50.8z"/>
</svg>
