<?xml version="1.0" encoding="utf-8"?>
<!-- Generator: Adobe Illustrator 23.0.5, SVG Export Plug-In . SVG Version: 6.00 Build 0)  -->
<svg version="1.1" id="Layer_1" xmlns="http://www.w3.org/2000/svg" xmlns:xlink="http://www.w3.org/1999/xlink" x="0px" y="0px"
	 viewBox="0 0 719 590.1" style="enable-background:new 0 0 719 590.1;" xml:space="preserve">
<style type="text/css">
	.st0{opacity:0.2;fill:#6FB274;}
	.st1{fill:none;stroke:#FFFFFF;stroke-width:0.2435;stroke-miterlimit:10;}
	.st2{fill:#009245;}
	.st3{fill:none;stroke:#32436B;stroke-width:0.7304;stroke-miterlimit:10;}
	.st4{fill:none;stroke:#D8DFF4;stroke-width:0.7304;stroke-miterlimit:10;}
	.st5{fill:#6FB285;}
	.st6{fill:none;stroke:#12121C;stroke-width:0.7304;stroke-miterlimit:10;}
	.st7{fill:#353334;}
	.st8{fill:#FFE0BB;}
	.st9{fill:#0EAF57;}
	.st10{fill:none;stroke:#12121C;stroke-width:0.487;stroke-miterlimit:10;}
	.st11{fill:none;stroke:#12121C;stroke-width:0.2435;stroke-miterlimit:10;}
	.st12{fill:#FFFFFF;}
	.st13{fill:none;stroke:#32436B;stroke-width:0.2435;stroke-miterlimit:10;}
	.st14{fill:none;stroke:#FFFFFF;stroke-width:0.9739;stroke-miterlimit:10;}
</style>
<g>
	<path class="st0" d="M719,566.6c0,30.7-136.5,22.5-311,22.5s-321,8.2-321-22.5s141.5-55.5,316-55.5S719,535.9,719,566.6z"/>
	<g>
		<g>
			<g>
				<path class="st0" d="M227.3,448c-9.8-9.6-24.3-15.7-36.4-21.8c-17-8.6-35.2-7.6-52.9-14.3c-29.1-11-55.8-30.6-73.4-56.2
					c-15.8-23-30.5-43.3-35.7-71.2c-2-10.5-3.5-20.8-7.5-30.8c-4.3-10.8-10.9-16.5-16.9-25.2c-0.9-1.4-3.2-2.5-4.5-3.6
					c13.2-4.6,31.3,0.3,44.8,2.5c13.8,2.2,29.6,2.6,42.5,8.2c33.3,14.6,61.7,41.4,79.5,72.7c13.4,23.5,24,47.3,33.4,72.5
					c6.6,17.8,10.4,36.7,18.8,53.6c2.2,4.4,8.6,11.6,7.2,15.3"/>
				<path class="st1" d="M28.5,240c15.8,6.9,25,16.1,35.7,29c17.2,20.8,33.5,41.5,53.1,60.6c17.5,17.1,35.4,33.8,53.1,50.8
					c7.5,7.2,15.3,14.2,23.1,20.9c5.4,4.7,15.2,7.5,19.3,12.8"/>
				<path class="st1" d="M96.9,371.6c16.2,5.7,36.1,8.8,53.3,7.1"/>
				<path class="st1" d="M54.7,318.6c12.7,14.1,31.9,12.1,47.3,18"/>
				<path class="st1" d="M43.6,281.3c9.1,8.1,17.7,12.4,29,16"/>
				<path class="st1" d="M85.4,278.3c-6.5-8.2-7.5-24.6-10.3-34.5"/>
				<path class="st1" d="M117.6,316.8c-6.5-8.9-5.8-18.7-6.8-29c-0.7-7.1-8.5-26.3-7.2-28.7"/>
				<path class="st1" d="M165.3,364.8c-7.6-16.3-11.7-33.6-13.2-51.6"/>
			</g>
			<g>
				<path class="st0" d="M254,388.1c-10-16.7-27.8-30.4-42.2-43c-20.3-17.9-45.7-23.1-67.5-38.6c-36-25.6-65.6-62-80.6-103.5
					c-13.4-37.2-26.3-70.4-23.4-110.6c1.1-15.1,2.6-29.8,0.8-45c-2-16.3-9-26.6-14.1-40.7C26.1,4.5,23.4,2,22,0.1
					c19.8-1.5,42.9,11.7,60.7,19.5c18.1,8,39.7,14.2,55.4,26.6c40.5,32,69.9,79.1,83.1,128.4c9.9,37.1,16,73.5,19.8,111.6
					c2.7,26.8,1.2,54.1,6.6,80.4c1.4,6.8,7.6,19.1,4.4,23.6"/>
				<path class="st1" d="M55.7,31.1c19.3,15.2,28.6,31,38.7,52.7c16.1,34.8,31.1,69.1,51.2,102.2c17.9,29.7,36.4,59.2,54.6,88.8
					c7.7,12.5,15.9,24.9,24.3,37c5.8,8.3,18.2,15.8,21.8,24.5"/>
				<path class="st1" d="M102.4,236.4c20.2,13.7,46.4,25,70.6,28.8"/>
				<path class="st1" d="M63.5,148.5c12.3,24,39.4,28.1,58.5,41.6"/>
				<path class="st1" d="M61.6,93.3c9.5,14.4,19.9,23.4,34.1,32.3"/>
				<path class="st1" d="M120,104.2c-5.9-13.6-1.4-36.5-1.8-51.1"/>
				<path class="st1" d="M150.4,168.6c-5.7-14.5-1.2-27.8,1.1-42.3c1.6-10-2.2-39.1,0.4-42.1"/>
				<path class="st1" d="M198.8,251.7c-4.7-25.1-4-50.3,0.5-75.6"/>
			</g>
			<g>
				<g>
					<path class="st2" d="M217.3,470.6c0,5.4-4.4,9.8-9.8,9.8c-5.4,0-9.8-4.4-9.8-9.8c0-5.4,4.4-9.8,9.8-9.8
						C212.9,460.8,217.3,465.1,217.3,470.6z"/>
					<path class="st2" d="M288.7,470.6c0,5.4-4.4,9.8-9.8,9.8c-5.4,0-9.8-4.4-9.8-9.8c0-5.4,4.4-9.8,9.8-9.8
						C284.3,460.8,288.7,465.1,288.7,470.6z"/>
					<path class="st2" d="M359.6,470.6c0,5.4-4.4,9.8-9.8,9.8c-5.4,0-9.8-4.4-9.8-9.8c0-5.4,4.4-9.8,9.8-9.8
						C355.2,460.8,359.6,465.1,359.6,470.6z"/>
					<path class="st2" d="M470.4,470.6c0,5.4-4.4,9.8-9.8,9.8c-5.4,0-9.8-4.4-9.8-9.8c0-5.4,4.4-9.8,9.8-9.8
						C466,460.8,470.4,465.1,470.4,470.6z"/>
				</g>
				<rect x="293.4" y="94.1" class="st0" width="214.4" height="372.7"/>
				<line class="st3" x1="297.1" y1="137.8" x2="297.1" y2="466.8"/>
				<line class="st3" x1="296.4" y1="229.9" x2="507.8" y2="229.9"/>
				<rect x="296.4" y="94.8" class="st2" width="146.3" height="86"/>
				<polyline class="st4" points="298.2,142.4 384.1,142.4 442.7,180.9 				"/>
				<g>
					<rect x="309.8" y="318.9" class="st5" width="182.7" height="36.2"/>
					<rect x="309.8" y="364.9" class="st5" width="182.7" height="36.2"/>
					<rect x="309.8" y="411" class="st5" width="182.7" height="36.2"/>
					<rect x="378.6" y="318.9" class="st2" width="45.2" height="10.6"/>
					<rect x="378.6" y="364.9" class="st2" width="45.2" height="10.6"/>
					<rect x="378.6" y="411" class="st2" width="45.2" height="10.6"/>
				</g>
				<line class="st3" x1="296.4" y1="180.9" x2="507.8" y2="180.9"/>
				<g>
					<polygon class="st0" points="176.1,88.1 176.1,466.8 297.1,466.8 297.1,137.8 230.8,88.1 					"/>
					<line class="st3" x1="179.1" y1="186.1" x2="293.1" y2="186.1"/>
					<path class="st2" d="M126.6,116.5l49.5,101.3v-80l-32-32.8c-3.7-3.8-9.5-4.4-13.9-1.5l0,0C125.9,106.3,124.3,111.9,126.6,116.5
						z"/>
					<path class="st0" d="M292.4,444.9c-3.7-6.7-6.6-13.4-7.6-21c-1.1-8.3-1-16.8-2.4-25c-2.1-11.8-8-24-19.4-29.4
						c-7.6-3.6-16.1-4.6-24-7.6c-10.5-4-18.3-12.4-22.5-22.7c-10.3-25.6-5.3-55.9-1.2-82.3c7.1-45.2,23-134.7-39.3-148.1v358h121
						v-12.7C295.6,451,294.1,448,292.4,444.9z"/>
					<line class="st6" x1="138.5" y1="117.2" x2="174.6" y2="180.9"/>
				</g>
				<path class="st0" d="M495.2,446.6c-6.8-3.2-14.3-6.2-19.8-11.4c-9.9-9.3-12.3-23-10.2-35.9c2.1-13.1,7.5-25.2,11.3-37.8
					c3.5-11.6,5.5-25.2-6.6-32.6c-16.7-10.1-38.1-8.9-56.4-14.2c-14-4.1-31.6-11.9-37.3-26.6c-10-26,19.8-57.5-5.3-79.4
					c-20-17.4-53.1-16.7-77.4-10.6v268.7h214.4v-12.1C504.1,451.5,500,448.9,495.2,446.6z"/>
				<g>
					<polygon class="st0" points="313.6,49.6 302.4,94.8 498.8,94.8 489.4,49.7 					"/>
					<path class="st0" d="M488.6,73.2c-16.9,0.2-33.2-2.8-49.9-3.9c-9.4-0.6-18.7-0.5-28,1.1c-6.6,1.1-12.4,4.2-18.8,6
						c-5.7,1.6-17,3.5-20.4-3.2c-3.2-6.2,1.4-14.8-6.7-19c-8.8-4.6-20.9-3-30.4-1.8c-7.6,0.9-15.1,2.3-22.6,4l-9.6,38.4h196.5
						l-4.5-21.8C492.4,73.1,490.5,73.2,488.6,73.2z"/>
				</g>
				<path class="st0" d="M438.1,172.1c0.3-0.1,0.5-0.2,0.8-0.2c-0.3-0.1-0.6-0.3-0.9-0.4c-8.2-3-16.4-5.6-22.7-12
					c-4.7-4.7-6.2-12.1-8.2-18.2c-4.1-12.9-12.5-19.4-26.4-19.6c-10.9-0.2-22.6,2.2-33.3-0.9c-8.8-2.5-15.6-7.7-22.4-13.5
					c-8-6.9-15.3-9.5-26-7.7c-0.3,0.1-0.6,0-0.9-0.1c-0.1,0-0.1,0.1-0.2,0.1c-0.6,0.2-1.1,0.4-1.7,0.6v80.7h146.3v-5.3
					c-1.5-0.1-3.1-0.3-4.6-0.5C436.5,174.8,436.9,172.6,438.1,172.1z"/>
				<g>
					<rect x="389.8" y="64.2" class="st5" width="136.8" height="68.7"/>
					<rect x="397.5" y="72.9" class="st2" width="116.8" height="50.6"/>
					<g>
						<line class="st1" x1="411.4" y1="81.3" x2="411.4" y2="111.3"/>
						<line class="st1" x1="434.3" y1="81.3" x2="434.3" y2="111.3"/>
						<line class="st1" x1="457.2" y1="81.3" x2="457.2" y2="111.3"/>
						<line class="st1" x1="480.2" y1="81.3" x2="480.2" y2="111.3"/>
						<line class="st1" x1="503.1" y1="81.3" x2="503.1" y2="111.3"/>
					</g>
					<line class="st1" x1="402.7" y1="91.9" x2="508.2" y2="91.9"/>
					<line class="st1" x1="402.7" y1="102.2" x2="508.2" y2="102.2"/>
					<rect x="417.2" y="80.8" class="st5" width="12.6" height="8.4"/>
					<rect x="440.1" y="80.8" class="st5" width="12.6" height="8.4"/>
					<rect x="461.4" y="80.8" class="st5" width="12.6" height="8.4"/>
					<rect x="483.7" y="80.8" class="st5" width="12.6" height="8.4"/>
				</g>
			</g>
			<g>
				<g>
					<g>
						<path class="st7" d="M602.8,547.2c0,0,5.3-0.1,11.5,4.7c3.7,2.9,9.2-3.1,10.9-4.6c0.3-0.3,0.8,0,0.9,0.5l2.1,20.1h-53.8
							c-0.6,0-1.1-0.7-1.1-1.5v-4.2c0-0.7,0.3-1.2,0.8-1.4L602.8,547.2z"/>
						<path class="st8" d="M626.4,550.4l3.6-31l-23.9-2.7l-3.2,30.5c0,0,4.4,5.6,9.3,6.7C617,555.1,626.4,550.4,626.4,550.4z"/>
					</g>
					<g>
						<path class="st7" d="M670.6,474.9c0,0-1.8-5,0.8-12.4c1.5-4.4-5.9-7.7-7.9-8.9c-0.4-0.2-0.3-0.8,0.2-1l18.3-8.5l17.3,50.9
							c0.2,0.6-0.3,1.3-1.1,1.6l-4,1.4c-0.6,0.2-1.3,0.1-1.6-0.3L670.6,474.9z"/>
						<path class="st8" d="M666.1,451.6l-30.5,6.6l5.1,23.5l29.9-6.8c0,0,3.9-5.9,3.4-11C673.5,458.9,666.1,451.6,666.1,451.6z"/>
					</g>
					<path class="st8" d="M480.9,333.2c-0.2,0.4-57.8,81.6-57.8,81.6s-18.8,2.4-17.4,7.1c1.1,3.6,9.1,0.6,9.1,0.6
						c1.5-0.1-4,5.9-6,7.6c-2,1.7-10.2,6.9-10.2,9c-0.1,2.2,12.9-4.7,13.1-4.1c0.2,0.6-10.7,10-9.9,11.9c1.5,3.3,10.2-4.9,12.7-7.4
						c-1.7,1.9-9.9,11.4-8.3,13.1c1.2,1.2,10-9.4,10.6-9.4c0.6,0-7.2,9.1-5.9,10.8c1.7,2.1,5-3.6,6.5-4.9c2.1-1.9,67-76.7,90.1-97.4
						C500.7,346.4,487.4,339.4,480.9,333.2z"/>
					<path class="st2" d="M460.3,357.4l35,22.7c0,0,13.7-12.7,24.7-28.1c11.1-15.5,19.1-24.3,18.6-45.6c-0.5-21.4,5.8-30.9-7.9-40.6
						c-13.7-9.6-18.5-15.6-28.3,1.3c-9.8,16.9-15.8,42.7-23.1,56.1C472,336.5,460.3,357.4,460.3,357.4z"/>
					<path class="st2" d="M563,373.3c0,0-31.1,49.8-44.5,69.9c-13.4,20.1-19.5,37.8-14.8,50.7c6.9,19.1,38.7,26.3,63.1,19.6
						c24.4-6.7,89-28.7,89-28.7l-5.8-29.7l-81.3,13.9l68.4-78.5l1-23L563,373.3z"/>
					<path class="st5" d="M679.8,349.3c0,0-83.5-7.8-92.1,20.2c-8.7,28-7.5,54.6,0,96.2c7.5,41.6,10.7,71.8,10.7,71.8h33.4
						l6.5-112.1c0,0,18.3,11,37.7,1.2c19.4-9.7,25.8-21.4,23.7-37.7C697.4,372.7,679.8,349.3,679.8,349.3z"/>
					<path class="st2" d="M529.9,247.6c0,0-19.1,7.7-21.8,13.1c-2.7,5.5,7.2,45.4,15.5,59.7c8.3,14.2,20.9,34.9,30.4,43.5
						c9.5,8.6,6.4,13.7,6.4,13.7s46.6,7.7,69.4-0.1c22.8-7.7,50.1-28.2,50.1-28.2s-47.2-74.9-59.5-88.7
						c-12.3-13.9-10-20.7-26.6-22.9c-16.6-2.3-31.6,0-43.8,3.6C537.6,244.9,529.9,247.6,529.9,247.6z"/>
					<path class="st9" d="M620.3,260.6c-12.3-13.9-10-20.7-26.6-22.9c-16.6-2.3-31.6,0-43.8,3.6c-7.4,2.2-13.1,4-16.5,5.2
						c-2.1,2.8-3.5,6.2-1.9,9.6c1.9,3.7,6,6,9.6,7.7c8.9,4.2,18.8,6,27.7,10.3c4.7,2.3,9.5,6.3,12.1,10.9c2.1,3.7,2.2,7.8,0.1,11.6
						c-2.4,4.3-6.3,7.6-9.9,10.8c-4.2,3.7-8.6,7.3-11.9,11.8c-3.1,4.2-5.4,10-4,15.3c1.2,4.5,5.2,6.6,9.3,7.8
						c4.6,1.3,9.5,1.9,14.1,3.2c4.1,1.1,8.3,2.9,10.8,6.5c8.3,12.5-9,21.9-18.4,27.2c15.1,1.8,42.8,3.9,58.8-1.5
						c22.8-7.7,50.1-28.2,50.1-28.2S632.6,274.4,620.3,260.6z"/>
					<g>
						<path class="st8" d="M569.4,212.4l3.7,25.9l-14.4,15.8c-4.8,4.2-18.6,13.3-21.2-0.5l0,0l2.3-23.5l23.7-21.4
							c0,0,3.6,2.6,4.1,3.5C568,213,569.4,212.4,569.4,212.4z"/>
						<path class="st8" d="M573.1,198.4c0.2,7-6.5,27.9-17.8,29c-0.5,0-2.6,1.3-5.7,2.3c-4.2,1.3-10.1,2-15.7-2.3
							c-0.1-0.1-0.1-0.1-0.2-0.2c-5.1-4-8.9-13.5-1.3-43c2-8,6.4-15,15.8-17.3c1.8-0.4,3.5-0.6,5.2-0.5c0.5,0.1,1.1,0.4,1.7,0.5
							C576.6,171.3,573,194.6,573.1,198.4z"/>
						<path class="st7" d="M567.2,210.6c0,10.3,0,16.3,12,15.2c-1.3-4.4-3.6-8.1-3.1-13.3c0.5-5,3.7-7.8,5.9-11.9
							c5.2-10.1,8.8-20.4,3.2-31.3c-4.8-9.5-15.2-17.2-25.6-17.2c-10.2,0-20.3-0.9-29.1-5.9c-4.1-2.3-6.7-5.7-11.2-2.6
							c-4.1,2.9-4.7,10.4-4.9,14.8c-0.4,9,5,18.9,13.2,23.1c9.3,4.7,19-2.5,29,1.6c10.6,4.3,11.3,11.7,10.8,21.9
							c-0.1,2.7,0.1,6.1-0.8,8.1"/>
						<path class="st8" d="M565.9,205.8c0,4.1,3.3,7.4,7.4,7.4c4.1,0,7.4-3.3,7.4-7.4c0-4.1-3.3-7.4-7.4-7.4
							C569.2,198.4,565.9,201.7,565.9,205.8z"/>
						<path class="st10" d="M549.7,215.1c-5.1,1.7-10.4,2.1-14.3-2.4"/>
						<path class="st11" d="M545.4,190.7c-3.3,4.2-17,16.7-4.5,17.8"/>
						<path class="st7" d="M549.7,196.8c0,1.1,0.9,1.9,2.1,1.9c1.2,0,2.1-0.9,2.1-1.9c0-1.1-0.9-1.9-2.1-1.9
							C550.6,194.9,549.7,195.8,549.7,196.8z"/>
						<path class="st7" d="M534.4,192.6c0,1.1,0.9,1.9,2.1,1.9c1.1,0,2.1-0.9,2.1-1.9c0-1.1-0.9-1.9-2.1-1.9
							C535.3,190.7,534.4,191.6,534.4,192.6z"/>
						<path class="st11" d="M559.9,195.7c-0.2-3.1-4.4-4.8-6.7-5.7"/>
						<path class="st11" d="M540.5,186.9c-1.3-0.7-2.5-1.1-4-1.5c0.1-0.2,0.2-0.3,0.4-0.4"/>
					</g>
					<path class="st8" d="M586.9,368.9c-0.2,0.4-57.8,81.6-57.8,81.6s-18.8,2.4-17.4,7.1c1.1,3.6,9.1,0.5,9.1,0.5
						c1.5-0.1-4,5.9-6,7.6c-2,1.7-10.2,6.9-10.2,9c-0.1,2.2,12.9-4.7,13.1-4.1c0.2,0.6-10.7,10-9.9,11.9c1.4,3.3,10.2-4.9,12.7-7.4
						c-1.7,1.9-9.9,11.4-8.3,13.1c1.2,1.2,10-9.4,10.6-9.4c0.6,0-7.2,9.1-5.9,10.8c1.7,2.1,5.1-3.6,6.5-4.9
						c2.1-1.9,67-76.7,90.1-97.4C606.7,382.2,593.4,375.1,586.9,368.9z"/>
					<path class="st2" d="M582.8,266.6c0,0-7.6-28.8,14.6-29.4c23.3-0.7,55.5,29.8,54.3,102.1c-0.6,38.7-52.5,71.4-52.5,71.4
						L566.5,391l26.2-54.4L582.8,266.6z"/>
					<g>
						<polygon class="st0" points="269.9,487.1 504.2,505.1 501,537.5 266.9,515.9 						"/>
						<polygon class="st2" points="256.9,515.9 256.9,528.7 504.2,551 501,537.5 						"/>
						<polygon class="st7" points="584.4,533.4 584.4,520.1 501,537.5 504.2,551 						"/>
						<path class="st7" d="M327.2,538.9c0,4.8-3.9,8.7-8.7,8.7c-4.8,0-8.7-3.9-8.7-8.7c0-4.8,3.9-8.7,8.7-8.7
							C323.3,530.2,327.2,534.1,327.2,538.9z"/>
						<path class="st7" d="M450.6,551c0,4.8-3.9,8.7-8.7,8.7c-4.8,0-8.7-3.9-8.7-8.7c0-4.8,3.9-8.7,8.7-8.7
							C446.7,542.3,450.6,546.2,450.6,551z"/>
						<path class="st12" d="M274,449.6c0,0,13.2,21.7,28.5,33.2c15.3,11.5,105.1,14.9,113.8,15.5c17,1.3,87.9,6.7,87.9,6.7
							l77.5-17.9c0,0-121,0-192.3-56.7c-12.1-9.6-3.8-19.4-3.8-19.4L274,449.6z"/>
						<line class="st13" x1="274.5" y1="497.1" x2="501" y2="515.9"/>
						<line class="st13" x1="272.3" y1="502.9" x2="498.8" y2="521.7"/>
						<line class="st13" x1="272.3" y1="510.7" x2="498.8" y2="529.6"/>
						<polygon class="st5" points="504.2,505.1 501,537.5 584.4,520.1 581.6,487.1 						"/>
						<path class="st0" d="M524.5,498c-7-1.4-14.1-2.2-21.2-2.7c-6.9-0.5-13.9-0.3-20.8-1.3c-9.2-1.3-17.8-4.4-26.5-7.5
							c-4.4-1.6-8.8-3.2-13.3-4.4c-4.2-1.2-8.6-2.5-13-2.8c-14.7-1.1-29.2,4.1-44,2.5c-5.8-0.6-11.7-2.5-15.3-7.4
							c-3.5-4.7-3.1-10.8-1.2-16.1c2.4-6.5,6.4-12.4,11.1-17.5c3.1-3.4,6.6-6.7,10.6-9.2c-0.5-0.4-0.9-0.7-1.4-1.1
							c-12.1-9.6-3.8-19.4-3.8-19.4L274,449.6c0,0,13.2,21.7,28.5,33.2c15.3,11.5,105.1,14.9,113.8,15.5c17,1.3,87.9,6.7,87.9,6.7
							l25.4-5.9C527.9,498.8,526.2,498.4,524.5,498z"/>
					</g>
					<path class="st13" d="M644.1,407.5c0.1-0.1,0.3-0.6,0.3-0.3c-0.6,3,0.2,6-0.4,8.9c-0.5,2.7-2.2,5.2-3.9,7.4"/>
					<path class="st13" d="M634.1,409.4c0.2,0.1,1.5,4,2,5.1c0.9,2.2,2.6,4.4,3.3,6.6"/>
					<path class="st13" d="M623.8,409.1c-0.3,0.3,2.9,1.5,3.8,2.1c1.7,1.1,3.8,2.4,5.3,3.9c2.3,2.3,3.6,5.7,5.5,7.8"/>
				</g>
				<line class="st14" x1="269.9" y1="487.1" x2="504.2" y2="505.1"/>
			</g>
		</g>
	</g>
</g>
</svg>
