<?xml version="1.0" encoding="utf-8"?>
<!-- Generator: Adobe Illustrator 23.0.5, SVG Export Plug-In . SVG Version: 6.00 Build 0)  -->
<svg version="1.1" id="Layer_1" xmlns="http://www.w3.org/2000/svg" xmlns:xlink="http://www.w3.org/1999/xlink" x="0px" y="0px"
	 viewBox="0 0 30 30" style="enable-background:new 0 0 30 30;" xml:space="preserve">
<style type="text/css">
	.st0{fill:#009245;}
</style>
<path class="st0" d="M12.8,7.6C13,7.7,13.1,8,12.9,8.3c0,0,0,0,0,0l-2.5,4.2h9.2l-2.5-4.2C16.9,8,17,7.7,17.2,7.6
	c0.2-0.1,0.5-0.1,0.7,0.2l2.9,4.8H22c0.6,0,1,0.4,1,1v1c0,0.6-0.4,1-1,1V20c0,1.4-1.1,2.5-2.5,2.5h-9C9.1,22.5,8,21.4,8,20v-4.5
	c-0.6,0-1-0.4-1-1v-1c0-0.6,0.4-1,1-1h1.2l2.9-4.8C12.2,7.5,12.5,7.4,12.8,7.6C12.8,7.6,12.8,7.6,12.8,7.6L12.8,7.6z M9,15.5V20
	c0,0.8,0.7,1.5,1.5,1.5h9c0.8,0,1.5-0.7,1.5-1.5v-4.5H9z M8,13.5v1h14v-1H8z M11,16.5c0.3,0,0.5,0.2,0.5,0.5v3
	c0,0.3-0.2,0.5-0.5,0.5s-0.5-0.2-0.5-0.5v-3C10.5,16.7,10.7,16.5,11,16.5z M13,16.5c0.3,0,0.5,0.2,0.5,0.5v3c0,0.3-0.2,0.5-0.5,0.5
	s-0.5-0.2-0.5-0.5v-3C12.5,16.7,12.7,16.5,13,16.5z M15,16.5c0.3,0,0.5,0.2,0.5,0.5v3c0,0.3-0.2,0.5-0.5,0.5s-0.5-0.2-0.5-0.5v-3
	C14.5,16.7,14.7,16.5,15,16.5z M17,16.5c0.3,0,0.5,0.2,0.5,0.5v3c0,0.3-0.2,0.5-0.5,0.5s-0.5-0.2-0.5-0.5v-3
	C16.5,16.7,16.7,16.5,17,16.5z M19,16.5c0.3,0,0.5,0.2,0.5,0.5v3c0,0.3-0.2,0.5-0.5,0.5s-0.5-0.2-0.5-0.5v-3
	C18.5,16.7,18.7,16.5,19,16.5z"/>
</svg>
