<?xml version="1.0" encoding="utf-8"?>
<!-- Generator: Adobe Illustrator 23.0.5, SVG Export Plug-In . SVG Version: 6.00 Build 0)  -->
<svg version="1.1" id="Layer_1" xmlns="http://www.w3.org/2000/svg" xmlns:xlink="http://www.w3.org/1999/xlink" x="0px" y="0px"
	 viewBox="0 0 70 70" style="enable-background:new 0 0 70 70;" xml:space="preserve">
<style type="text/css">
	.st0{fill:#9D9D9D;}
</style>
<g>
	<title>closeeyes</title>
	<g>
		<g id="Layer_2-2">
			<path class="st0" d="M68.9,56.9l-9.7-7.5c4.6-3.9,8.5-8.8,10.8-14.6C63.8,21,50.4,11.7,35,11.7c-6.5-0.4-12.7,1.2-18.5,4.2
				L5.7,7.7C4.9,6.9,3,6.9,2.2,8.1L0.7,10c-0.8,0.8-0.4,2.3,0.8,3.5l8.9,7.1l8.8,6.5l7.7,5.8L41.2,44l4.6,3.9l6.9,5.4l11.6,9
				c1.2,0.8,2.7,0.8,3.5-0.4l1.5-1.9C70.4,59.2,70.1,57.7,68.9,56.9L68.9,56.9z M50.4,42.5l-4.6-3.9c0.4-1.2,0.8-2.7,0.8-4.2
				c0-6.5-5-11.5-11.5-11.5c-0.8,0-1.5,0-2.3,0.4c0.8,0.8,1.2,2.3,1.2,3.5c0,0.8,0,1.5-0.4,2.3l-9.6-7.7c3.1-2.7,6.9-4.2,11.2-4.2
				c9.6,0,17.3,8.1,17.3,17.7C52.3,37.5,51.9,40.2,50.4,42.5z"/>
			<path class="st0" d="M35,52.1c-8.5,0-15.8-6.1-17.3-14.6l0,0L4.2,26.7c-1.5,2.3-3.1,5-4.2,7.7c5.8,14.2,19.6,23.5,35,23.5
				c2.7,0,5.8-0.4,8.5-0.8l-6.5-5C36.2,52.1,35.8,52.1,35,52.1z"/>
		</g>
	</g>
</g>
</svg>
