<?xml version="1.0" encoding="utf-8"?>
<!-- Generator: Adobe Illustrator 23.0.5, SVG Export Plug-In . SVG Version: 6.00 Build 0)  -->
<svg version="1.1" id="Layer_1" xmlns="http://www.w3.org/2000/svg" xmlns:xlink="http://www.w3.org/1999/xlink" x="0px" y="0px"
	 viewBox="0 0 30 30" style="enable-background:new 0 0 30 30;" xml:space="preserve">
<style type="text/css">
	.st0{fill:#8E8E8E;}
</style>
<g>
	<g>
		<path class="st0" d="M10.2,10.2c0.3-0.3,0.7-0.3,1,0l0,0L15,14l3.8-3.8c0.3-0.3,0.7-0.3,1,0s0.3,0.7,0,1L16,15l3.8,3.8
			c0.3,0.3,0.3,0.7,0,1s-0.7,0.3-1,0L15,16l-3.8,3.8c-0.3,0.3-0.7,0.3-1,0s-0.3-0.7,0-1L14,15l-3.8-3.8C9.9,10.9,9.9,10.5,10.2,10.2
			L10.2,10.2z"/>
	</g>
</g>
</svg>
