<svg id="Layer_1" data-name="Layer 1" xmlns="http://www.w3.org/2000/svg" viewBox="0 0 35 34.99"><defs><style>.cls-1{fill:#009245;}</style></defs><title>daftarIcon</title><path class="cls-1" d="M20.85,16.31a5,5,0,0,0,1.71-3.76,5.06,5.06,0,1,0-10.12,0,5,5,0,0,0,1.7,3.76,8.94,8.94,0,0,0-5.57,8.27v2.91h2V24.58a7,7,0,0,1,11.83-5,5.7,5.7,0,0,1,2-.72A8.78,8.78,0,0,0,20.85,16.31Zm-3.35-.66a3.1,3.1,0,1,1,3.1-3.1A3.1,3.1,0,0,1,17.5,15.65Z"/><path class="cls-1" d="M25.33,19.81a4.93,4.93,0,1,0,3.89,8,4.89,4.89,0,0,0,1.06-3A5,5,0,0,0,25.33,19.81ZM23.4,24h1.1v-1.1a.83.83,0,0,1,.83-.82.82.82,0,0,1,.82.82V24h1.1a.83.83,0,0,1,0,1.66h-1.1v1.1a.82.82,0,0,1-.82.82.83.83,0,0,1-.83-.82v-1.1H23.4a.82.82,0,0,1-.82-.83A.8.8,0,0,1,23.4,24Z"/></svg>