<?xml version="1.0" encoding="utf-8"?>
<!-- Generator: Adobe Illustrator 23.0.5, SVG Export Plug-In . SVG Version: 6.00 Build 0)  -->
<svg version="1.1" id="Layer_1" xmlns="http://www.w3.org/2000/svg" xmlns:xlink="http://www.w3.org/1999/xlink" x="0px" y="0px"
	 viewBox="0 0 70 70" style="enable-background:new 0 0 70 70;" xml:space="preserve">
<style type="text/css">
	.st0{fill:#E74C3C;}
</style>
<path class="st0" d="M35,65.6C18.1,65.6,4.4,51.9,4.4,35S18.1,4.4,35,4.4S65.6,18.1,65.6,35S51.9,65.6,35,65.6z M35,70
	c19.3,0,35-15.7,35-35S54.3,0,35,0S0,15.7,0,35S15.7,70,35,70z"/>
<path class="st0" d="M40.2,28.6l-10,1.3l-0.4,1.7l2,0.4c1.3,0.3,1.5,0.8,1.3,2.1l-3.2,15.2c-0.8,3.9,0.5,5.8,3.5,5.8
	c2.4,0,5.2-1.1,6.4-2.6l0.4-1.8c-0.9,0.8-2.2,1.1-3,1.1c-1.2,0-1.6-0.8-1.3-2.3L40.2,28.6z M40.5,19.5c0,2.4-2,4.4-4.4,4.4
	c-2.4,0-4.4-2-4.4-4.4s2-4.4,4.4-4.4C38.5,15.1,40.5,17.1,40.5,19.5z"/>
</svg>
