<?xml version="1.0" encoding="utf-8"?>
<!-- Generator: Adobe Illustrator 23.0.5, SVG Export Plug-In . SVG Version: 6.00 Build 0)  -->
<svg version="1.1" id="Layer_1" xmlns="http://www.w3.org/2000/svg" xmlns:xlink="http://www.w3.org/1999/xlink" x="0px" y="0px"
	 viewBox="0 0 16 16" style="enable-background:new 0 0 16 16;" xml:space="preserve">
<style type="text/css">
	.st0{fill-rule:evenodd;clip-rule:evenodd;fill:#8E8E8E;}
</style>
<g>
	<g>
		<g>
			<path class="st0" d="M9,7.9C8.6,8.8,7.7,9.4,6.7,9.4c-1.4,0-2.5-1.1-2.5-2.5s1.1-2.5,2.5-2.5c1,0,1.9,0.6,2.2,1.4
				c0.5,0.3,1-0.7,0.7-1.6c0-0.3-0.3-0.7-0.6-1.1C8.7,3,8.3,3,8,3C5.2,3,3,5.2,3,8s2.2,5,5,5s5-2.2,5-5l0,0L9,7.9L9,7.9z M5.2,10.3
				L5.2,10.3c1.7,0.9,3.8,0.5,4.6-1.2h1.8C11.3,11.7,6.8,12.9,5.2,10.3L5.2,10.3z"/>
			<path class="st0" d="M6.7,5.7c0.6,0,1.2,0.5,1.2,1.2c0,0.6-0.5,1.2-1.2,1.2S5.5,7.6,5.5,6.9S6.1,5.7,6.7,5.7L6.7,5.7z"/>
			<path class="st0" d="M11.6,7.4c0-0.2-0.1-1.1-0.5-1.5c0,0.5-0.2,1.3-0.6,1.5H9.1c1.1-1,1.8-3.1,0.3-4.2c1.2,0.4,1.9,1,2.4,1.7
				c0.2,0.3,0.4,0.6,0.6,1C12.8,6.4,12.9,7,13,7.4H11.6z"/>
		</g>
	</g>
</g>
</svg>
