<?xml version="1.0" encoding="utf-8"?>
<!-- Generator: Adobe Illustrator 23.0.5, SVG Export Plug-In . SVG Version: 6.00 Build 0)  -->
<svg version="1.1" id="Layer_1" xmlns="http://www.w3.org/2000/svg" xmlns:xlink="http://www.w3.org/1999/xlink" x="0px" y="0px"
	 viewBox="0 0 30 30" style="enable-background:new 0 0 30 30;" xml:space="preserve">
<style type="text/css">
	.st0{fill:#009245;}
</style>
<path class="st0" d="M14.6,6.9c0.2-0.2,0.5-0.2,0.7,0c0,0,0,0,0,0l1.9,1.9H21c1.1,0,2,0.9,2,2v9c0,1.1-0.9,2-2,2H9c-1.1,0-2-0.9-2-2
	v-9c0-1.1,0.9-2,2-2h3.8L14.6,6.9z M8,13.7v3h14v-3H8z M22,12.7v-2c0-0.6-0.4-1-1-1h-3.8c-0.3,0-0.5-0.1-0.7-0.3L15,7.9l-1.5,1.5
	c-0.2,0.2-0.4,0.3-0.7,0.3H9c-0.6,0-1,0.4-1,1v2H22z M22,17.7H8v2c0,0.6,0.4,1,1,1h12c0.6,0,1-0.4,1-1V17.7z M9,11.2
	c0-0.3,0.2-0.5,0.5-0.5h8c0.3,0,0.5,0.2,0.5,0.5c0,0.3-0.2,0.5-0.5,0.5h-8C9.2,11.7,9,11.5,9,11.2z M9,15.2c0-0.3,0.2-0.5,0.5-0.5
	h11c0.3,0,0.5,0.2,0.5,0.5s-0.2,0.5-0.5,0.5h-11C9.2,15.7,9,15.5,9,15.2z M9,19.2c0-0.3,0.2-0.5,0.5-0.5h6c0.3,0,0.5,0.2,0.5,0.5
	s-0.2,0.5-0.5,0.5h-6C9.2,19.7,9,19.5,9,19.2z"/>
</svg>
