<?xml version="1.0" encoding="utf-8"?>
<!-- Generator: Adobe Illustrator 23.0.5, SVG Export Plug-In . SVG Version: 6.00 Build 0)  -->
<svg version="1.1" id="Layer_1" xmlns="http://www.w3.org/2000/svg" xmlns:xlink="http://www.w3.org/1999/xlink" x="0px" y="0px"
	 viewBox="0 0 70 70" style="enable-background:new 0 0 70 70;" xml:space="preserve">
<style type="text/css">
	.st0{fill-rule:evenodd;clip-rule:evenodd;fill:#FFFFFF;}
	.st1{fill:#9D9D9D;}
</style>
<g>
	<g>
		<g>
			<path class="st0" d="M172.2,2473.1c-1.2,2.6-3.8,4.3-6.9,4.3c-4.2,0-7.6-3.4-7.6-7.5c0-4.2,3.4-7.6,7.6-7.6c3,0,5.7,1.8,6.9,4.4
				c1.7,1,2.9-2.1,2.2-4.8c-0.3-1.3-1.1-2.6-2.2-3.7c-0.9-0.2-1.9-0.3-2.9-0.3c-8.5,0-15.3,6.8-15.3,15.3s6.9,15.3,15.3,15.3
				c8.4,0,15.3-6.9,15.3-15.3v-0.1H172.2z M160.8,2480.3L160.8,2480.3c5.1,2.7,11.7,1.5,14-3.7l5.5,0
				C179.4,2484.5,165.4,2488.1,160.8,2480.3L160.8,2480.3z"/>
			<path class="st0" d="M165.3,2466.3c2,0,3.6,1.6,3.6,3.6c0,2-1.6,3.6-3.6,3.6s-3.6-1.6-3.6-3.6
				C161.7,2467.9,163.3,2466.3,165.3,2466.3L165.3,2466.3z"/>
			<path class="st0" d="M180.2,2471.4c0.1-0.6-0.2-3.4-1.5-4.7c0,1.4-0.7,3.8-1.8,4.7h-4.3c3.3-2.9,5.6-9.5,1-12.9
				c3.6,1.1,5.9,3,7.5,5.1c0.7,0.9,1.4,1.9,1.9,3c0.8,1.6,1.3,3.4,1.5,4.8H180.2z"/>
		</g>
	</g>
</g>
<g>
	<g>
		<g>
			<path class="st1" d="M35,11.7C19.3,11.7,5.7,21.3,0,35c5.7,13.7,19.3,23.3,35,23.3S64.3,48.7,70,35C64.3,21.3,50.8,11.7,35,11.7z
				 M35,52.4c-9.6,0-17.4-7.8-17.4-17.4S25.4,17.6,35,17.6S52.4,25.4,52.4,35S44.6,52.4,35,52.4z"/>
			<path class="st1" d="M35,23.4c-0.8,0-1.5,0.1-2.3,0.2c0.6,1,0.9,2.1,0.9,3.4c0,3.7-3,6.6-6.7,6.6c-1.2,0-2.4-0.3-3.4-0.9
				c-0.1,0.7-0.2,1.5-0.2,2.3c0,6.4,5.2,11.6,11.6,11.6S46.6,41.4,46.6,35C46.6,28.6,41.4,23.4,35,23.4z"/>
		</g>
	</g>
</g>
</svg>
