<?xml version="1.0" encoding="utf-8"?>
<!-- Generator: Adobe Illustrator 23.0.5, SVG Export Plug-In . SVG Version: 6.00 Build 0)  -->
<svg version="1.1" id="Layer_1" xmlns="http://www.w3.org/2000/svg" xmlns:xlink="http://www.w3.org/1999/xlink" x="0px" y="0px"
	 viewBox="0 0 70 70" style="enable-background:new 0 0 70 70;" xml:space="preserve">
<style type="text/css">
	.st0{fill:#FF0000;}
	.st1{fill:#FFFFFF;}
</style>
<g>
	<path class="st0" d="M35,60c-13.79,0-25-11.21-25-25c0-13.78,11.21-25,25-25s25,11.21,25,25C60,48.79,48.79,60,35,60z M35,16.37
		c-10.27,0-18.63,8.36-18.63,18.63c0,10.27,8.36,18.63,18.63,18.63S53.63,45.27,53.63,35C53.63,24.73,45.27,16.37,35,16.37z"/>
</g>
<path class="st1" d="M176.55,53.69c-0.5-4.43-1.02-8.85-1.53-13.26c-0.4-3.53-0.8-7.08-1.21-10.61c-0.12-0.99-0.65-1.42-1.66-1.42
	c-1.83-0.01-3.67,0-5.5,0c-0.16-0.01-0.33,0-0.54,0c0,0.71-0.01,1.36,0.01,2c0.01,0.2,0.15,0.45,0.3,0.58
	c0.57,0.45,0.91,1.01,0.95,1.74c0.05,1.02-0.6,1.92-1.56,2.25c0.03-6.69,0.05-15.43-0.07-17.3c-0.3-4.48-4.16-8.14-8.6-8.16
	c-4.45,0-8.32,3.66-8.62,8.16c-0.13,1.87-0.12,10.69-0.1,17.36c-0.75-0.16-1.39-0.68-1.65-1.42c-0.33-0.92-0.03-1.94,0.72-2.56
	c0.14-0.12,0.37-0.28,0.38-0.44c0.04-0.72,0.01-1.45,0.01-2.22h-0.47c-1.86,0-3.73-0.01-5.6,0c-0.96,0-1.49,0.45-1.61,1.42
	c-0.34,2.93-0.67,5.85-1.01,8.78l-1.42,12.38c-0.37,3.3-0.75,6.59-1.11,9.89c-0.1,0.91,0.49,1.58,1.41,1.63h37.87
	c0.94-0.05,1.53-0.71,1.42-1.63C177.1,58.48,176.82,56.08,176.55,53.69z M149.83,17.75c0.26-3.82,3.53-6.93,7.3-6.93
	c3.76,0.01,7.04,3.12,7.29,6.93c0.12,1.84,0.09,10.56,0.06,17.24c-0.59-0.17-1.12-0.55-1.42-1.12c-0.49-0.95-0.24-2.11,0.59-2.79
	c0.14-0.13,0.4-0.28,0.41-0.42c0.04-0.74,0.01-1.49,0.01-2.24H149.9c0,0.67,0.01,1.29,0,1.92c-0.01,0.3,0.08,0.49,0.34,0.69
	c0.82,0.59,1.12,1.57,0.82,2.5c-0.22,0.67-0.71,1.17-1.33,1.41C149.71,28.29,149.71,19.57,149.83,17.75z"/>
</svg>
