<?xml version="1.0" encoding="utf-8"?>
<!-- Generator: Adobe Illustrator 23.0.5, SVG Export Plug-In . SVG Version: 6.00 Build 0)  -->
<svg version="1.1" id="Layer_1" xmlns="http://www.w3.org/2000/svg" xmlns:xlink="http://www.w3.org/1999/xlink" x="0px" y="0px"
	 viewBox="0 0 30 30" style="enable-background:new 0 0 30 30;" xml:space="preserve">
<style type="text/css">
	.st0{fill:#009245;}
</style>
<g>
	<ellipse class="st0" cx="15.5" cy="16" rx="0.5" ry="1"/>
	<path class="st0" d="M21.5,22H20V9.5C20,8.7,19.3,8,18.5,8H18V7.5c0-0.1-0.1-0.3-0.2-0.4C17.7,7,17.6,7,17.4,7l-7,1
		C10.2,8,10,8.3,10,8.5V22H8.5C8.2,22,8,22.2,8,22.5C8,22.8,8.2,23,8.5,23h13c0.3,0,0.5-0.2,0.5-0.5C22,22.2,21.8,22,21.5,22z
		 M17,22h-6V8.9l6-0.9V22z M19,22h-1V9h0.5C18.8,9,19,9.2,19,9.5V22z"/>
</g>
</svg>
