<?xml version="1.0" encoding="utf-8"?>
<!-- Generator: Adobe Illustrator 23.0.5, SVG Export Plug-In . SVG Version: 6.00 Build 0)  -->
<svg version="1.1" id="Layer_1" xmlns="http://www.w3.org/2000/svg" xmlns:xlink="http://www.w3.org/1999/xlink" x="0px" y="0px"
	 viewBox="0 0 30 30" style="enable-background:new 0 0 30 30;" xml:space="preserve">
<style type="text/css">
	.st0{fill-rule:evenodd;clip-rule:evenodd;fill:#009245;}
</style>
<g>
	<path class="st0" d="M10.5,19c-0.3,0-0.5-0.2-0.5-0.5v-8c0-0.3,0.2-0.5,0.5-0.5h9c0.3,0,0.5,0.2,0.5,0.5v8c0,0.3-0.2,0.5-0.5,0.5
		h-2c-0.3,0-0.5,0.2-0.5,0.5c0,0.3,0.2,0.5,0.5,0.5h2c0.8,0,1.5-0.7,1.5-1.5v-8C21,9.7,20.3,9,19.5,9h-9C9.7,9,9,9.7,9,10.5v8
		c0,0.8,0.7,1.5,1.5,1.5h2c0.3,0,0.5-0.2,0.5-0.5c0-0.3-0.2-0.5-0.5-0.5H10.5z"/>
	<path class="st0" d="M15.4,13.1c-0.2-0.1-0.6-0.1-0.8,0l0,0l-3,3c-0.2,0.2-0.2,0.5,0,0.7c0.2,0.2,0.5,0.2,0.7,0l2.1-2.1v7.7
		c0,0.3,0.2,0.5,0.5,0.5s0.5-0.2,0.5-0.5v-7.7l2.1,2.1c0.2,0.2,0.5,0.2,0.7,0c0.2-0.2,0.2-0.5,0-0.7L15.4,13.1z"/>
</g>
</svg>
